SourceSansPro-Black.ufo
<glyph name="quotedbl" format="1">
  <advance width="580"/>
  <unicode hex="0022"/>
  <outline>
    <contour>
      <point x="114" y="324" type="line"/>
      <point x="80" y="536" type="line"/>
      <point x="74" y="684" type="line"/>
      <point x="246" y="684" type="line"/>
      <point x="240" y="536" type="line"/>
      <point x="206" y="324" type="line"/>
    </contour>
    <contour>
      <point x="374" y="324" type="line"/>
      <point x="340" y="536" type="line"/>
      <point x="334" y="684" type="line"/>
      <point x="506" y="684" type="line"/>
      <point x="500" y="536" type="line"/>
      <point x="466" y="324" type="line"/>
    </contour>
  </outline>
</glyph>
<glyph name="numbersign" format="1">
  <advance width="540"/>
  <unicode hex="0023"/>
  <outline>
    <contour>
      <point x="84" y="0" type="line"/>
      <point x="106" y="180" type="line"/>
      <point x="34" y="180" type="line"/>
      <point x="34" y="288" type="line"/>
      <point x="118" y="288" type="line"/>
      <point x="130" y="384" type="line"/>
      <point x="54" y="384" type="line"/>
      <point x="54" y="492" type="line"/>
      <point x="144" y="492" type="line"/>
      <point x="164" y="650" type="line"/>
      <point x="260" y="650" type="line"/>
      <point x="242" y="492" type="line"/>
      <point x="334" y="492" type="line"/>
      <point x="354" y="650" type="line"/>
      <point x="450" y="650" type="line"/>
      <point x="432" y="492" type="line"/>
      <point x="510" y="492" type="line"/>
      <point x="510" y="384" type="line"/>
      <point x="418" y="384" type="line"/>
      <point x="406" y="288" type="line"/>
      <point x="490" y="288" type="line"/>
      <point x="490" y="180" type="line"/>
      <point x="394" y="180" type="line"/>
      <point x="372" y="0" type="line"/>
      <point x="274" y="0" type="line"/>
      <point x="296" y="180" type="line"/>
      <point x="204" y="180" type="line"/>
      <point x="182" y="0" type="line"/>
    </contour>
    <contour>
      <point x="216" y="288" type="line"/>
      <point x="308" y="288" type="line"/>
      <point x="320" y="384" type="line"/>
      <point x="228" y="384" type="line"/>
    </contour>
  </outline>
</glyph>
<glyph name="dollar" format="1">
  <advance width="540"/>
  <unicode hex="0024"/>
  <outline>
    <contour>
      <point x="212" y="-110" type="line"/>
      <point x="212" y="-10" type="line"/>
      <point x="155" y="-3"/>
      <point x="84" y="21"/>
      <point x="34" y="66" type="curve"/>
      <point x="108" y="182" type="line"/>
      <point x="162" y="142"/>
      <point x="204" y="126"/>
      <point x="246" y="126" type="curve" smooth="yes"/>
      <point x="296" y="126"/>
      <point x="316" y="143"/>
      <point x="316" y="182" type="curve" smooth="yes"/>
      <point x="316" y="262"/>
      <point x="58" y="273"/>
      <point x="58" y="448" type="curve" smooth="yes"/>
      <point x="58" y="549"/>
      <point x="115" y="619"/>
      <point x="212" y="640" type="curve"/>
      <point x="212" y="744" type="line"/>
      <point x="324" y="744" type="line"/>
      <point x="324" y="642" type="line"/>
      <point x="387" y="632"/>
      <point x="435" y="600"/>
      <point x="475" y="558" type="curve"/>
      <point x="390" y="460" type="line"/>
      <point x="354" y="492"/>
      <point x="323" y="508"/>
      <point x="286" y="508" type="curve" smooth="yes"/>
      <point x="243" y="508"/>
      <point x="222" y="496"/>
      <point x="222" y="456" type="curve" smooth="yes"/>
      <point x="222" y="380"/>
      <point x="480" y="376"/>
      <point x="480" y="194" type="curve" smooth="yes"/>
      <point x="480" y="97"/>
      <point x="429" y="21"/>
      <point x="324" y="-4" type="curve"/>
      <point x="324" y="-110" type="line"/>
    </contour>
  </outline>
</glyph>
<glyph name="percent" format="1">
  <advance width="870"/>
  <unicode hex="0025"/>
  <outline>
    <contour>
      <point x="190" y="248" type="curve" smooth="yes"/>
      <point x="94" y="248"/>
      <point x="22" y="326"/>
      <point x="22" y="456" type="curve" smooth="yes"/>
      <point x="22" y="586"/>
      <point x="94" y="662"/>
      <point x="190" y="662" type="curve" smooth="yes"/>
      <point x="286" y="662"/>
      <point x="358" y="586"/>
      <point x="358" y="456" type="curve" smooth="yes"/>
      <point x="358" y="326"/>
      <point x="286" y="248"/>
    </contour>
    <contour>
      <point x="190" y="342" type="curve" smooth="yes"/>
      <point x="216" y="342"/>
      <point x="240" y="368"/>
      <point x="240" y="456" type="curve" smooth="yes"/>
      <point x="240" y="544"/>
      <point x="216" y="568"/>
      <point x="190" y="568" type="curve" smooth="yes"/>
      <point x="164" y="568"/>
      <point x="140" y="544"/>
      <point x="140" y="456" type="curve" smooth="yes"/>
      <point x="140" y="368"/>
      <point x="164" y="342"/>
    </contour>
    <contour>
      <point x="214" y="-12" type="line"/>
      <point x="562" y="662" type="line"/>
      <point x="658" y="662" type="line"/>
      <point x="310" y="-12" type="line"/>
    </contour>
    <contour>
      <point x="680" y="-12" type="curve" smooth="yes"/>
      <point x="584" y="-12"/>
      <point x="512" y="66"/>
      <point x="512" y="196" type="curve" smooth="yes"/>
      <point x="512" y="326"/>
      <point x="584" y="402"/>
      <point x="680" y="402" type="curve" smooth="yes"/>
      <point x="776" y="402"/>
      <point x="848" y="326"/>
      <point x="848" y="196" type="curve" smooth="yes"/>
      <point x="848" y="66"/>
      <point x="776" y="-12"/>
    </contour>
    <contour>
      <point x="680" y="82" type="curve" smooth="yes"/>
      <point x="706" y="82"/>
      <point x="730" y="108"/>
      <point x="730" y="196" type="curve" smooth="yes"/>
      <point x="730" y="284"/>
      <point x="706" y="308"/>
      <point x="680" y="308" type="curve" smooth="yes"/>
      <point x="654" y="308"/>
      <point x="630" y="284"/>
      <point x="630" y="196" type="curve" smooth="yes"/>
      <point x="630" y="108"/>
      <point x="654" y="82"/>
    </contour>
  </outline>
</glyph>
<glyph name="ampersand" format="1">
  <advance width="690"/>
  <unicode hex="0026"/>
  <outline>
    <contour>
      <point x="246" y="-12" type="curve" smooth="yes"/>
      <point x="95" y="-12"/>
      <point x="22" y="78"/>
      <point x="22" y="176" type="curve" smooth="yes"/>
      <point x="22" y="267"/>
      <point x="75" y="319"/>
      <point x="137" y="357" type="curve"/>
      <point x="112" y="402"/>
      <point x="98" y="447"/>
      <point x="98" y="486" type="curve" smooth="yes"/>
      <point x="98" y="580"/>
      <point x="170" y="662"/>
      <point x="286" y="662" type="curve" smooth="yes"/>
      <point x="390" y="662"/>
      <point x="458" y="602"/>
      <point x="458" y="508" type="curve" smooth="yes"/>
      <point x="458" y="423"/>
      <point x="394" y="370"/>
      <point x="328" y="327" type="curve"/>
      <point x="361" y="292"/>
      <point x="401" y="259"/>
      <point x="442" y="230" type="curve"/>
      <point x="472" y="270"/>
      <point x="497" y="318"/>
      <point x="512" y="374" type="curve"/>
      <point x="668" y="374" type="line"/>
      <point x="645" y="298"/>
      <point x="611" y="227"/>
      <point x="562" y="161" type="curve"/>
      <point x="601" y="142"/>
      <point x="639" y="130"/>
      <point x="670" y="126" type="curve"/>
      <point x="630" y="-12" type="line"/>
      <point x="573" y="-2"/>
      <point x="514" y="20"/>
      <point x="456" y="51" type="curve"/>
      <point x="399" y="12"/>
      <point x="329" y="-12"/>
    </contour>
    <contour>
      <point x="239" y="486" type="curve" smooth="yes"/>
      <point x="239" y="466"/>
      <point x="245" y="444"/>
      <point x="257" y="421" type="curve"/>
      <point x="298" y="445"/>
      <point x="328" y="470"/>
      <point x="328" y="508" type="curve" smooth="yes"/>
      <point x="328" y="536"/>
      <point x="315" y="550"/>
      <point x="290" y="550" type="curve" smooth="yes"/>
      <point x="263" y="550"/>
      <point x="239" y="528"/>
    </contour>
    <contour>
      <point x="268" y="118" type="curve" smooth="yes"/>
      <point x="289" y="118"/>
      <point x="310" y="124"/>
      <point x="332" y="134" type="curve"/>
      <point x="288" y="169"/>
      <point x="248" y="207"/>
      <point x="214" y="247" type="curve"/>
      <point x="196" y="228"/>
      <point x="184" y="209"/>
      <point x="184" y="186" type="curve" smooth="yes"/>
      <point x="184" y="146"/>
      <point x="216" y="118"/>
    </contour>
  </outline>
</glyph>
<glyph name="quotesingle" format="1">
  <advance width="320"/>
  <unicode hex="0027"/>
  <outline>
    <contour>
      <point x="114" y="324" type="line"/>
      <point x="80" y="536" type="line"/>
      <point x="74" y="684" type="line"/>
      <point x="246" y="684" type="line"/>
      <point x="240" y="536" type="line"/>
      <point x="206" y="324" type="line"/>
    </contour>
  </outline>
</glyph>
<glyph name="parenleft" format="1">
  <advance width="360"/>
  <unicode hex="0028"/>
  <outline>
    <contour>
      <point x="200" y="-180" type="line"/>
      <point x="116" y="-42"/>
      <point x="68" y="102"/>
      <point x="68" y="278" type="curve" smooth="yes"/>
      <point x="68" y="454"/>
      <point x="116" y="598"/>
      <point x="200" y="736" type="curve"/>
      <point x="308" y="692" type="line"/>
      <point x="236" y="562"/>
      <point x="206" y="416"/>
      <point x="206" y="278" type="curve" smooth="yes"/>
      <point x="206" y="140"/>
      <point x="236" y="-6"/>
      <point x="308" y="-136" type="curve"/>
    </contour>
  </outline>
</glyph>
<glyph name="parenright" format="1">
  <advance width="360"/>
  <unicode hex="0029"/>
  <outline>
    <contour>
      <point x="160" y="-180" type="curve"/>
      <point x="52" y="-136" type="line"/>
      <point x="124" y="-6"/>
      <point x="154" y="140"/>
      <point x="154" y="278" type="curve" smooth="yes"/>
      <point x="154" y="416"/>
      <point x="124" y="562"/>
      <point x="52" y="692" type="curve"/>
      <point x="160" y="736" type="line"/>
      <point x="244" y="598"/>
      <point x="292" y="454"/>
      <point x="292" y="278" type="curve" smooth="yes"/>
      <point x="292" y="102"/>
      <point x="244" y="-42"/>
    </contour>
  </outline>
</glyph>
<glyph name="asterisk" format="1">
  <advance width="472"/>
  <unicode hex="002A"/>
  <outline>
    <contour>
      <point x="152" y="321" type="line"/>
      <point x="82" y="372" type="line"/>
      <point x="142" y="479" type="line"/>
      <point x="30" y="531" type="line"/>
      <point x="57" y="614" type="line"/>
      <point x="178" y="590" type="line"/>
      <point x="192" y="712" type="line"/>
      <point x="280" y="712" type="line"/>
      <point x="294" y="589" type="line"/>
      <point x="415" y="614" type="line"/>
      <point x="442" y="531" type="line"/>
      <point x="329" y="479" type="line"/>
      <point x="390" y="372" type="line"/>
      <point x="320" y="321" type="line"/>
      <point x="236" y="412" type="line"/>
    </contour>
  </outline>
</glyph>
<glyph name="plus" format="1">
  <advance width="540"/>
  <unicode hex="002B"/>
  <outline>
    <contour>
      <point x="208" y="90" type="line"/>
      <point x="208" y="270" type="line"/>
      <point x="34" y="270" type="line"/>
      <point x="34" y="390" type="line"/>
      <point x="208" y="390" type="line"/>
      <point x="208" y="570" type="line"/>
      <point x="332" y="570" type="line"/>
      <point x="332" y="390" type="line"/>
      <point x="506" y="390" type="line"/>
      <point x="506" y="270" type="line"/>
      <point x="332" y="270" type="line"/>
      <point x="332" y="90" type="line"/>
    </contour>
  </outline>
</glyph>
<glyph name="comma" format="1">
  <advance width="320"/>
  <unicode hex="002C"/>
  <outline>
    <contour>
      <point x="80" y="-204" type="curve"/>
      <point x="46" y="-114" type="line"/>
      <point x="127" y="-88"/>
      <point x="168" y="-40"/>
      <point x="167" y="8" type="curve"/>
      <point x="160" y="8" type="line" smooth="yes"/>
      <point x="108" y="8"/>
      <point x="60" y="42"/>
      <point x="60" y="102" type="curve" smooth="yes"/>
      <point x="60" y="158"/>
      <point x="106" y="196"/>
      <point x="164" y="196" type="curve" smooth="yes"/>
      <point x="238" y="196"/>
      <point x="278" y="138"/>
      <point x="278" y="40" type="curve" smooth="yes"/>
      <point x="278" y="-78"/>
      <point x="210" y="-168"/>
    </contour>
  </outline>
</glyph>
<glyph name="hyphen" format="1">
  <advance width="340"/>
  <unicode hex="002D"/>
  <outline>
    <contour>
      <point x="44" y="194" type="line"/>
      <point x="44" y="314" type="line"/>
      <point x="296" y="314" type="line"/>
      <point x="296" y="194" type="line"/>
    </contour>
  </outline>
</glyph>
<glyph name="period" format="1">
  <advance width="320"/>
  <unicode hex="002E"/>
  <outline>
    <contour>
      <point x="160" y="-12" type="curve" smooth="yes"/>
      <point x="102" y="-12"/>
      <point x="60" y="34"/>
      <point x="60" y="92" type="curve" smooth="yes"/>
      <point x="60" y="150"/>
      <point x="102" y="196"/>
      <point x="160" y="196" type="curve" smooth="yes"/>
      <point x="218" y="196"/>
      <point x="260" y="150"/>
      <point x="260" y="92" type="curve" smooth="yes"/>
      <point x="260" y="34"/>
      <point x="218" y="-12"/>
    </contour>
  </outline>
</glyph>
<glyph name="slash" format="1">
  <advance width="334"/>
  <unicode hex="002F"/>
  <outline>
    <contour>
      <point x="14" y="-160" type="line"/>
      <point x="190" y="710" type="line"/>
      <point x="300" y="710" type="line"/>
      <point x="124" y="-160" type="line"/>
    </contour>
  </outline>
</glyph>
<glyph name="zero" format="1">
  <advance width="540"/>
  <unicode hex="0030"/>
  <outline>
    <contour>
      <point x="270" y="-12" type="curve" smooth="yes"/>
      <point x="130" y="-12"/>
      <point x="34" y="103"/>
      <point x="34" y="320" type="curve" smooth="yes"/>
      <point x="34" y="537"/>
      <point x="130" y="646"/>
      <point x="270" y="646" type="curve" smooth="yes"/>
      <point x="410" y="646"/>
      <point x="506" y="536"/>
      <point x="506" y="320" type="curve" smooth="yes"/>
      <point x="506" y="103"/>
      <point x="410" y="-12"/>
    </contour>
    <contour>
      <point x="270" y="120" type="curve" smooth="yes"/>
      <point x="310" y="120"/>
      <point x="344" y="152"/>
      <point x="344" y="320" type="curve" smooth="yes"/>
      <point x="344" y="488"/>
      <point x="310" y="514"/>
      <point x="270" y="514" type="curve" smooth="yes"/>
      <point x="230" y="514"/>
      <point x="196" y="488"/>
      <point x="196" y="320" type="curve" smooth="yes"/>
      <point x="196" y="152"/>
      <point x="230" y="120"/>
    </contour>
  </outline>
</glyph>
<glyph name="one" format="1">
  <advance width="540"/>
  <unicode hex="0031"/>
  <outline>
    <contour>
      <point x="66" y="0" type="line"/>
      <point x="66" y="138" type="line"/>
      <point x="202" y="138" type="line"/>
      <point x="202" y="466" type="line"/>
      <point x="82" y="466" type="line"/>
      <point x="82" y="572" type="line"/>
      <point x="154" y="586"/>
      <point x="200" y="604"/>
      <point x="248" y="634" type="curve"/>
      <point x="374" y="634" type="line"/>
      <point x="374" y="138" type="line"/>
      <point x="488" y="138" type="line"/>
      <point x="488" y="0" type="line"/>
    </contour>
  </outline>
</glyph>
<glyph name="four" format="1">
  <advance width="540"/>
  <unicode hex="0034"/>
  <outline>
    <contour>
      <point x="290" y="0" type="line"/>
      <point x="290" y="142" type="line"/>
      <point x="20" y="142" type="line"/>
      <point x="20" y="262" type="line"/>
      <point x="236" y="634" type="line"/>
      <point x="450" y="634" type="line"/>
      <point x="450" y="272" type="line"/>
      <point x="518" y="272" type="line"/>
      <point x="518" y="142" type="line"/>
      <point x="450" y="142" type="line"/>
      <point x="450" y="0" type="line"/>
    </contour>
    <contour>
      <point x="182" y="272" type="line"/>
      <point x="290" y="272" type="line"/>
      <point x="290" y="344" type="line" smooth="yes"/>
      <point x="290" y="387"/>
      <point x="294" y="451"/>
      <point x="296" y="494" type="curve"/>
      <point x="292" y="494" type="line"/>
      <point x="276" y="456"/>
      <point x="258" y="418"/>
      <point x="240" y="380" type="curve" smooth="yes"/>
    </contour>
  </outline>
</glyph>
<glyph name="seven" format="1">
  <advance width="540"/>
  <unicode hex="0037"/>
  <outline>
    <contour>
      <point x="152" y="0" type="line"/>
      <point x="164" y="200"/>
      <point x="198" y="327"/>
      <point x="316" y="490" type="curve"/>
      <point x="44" y="490" type="line"/>
      <point x="44" y="634" type="line"/>
      <point x="498" y="634" type="line"/>
      <point x="498" y="528" type="line"/>
      <point x="352" y="357"/>
      <point x="336" y="247"/>
      <point x="324" y="0" type="curve"/>
    </contour>
  </outline>
</glyph>
<glyph name="eight" format="1">
  <advance width="540"/>
  <unicode hex="0038"/>
  <outline>
    <contour>
      <point x="268" y="-12" type="curve" smooth="yes"/>
      <point x="139" y="-12"/>
      <point x="42" y="58"/>
      <point x="42" y="162" type="curve" smooth="yes"/>
      <point x="42" y="236"/>
      <point x="86" y="280"/>
      <point x="146" y="312" type="curve"/>
      <point x="146" y="316" type="line"/>
      <point x="96" y="354"/>
      <point x="62" y="400"/>
      <point x="62" y="466" type="curve" smooth="yes"/>
      <point x="62" y="578"/>
      <point x="150" y="646"/>
      <point x="274" y="646" type="curve" smooth="yes"/>
      <point x="392" y="646"/>
      <point x="472" y="578"/>
      <point x="472" y="470" type="curve" smooth="yes"/>
      <point x="472" y="412"/>
      <point x="436" y="366"/>
      <point x="391" y="337" type="curve"/>
      <point x="391" y="333" type="line"/>
      <point x="453" y="300"/>
      <point x="500" y="250"/>
      <point x="500" y="166" type="curve" smooth="yes"/>
      <point x="500" y="64"/>
      <point x="407" y="-12"/>
    </contour>
    <contour>
      <point x="306" y="378" type="curve"/>
      <point x="324" y="404"/>
      <point x="334" y="430"/>
      <point x="334" y="458" type="curve" smooth="yes"/>
      <point x="334" y="502"/>
      <point x="310" y="528"/>
      <point x="270" y="528" type="curve" smooth="yes"/>
      <point x="239" y="528"/>
      <point x="212" y="510"/>
      <point x="212" y="466" type="curve" smooth="yes"/>
      <point x="212" y="424"/>
      <point x="246" y="402"/>
    </contour>
    <contour>
      <point x="272" y="106" type="curve" smooth="yes"/>
      <point x="310" y="106"/>
      <point x="341" y="124"/>
      <point x="341" y="172" type="curve" smooth="yes"/>
      <point x="341" y="218"/>
      <point x="297" y="236"/>
      <point x="222" y="268" type="curve"/>
      <point x="203" y="246"/>
      <point x="189" y="214"/>
      <point x="189" y="182" type="curve" smooth="yes"/>
      <point x="189" y="132"/>
      <point x="228" y="106"/>
    </contour>
  </outline>
</glyph>
<glyph name="nine" format="1">
  <advance width="540"/>
  <unicode hex="0039"/>
  <outline>
    <contour>
      <point x="258" y="354" type="curve" smooth="yes"/>
      <point x="288" y="354"/>
      <point x="319" y="370"/>
      <point x="339" y="408" type="curve"/>
      <point x="325" y="497"/>
      <point x="287" y="518"/>
      <point x="256" y="518" type="curve" smooth="yes"/>
      <point x="220" y="518"/>
      <point x="188" y="497"/>
      <point x="188" y="430" type="curve" smooth="yes"/>
      <point x="188" y="369"/>
      <point x="222" y="354"/>
    </contour>
    <contour>
      <point x="238" y="-12" type="curve" smooth="yes"/>
      <point x="148" y="-12"/>
      <point x="82" y="26"/>
      <point x="40" y="68" type="curve"/>
      <point x="130" y="170" type="line"/>
      <point x="150" y="148"/>
      <point x="190" y="126"/>
      <point x="226" y="126" type="curve" smooth="yes"/>
      <point x="289" y="126"/>
      <point x="337" y="169"/>
      <point x="343" y="297" type="curve"/>
      <point x="312" y="256"/>
      <point x="258" y="234"/>
      <point x="224" y="234" type="curve" smooth="yes"/>
      <point x="116" y="234"/>
      <point x="32" y="294"/>
      <point x="32" y="430" type="curve" smooth="yes"/>
      <point x="32" y="566"/>
      <point x="132" y="646"/>
      <point x="252" y="646" type="curve" smooth="yes"/>
      <point x="374" y="646"/>
      <point x="500" y="558"/>
      <point x="500" y="328" type="curve" smooth="yes"/>
      <point x="500" y="98"/>
      <point x="374" y="-12"/>
    </contour>
  </outline>
</glyph>
<glyph name="colon" format="1">
  <advance width="320"/>
  <unicode hex="003A"/>
  <outline>
    <contour>
      <point x="160" y="298" type="curve" smooth="yes"/>
      <point x="102" y="298"/>
      <point x="60" y="344"/>
      <point x="60" y="402" type="curve" smooth="yes"/>
      <point x="60" y="460"/>
      <point x="102" y="506"/>
      <point x="160" y="506" type="curve" smooth="yes"/>
      <point x="218" y="506"/>
      <point x="260" y="460"/>
      <point x="260" y="402" type="curve" smooth="yes"/>
      <point x="260" y="344"/>
      <point x="218" y="298"/>
    </contour>
    <contour>
      <point x="160" y="-12" type="curve" smooth="yes"/>
      <point x="102" y="-12"/>
      <point x="60" y="34"/>
      <point x="60" y="92" type="curve" smooth="yes"/>
      <point x="60" y="150"/>
      <point x="102" y="196"/>
      <point x="160" y="196" type="curve" smooth="yes"/>
      <point x="218" y="196"/>
      <point x="260" y="150"/>
      <point x="260" y="92" type="curve" smooth="yes"/>
      <point x="260" y="34"/>
      <point x="218" y="-12"/>
    </contour>
  </outline>
</glyph>
<glyph name="less" format="1">
  <advance width="540"/>
  <unicode hex="003C"/>
  <outline>
    <contour>
      <point x="506" y="94" type="line"/>
      <point x="34" y="274" type="line"/>
      <point x="34" y="390" type="line"/>
      <point x="506" y="570" type="line"/>
      <point x="506" y="430" type="line"/>
      <point x="344" y="380" type="line"/>
      <point x="208" y="334" type="line"/>
      <point x="208" y="330" type="line"/>
      <point x="344" y="284" type="line"/>
      <point x="506" y="234" type="line"/>
    </contour>
  </outline>
</glyph>
<glyph name="equal" format="1">
  <advance width="540"/>
  <unicode hex="003D"/>
  <outline>
    <contour>
      <point x="34" y="390" type="line"/>
      <point x="34" y="510" type="line"/>
      <point x="506" y="510" type="line"/>
      <point x="506" y="390" type="line"/>
    </contour>
    <contour>
      <point x="34" y="150" type="line"/>
      <point x="34" y="270" type="line"/>
      <point x="506" y="270" type="line"/>
      <point x="506" y="150" type="line"/>
    </contour>
  </outline>
</glyph>
<glyph name="greater" format="1">
  <advance width="540"/>
  <unicode hex="003E"/>
  <outline>
    <contour>
      <point x="34" y="94" type="line"/>
      <point x="34" y="234" type="line"/>
      <point x="196" y="284" type="line"/>
      <point x="332" y="330" type="line"/>
      <point x="332" y="334" type="line"/>
      <point x="196" y="380" type="line"/>
      <point x="34" y="430" type="line"/>
      <point x="34" y="570" type="line"/>
      <point x="506" y="390" type="line"/>
      <point x="506" y="274" type="line"/>
    </contour>
  </outline>
</glyph>
<glyph name="question" format="1">
  <advance width="478"/>
  <unicode hex="003F"/>
  <outline>
    <contour>
      <point x="152" y="244" type="line"/>
      <point x="132" y="374"/>
      <point x="274" y="430"/>
      <point x="274" y="494" type="curve" smooth="yes"/>
      <point x="274" y="530"/>
      <point x="248" y="544"/>
      <point x="218" y="544" type="curve" smooth="yes"/>
      <point x="184" y="544"/>
      <point x="162" y="526"/>
      <point x="136" y="502" type="curve"/>
      <point x="42" y="588" type="line"/>
      <point x="91" y="644"/>
      <point x="160" y="682"/>
      <point x="240" y="682" type="curve" smooth="yes"/>
      <point x="350" y="682"/>
      <point x="438" y="632"/>
      <point x="438" y="506" type="curve" smooth="yes"/>
      <point x="438" y="386"/>
      <point x="292" y="354"/>
      <point x="302" y="244" type="curve"/>
    </contour>
    <contour>
      <point x="226" y="-12" type="curve" smooth="yes"/>
      <point x="168" y="-12"/>
      <point x="126" y="34"/>
      <point x="126" y="92" type="curve" smooth="yes"/>
      <point x="126" y="150"/>
      <point x="168" y="196"/>
      <point x="226" y="196" type="curve" smooth="yes"/>
      <point x="284" y="196"/>
      <point x="326" y="150"/>
      <point x="326" y="92" type="curve" smooth="yes"/>
      <point x="326" y="34"/>
      <point x="284" y="-12"/>
    </contour>
  </outline>
</glyph>
<glyph name="at" format="1">
  <advance width="924"/>
  <unicode hex="0040"/>
  <outline>
    <contour>
      <point x="438" y="-178" type="curve" smooth="yes"/>
      <point x="236" y="-178"/>
      <point x="48" y="-58"/>
      <point x="48" y="206" type="curve" smooth="yes"/>
      <point x="48" y="490"/>
      <point x="258" y="678"/>
      <point x="512" y="678" type="curve" smooth="yes"/>
      <point x="734" y="678"/>
      <point x="876" y="526"/>
      <point x="876" y="312" type="curve" smooth="yes"/>
      <point x="876" y="126"/>
      <point x="748" y="34"/>
      <point x="638" y="34" type="curve" smooth="yes"/>
      <point x="579" y="34"/>
      <point x="530" y="62"/>
      <point x="518" y="110" type="curve"/>
      <point x="516" y="110" type="line"/>
      <point x="490" y="70"/>
      <point x="436" y="44"/>
      <point x="396" y="44" type="curve" smooth="yes"/>
      <point x="314" y="44"/>
      <point x="260" y="106"/>
      <point x="260" y="198" type="curve" smooth="yes"/>
      <point x="260" y="326"/>
      <point x="352" y="448"/>
      <point x="466" y="448" type="curve" smooth="yes"/>
      <point x="498" y="448"/>
      <point x="524" y="434"/>
      <point x="540" y="398" type="curve"/>
      <point x="542" y="398" type="line"/>
      <point x="558" y="440" type="line"/>
      <point x="662" y="440" type="line"/>
      <point x="614" y="212" type="line" smooth="yes"/>
      <point x="602" y="162"/>
      <point x="616" y="138"/>
      <point x="656" y="138" type="curve" smooth="yes"/>
      <point x="716" y="138"/>
      <point x="770" y="206"/>
      <point x="770" y="308" type="curve" smooth="yes"/>
      <point x="770" y="444"/>
      <point x="700" y="576"/>
      <point x="498" y="576" type="curve" smooth="yes"/>
      <point x="330" y="576"/>
      <point x="162" y="432"/>
      <point x="162" y="210" type="curve" smooth="yes"/>
      <point x="162" y="12"/>
      <point x="302" y="-76"/>
      <point x="452" y="-76" type="curve" smooth="yes"/>
      <point x="500" y="-76"/>
      <point x="560" y="-60"/>
      <point x="600" y="-40" type="curve"/>
      <point x="636" y="-132" type="line"/>
      <point x="574" y="-164"/>
      <point x="510" y="-178"/>
    </contour>
    <contour>
      <point x="434" y="150" type="curve" smooth="yes"/>
      <point x="452" y="150"/>
      <point x="468" y="160"/>
      <point x="490" y="190" type="curve"/>
      <point x="512" y="316" type="line"/>
      <point x="505" y="330"/>
      <point x="490" y="340"/>
      <point x="472" y="340" type="curve" smooth="yes"/>
      <point x="420" y="340"/>
      <point x="388" y="262"/>
      <point x="388" y="208" type="curve" smooth="yes"/>
      <point x="388" y="171"/>
      <point x="404" y="150"/>
    </contour>
  </outline>
</glyph>
<glyph name="A" format="1">
  <advance width="584"/>
  <unicode hex="0041"/>
  <outline>
    <contour>
      <point x="484" y="0" type="move" name="Anchor-8"/>
    </contour>
    <contour>
      <point x="288" y="-22" type="move" name="Anchor-4"/>
    </contour>
    <contour>
      <point x="288" y="672" type="move" name="Anchor-1"/>
    </contour>
    <contour>
      <point x="240" y="316" type="curve" smooth="yes"/>
      <point x="229" y="271" type="line"/>
      <point x="349" y="271" type="line"/>
      <point x="338" y="316" type="line" smooth="yes"/>
      <point x="322" y="378"/>
      <point x="306" y="457"/>
      <point x="290" y="522" type="curve"/>
      <point x="286" y="522" type="line"/>
      <point x="272" y="456"/>
      <point x="256" y="378"/>
    </contour>
    <contour>
      <point x="-10" y="0" type="line"/>
      <point x="188" y="650" type="line"/>
      <point x="396" y="650" type="line"/>
      <point x="594" y="0" type="line"/>
      <point x="412" y="0" type="line"/>
      <point x="380" y="138" type="line"/>
      <point x="198" y="138" type="line"/>
      <point x="166" y="0" type="line"/>
    </contour>
  </outline>
</glyph>
<glyph name="B" format="1">
  <advance width="612"/>
  <unicode hex="0042"/>
  <outline>
    <contour>
      <point x="320" y="-22" type="move" name="Anchor-4"/>
    </contour>
    <contour>
      <point x="305" y="672" type="move" name="Anchor-1"/>
    </contour>
    <contour>
      <point x="72" y="0" type="line"/>
      <point x="72" y="650" type="line"/>
      <point x="306" y="650" type="line" smooth="yes"/>
      <point x="442" y="650"/>
      <point x="552" y="616"/>
      <point x="552" y="488" type="curve" smooth="yes"/>
      <point x="552" y="432"/>
      <point x="520" y="368"/>
      <point x="470" y="348" type="curve"/>
      <point x="470" y="344" type="line"/>
      <point x="532" y="326"/>
      <point x="582" y="278"/>
      <point x="582" y="192" type="curve" smooth="yes"/>
      <point x="582" y="58"/>
      <point x="466" y="0"/>
      <point x="326" y="0" type="curve" smooth="yes"/>
    </contour>
    <contour>
      <point x="244" y="396" type="line"/>
      <point x="302" y="396" type="line" smooth="yes"/>
      <point x="358" y="396"/>
      <point x="384" y="422"/>
      <point x="384" y="462" type="curve" smooth="yes"/>
      <point x="384" y="502"/>
      <point x="358" y="518"/>
      <point x="302" y="518" type="curve" smooth="yes"/>
      <point x="244" y="518" type="line"/>
    </contour>
    <contour>
      <point x="244" y="132" type="line"/>
      <point x="314" y="132" type="line" smooth="yes"/>
      <point x="382" y="132"/>
      <point x="414" y="156"/>
      <point x="414" y="204" type="curve" smooth="yes"/>
      <point x="414" y="252"/>
      <point x="382" y="270"/>
      <point x="314" y="270" type="curve" smooth="yes"/>
      <point x="244" y="270" type="line"/>
    </contour>
  </outline>
</glyph>
<glyph name="C" format="1">
  <advance width="586"/>
  <unicode hex="0043"/>
  <outline>
    <contour>
      <point x="352" y="-22" type="move" name="Anchor-4"/>
    </contour>
    <contour>
      <point x="352" y="0" type="move" name="Anchor-3"/>
    </contour>
    <contour>
      <point x="348" y="672" type="move" name="Anchor-1"/>
    </contour>
    <contour>
      <point x="354" y="-12" type="curve" smooth="yes"/>
      <point x="188" y="-12"/>
      <point x="44" y="98"/>
      <point x="44" y="320" type="curve" smooth="yes"/>
      <point x="44" y="538"/>
      <point x="194" y="662"/>
      <point x="358" y="662" type="curve" smooth="yes"/>
      <point x="444" y="662"/>
      <point x="514" y="622"/>
      <point x="560" y="576" type="curve"/>
      <point x="470" y="466" type="line"/>
      <point x="438" y="494"/>
      <point x="406" y="514"/>
      <point x="362" y="514" type="curve" smooth="yes"/>
      <point x="286" y="514"/>
      <point x="220" y="444"/>
      <point x="220" y="326" type="curve" smooth="yes"/>
      <point x="220" y="204"/>
      <point x="276" y="136"/>
      <point x="360" y="136" type="curve" smooth="yes"/>
      <point x="410" y="136"/>
      <point x="450" y="162"/>
      <point x="478" y="192" type="curve"/>
      <point x="568" y="84" type="line"/>
      <point x="513" y="20"/>
      <point x="438" y="-12"/>
    </contour>
  </outline>
</glyph>
<glyph name="E" format="1">
  <advance width="556"/>
  <unicode hex="0045"/>
  <outline>
    <contour>
      <point x="396" y="0" type="move" name="Anchor-8"/>
    </contour>
    <contour>
      <point x="294" y="-22" type="move" name="Anchor-4"/>
    </contour>
    <contour>
      <point x="290" y="672" type="move" name="Anchor-1"/>
    </contour>
    <contour>
      <point x="72" y="0" type="line"/>
      <point x="72" y="650" type="line"/>
      <point x="492" y="650" type="line"/>
      <point x="492" y="506" type="line"/>
      <point x="244" y="506" type="line"/>
      <point x="244" y="404" type="line"/>
      <point x="456" y="404" type="line"/>
      <point x="456" y="260" type="line"/>
      <point x="244" y="260" type="line"/>
      <point x="244" y="144" type="line"/>
      <point x="502" y="144" type="line"/>
      <point x="502" y="0" type="line"/>
    </contour>
  </outline>
</glyph>
<glyph name="F" format="1">
  <advance width="536"/>
  <unicode hex="0046"/>
  <outline>
    <contour>
      <point x="168" y="-22" type="move" name="Anchor-4"/>
    </contour>
    <contour>
      <point x="290" y="672" type="move" name="Anchor-1"/>
    </contour>
    <contour>
      <point x="72" y="0" type="line"/>
      <point x="72" y="650" type="line"/>
      <point x="496" y="650" type="line"/>
      <point x="496" y="506" type="line"/>
      <point x="244" y="506" type="line"/>
      <point x="244" y="382" type="line"/>
      <point x="460" y="382" type="line"/>
      <point x="460" y="238" type="line"/>
      <point x="244" y="238" type="line"/>
      <point x="244" y="0" type="line"/>
    </contour>
  </outline>
</glyph>
<glyph name="I" format="1">
  <advance width="316"/>
  <unicode hex="0049"/>
  <outline>
    <contour>
      <point x="140" y="0" type="move" name="Anchor-8"/>
    </contour>
    <contour>
      <point x="158" y="-22" type="move" name="Anchor-4"/>
    </contour>
    <contour>
      <point x="158" y="672" type="move" name="Anchor-1"/>
    </contour>
    <contour>
      <point x="72" y="0" type="line"/>
      <point x="72" y="650" type="line"/>
      <point x="244" y="650" type="line"/>
      <point x="244" y="0" type="line"/>
    </contour>
  </outline>
</glyph>
<glyph name="J" format="1">
  <advance width="520"/>
  <unicode hex="004A"/>
  <outline>
    <contour>
      <point x="276" y="-22" type="move" name="Anchor-4"/>
    </contour>
    <contour>
      <point x="364" y="672" type="move" name="Anchor-1"/>
    </contour>
    <contour>
      <point x="232" y="-12" type="curve" smooth="yes"/>
      <point x="126" y="-12"/>
      <point x="58" y="28"/>
      <point x="10" y="111" type="curve"/>
      <point x="126" y="198" type="line"/>
      <point x="148" y="156"/>
      <point x="180" y="136"/>
      <point x="208" y="136" type="curve" smooth="yes"/>
      <point x="254" y="136"/>
      <point x="280" y="158"/>
      <point x="280" y="240" type="curve" smooth="yes"/>
      <point x="280" y="650" type="line"/>
      <point x="452" y="650" type="line"/>
      <point x="452" y="226" type="line" smooth="yes"/>
      <point x="452" y="96"/>
      <point x="382" y="-12"/>
    </contour>
  </outline>
</glyph>
<glyph name="K" format="1">
  <advance width="628"/>
  <unicode hex="004B"/>
  <outline>
    <contour>
      <point x="334" y="-22" type="move" name="Anchor-4"/>
    </contour>
    <contour>
      <point x="322" y="672" type="move" name="Anchor-1"/>
    </contour>
    <contour>
      <point x="72" y="0" type="line"/>
      <point x="72" y="650" type="line"/>
      <point x="244" y="650" type="line"/>
      <point x="244" y="408" type="line"/>
      <point x="248" y="408" type="line"/>
      <point x="412" y="650" type="line"/>
      <point x="600" y="650" type="line"/>
      <point x="406" y="386" type="line"/>
      <point x="638" y="0" type="line"/>
      <point x="450" y="0" type="line"/>
      <point x="306" y="250" type="line"/>
      <point x="244" y="162" type="line"/>
      <point x="244" y="0" type="line"/>
    </contour>
  </outline>
</glyph>
<glyph name="L" format="1">
  <advance width="530"/>
  <unicode hex="004C"/>
  <outline>
    <contour>
      <point x="291" y="-22" type="move" name="Anchor-4"/>
    </contour>
    <contour>
      <point x="162" y="672" type="move" name="Anchor-1"/>
    </contour>
    <contour>
      <point x="72" y="0" type="line"/>
      <point x="72" y="650" type="line"/>
      <point x="244" y="650" type="line"/>
      <point x="244" y="144" type="line"/>
      <point x="490" y="144" type="line"/>
      <point x="490" y="0" type="line"/>
    </contour>
  </outline>
</glyph>
<glyph name="Q" format="1">
  <advance width="692"/>
  <unicode hex="0051"/>
  <outline>
    <contour>
      <point x="346" y="672" type="move" name="Anchor-1"/>
    </contour>
    <contour>
      <point x="346" y="128" type="curve" smooth="yes"/>
      <point x="424" y="128"/>
      <point x="472" y="200"/>
      <point x="472" y="328" type="curve" smooth="yes"/>
      <point x="472" y="446"/>
      <point x="424" y="514"/>
      <point x="346" y="514" type="curve" smooth="yes"/>
      <point x="268" y="514"/>
      <point x="220" y="446"/>
      <point x="220" y="328" type="curve" smooth="yes"/>
      <point x="220" y="200"/>
      <point x="268" y="128"/>
    </contour>
    <contour>
      <point x="566" y="-188" type="curve" smooth="yes"/>
      <point x="420" y="-188"/>
      <point x="318" y="-111"/>
      <point x="268" y="-3" type="curve"/>
      <point x="132" y="28"/>
      <point x="44" y="147"/>
      <point x="44" y="328" type="curve" smooth="yes"/>
      <point x="44" y="542"/>
      <point x="166" y="662"/>
      <point x="346" y="662" type="curve" smooth="yes"/>
      <point x="526" y="662"/>
      <point x="648" y="541"/>
      <point x="648" y="328" type="curve" smooth="yes"/>
      <point x="648" y="158"/>
      <point x="571" y="44"/>
      <point x="449" y="4" type="curve"/>
      <point x="479" y="-38"/>
      <point x="537" y="-52"/>
      <point x="586" y="-52" type="curve" smooth="yes"/>
      <point x="614" y="-52"/>
      <point x="640" y="-47"/>
      <point x="660" y="-40" type="curve"/>
      <point x="690" y="-164" type="line"/>
      <point x="664" y="-178"/>
      <point x="621" y="-188"/>
    </contour>
  </outline>
</glyph>
<glyph name="V" format="1">
  <advance width="572"/>
  <unicode hex="0056"/>
  <outline>
    <contour>
      <point x="282" y="-22" type="move" name="Anchor-4"/>
    </contour>
    <contour>
      <point x="286" y="672" type="move" name="Anchor-1"/>
    </contour>
    <contour>
      <point x="182" y="0" type="line"/>
      <point x="-10" y="650" type="line"/>
      <point x="172" y="650" type="line"/>
      <point x="240" y="366" type="line" smooth="yes"/>
      <point x="258" y="297"/>
      <point x="270" y="230"/>
      <point x="288" y="160" type="curve"/>
      <point x="292" y="160" type="line"/>
      <point x="310" y="230"/>
      <point x="323" y="297"/>
      <point x="340" y="366" type="curve" smooth="yes"/>
      <point x="406" y="650" type="line"/>
      <point x="582" y="650" type="line"/>
      <point x="390" y="0" type="line"/>
    </contour>
  </outline>
</glyph>
<glyph name="backslash" format="1">
  <advance width="334"/>
  <unicode hex="005C"/>
  <outline>
    <contour>
      <point x="210" y="-160" type="line"/>
      <point x="34" y="710" type="line"/>
      <point x="144" y="710" type="line"/>
      <point x="320" y="-160" type="line"/>
    </contour>
  </outline>
</glyph>
<glyph name="bracketright" format="1">
  <advance width="360"/>
  <unicode hex="005D"/>
  <outline>
    <contour>
      <point x="52" y="-152" type="line"/>
      <point x="52" y="-62" type="line"/>
      <point x="148" y="-62" type="line"/>
      <point x="148" y="618" type="line"/>
      <point x="52" y="618" type="line"/>
      <point x="52" y="708" type="line"/>
      <point x="276" y="708" type="line"/>
      <point x="276" y="-152" type="line"/>
    </contour>
  </outline>
</glyph>
<glyph name="asciicircum" format="1">
  <advance width="540"/>
  <unicode hex="005E"/>
  <outline>
    <contour>
      <point x="46" y="270" type="line"/>
      <point x="202" y="670" type="line"/>
      <point x="338" y="670" type="line"/>
      <point x="494" y="270" type="line"/>
      <point x="354" y="270" type="line"/>
      <point x="316" y="380" type="line"/>
      <point x="272" y="516" type="line"/>
      <point x="268" y="516" type="line"/>
      <point x="224" y="380" type="line"/>
      <point x="186" y="270" type="line"/>
    </contour>
  </outline>
</glyph>
<glyph name="underscore" format="1">
  <advance width="500"/>
  <unicode hex="005F"/>
  <outline>
    <contour>
      <point x="12" y="-146" type="line"/>
      <point x="12" y="-52" type="line"/>
      <point x="488" y="-52" type="line"/>
      <point x="488" y="-146" type="line"/>
    </contour>
  </outline>
</glyph>
<glyph name="grave" format="1">
  <advance width="560"/>
  <unicode hex="0060"/>
  <outline>
    <contour>
      <point x="260" y="572" type="line"/>
      <point x="70" y="730" type="line"/>
      <point x="186" y="844" type="line"/>
      <point x="344" y="656" type="line"/>
    </contour>
  </outline>
</glyph>
<glyph name="e" format="1">
  <advance width="526"/>
  <unicode hex="0065"/>
  <outline>
    <contour>
      <point x="400" y="0" type="move" name="Anchor-7"/>
    </contour>
    <contour>
      <point x="272" y="-22" type="move" name="Anchor-4"/>
    </contour>
    <contour>
      <point x="272" y="522" type="move" name="Anchor-0"/>
    </contour>
    <contour>
      <point x="290" y="-12" type="curve" smooth="yes"/>
      <point x="144" y="-12"/>
      <point x="32" y="84"/>
      <point x="32" y="250" type="curve" smooth="yes"/>
      <point x="32" y="412"/>
      <point x="150" y="512"/>
      <point x="272" y="512" type="curve" smooth="yes"/>
      <point x="420" y="512"/>
      <point x="490" y="404"/>
      <point x="490" y="270" type="curve" smooth="yes"/>
      <point x="490" y="240"/>
      <point x="486" y="210"/>
      <point x="483" y="198" type="curve"/>
      <point x="198" y="198" type="line"/>
      <point x="214" y="138"/>
      <point x="258" y="118"/>
      <point x="314" y="118" type="curve" smooth="yes"/>
      <point x="348" y="118"/>
      <point x="380" y="128"/>
      <point x="416" y="148" type="curve"/>
      <point x="472" y="46" type="line"/>
      <point x="418" y="8"/>
      <point x="346" y="-12"/>
    </contour>
    <contour>
      <point x="196" y="310" type="curve"/>
      <point x="344" y="310" type="line"/>
      <point x="344" y="348"/>
      <point x="328" y="382"/>
      <point x="276" y="382" type="curve" smooth="yes"/>
      <point x="238" y="382"/>
      <point x="206" y="360"/>
    </contour>
  </outline>
</glyph>
<glyph name="f" format="1">
  <advance width="360"/>
  <unicode hex="0066"/>
  <outline>
    <contour>
      <point x="174" y="-22" type="move" name="Anchor-4"/>
    </contour>
    <contour>
      <point x="230" y="741" type="move" name="Anchor-0"/>
    </contour>
    <contour>
      <point x="88" y="0" type="line"/>
      <point x="88" y="366" type="line"/>
      <point x="22" y="366" type="line"/>
      <point x="22" y="494" type="line"/>
      <point x="88" y="499" type="line"/>
      <point x="88" y="506" type="line" smooth="yes"/>
      <point x="88" y="613"/>
      <point x="138" y="708"/>
      <point x="286" y="708" type="curve" smooth="yes"/>
      <point x="332" y="708"/>
      <point x="370" y="698"/>
      <point x="392" y="690" type="curve"/>
      <point x="362" y="564" type="line"/>
      <point x="346" y="570"/>
      <point x="328" y="574"/>
      <point x="312" y="574" type="curve" smooth="yes"/>
      <point x="280" y="574"/>
      <point x="260" y="559"/>
      <point x="260" y="512" type="curve" smooth="yes"/>
      <point x="260" y="500" type="line"/>
      <point x="344" y="500" type="line"/>
      <point x="344" y="366" type="line"/>
      <point x="260" y="366" type="line"/>
      <point x="260" y="0" type="line"/>
    </contour>
  </outline>
</glyph>
<glyph name="n" format="1">
  <advance width="582"/>
  <unicode hex="006E"/>
  <outline>
    <contour>
      <point x="296" y="-22" type="move" name="Anchor-4"/>
    </contour>
    <contour>
      <point x="314" y="522" type="move" name="Anchor-0"/>
    </contour>
    <contour>
      <point x="58" y="0" type="line"/>
      <point x="58" y="500" type="line"/>
      <point x="198" y="500" type="line"/>
      <point x="210" y="440" type="line"/>
      <point x="214" y="440" type="line"/>
      <point x="254" y="478"/>
      <point x="304" y="512"/>
      <point x="372" y="512" type="curve" smooth="yes"/>
      <point x="482" y="512"/>
      <point x="528" y="432"/>
      <point x="528" y="308" type="curve" smooth="yes"/>
      <point x="528" y="0" type="line"/>
      <point x="356" y="0" type="line"/>
      <point x="356" y="286" type="line" smooth="yes"/>
      <point x="356" y="350"/>
      <point x="340" y="366"/>
      <point x="306" y="366" type="curve" smooth="yes"/>
      <point x="274" y="366"/>
      <point x="256" y="352"/>
      <point x="230" y="328" type="curve"/>
      <point x="230" y="0" type="line"/>
    </contour>
  </outline>
</glyph>
<glyph name="o" format="1">
  <advance width="560"/>
  <unicode hex="006F"/>
  <outline>
    <contour>
      <point x="334" y="0" type="move" name="Anchor-7"/>
    </contour>
    <contour>
      <point x="374" y="500" type="move" name="Anchor-6"/>
    </contour>
    <contour>
      <point x="280" y="-22" type="move" name="Anchor-4"/>
    </contour>
    <contour>
      <point x="280" y="522" type="move" name="Anchor-0"/>
    </contour>
    <contour>
      <point x="280" y="-12" type="curve" smooth="yes"/>
      <point x="152" y="-12"/>
      <point x="32" y="84"/>
      <point x="32" y="250" type="curve" smooth="yes"/>
      <point x="32" y="416"/>
      <point x="152" y="512"/>
      <point x="280" y="512" type="curve" smooth="yes"/>
      <point x="408" y="512"/>
      <point x="528" y="416"/>
      <point x="528" y="250" type="curve" smooth="yes"/>
      <point x="528" y="84"/>
      <point x="408" y="-12"/>
    </contour>
    <contour>
      <point x="280" y="126" type="curve" smooth="yes"/>
      <point x="332" y="126"/>
      <point x="352" y="174"/>
      <point x="352" y="250" type="curve" smooth="yes"/>
      <point x="352" y="326"/>
      <point x="332" y="374"/>
      <point x="280" y="374" type="curve" smooth="yes"/>
      <point x="228" y="374"/>
      <point x="208" y="326"/>
      <point x="208" y="250" type="curve" smooth="yes"/>
      <point x="208" y="174"/>
      <point x="228" y="126"/>
    </contour>
  </outline>
</glyph>
<glyph name="p" format="1">
  <advance width="580"/>
  <unicode hex="0070"/>
  <outline>
    <contour>
      <point x="135" y="-218" type="move" name="Anchor-4"/>
    </contour>
    <contour>
      <point x="314" y="522" type="move" name="Anchor-0"/>
    </contour>
    <contour>
      <point x="58" y="-176" type="line"/>
      <point x="58" y="500" type="line"/>
      <point x="198" y="500" type="line"/>
      <point x="210" y="454" type="line"/>
      <point x="214" y="454" type="line"/>
      <point x="251" y="488"/>
      <point x="300" y="512"/>
      <point x="350" y="512" type="curve" smooth="yes"/>
      <point x="468" y="512"/>
      <point x="544" y="412"/>
      <point x="544" y="258" type="curve" smooth="yes"/>
      <point x="544" y="86"/>
      <point x="442" y="-12"/>
      <point x="336" y="-12" type="curve" smooth="yes"/>
      <point x="294" y="-12"/>
      <point x="256" y="6"/>
      <point x="224" y="38" type="curve"/>
      <point x="230" y="-38" type="line"/>
      <point x="230" y="-176" type="line"/>
    </contour>
    <contour>
      <point x="294" y="128" type="curve" smooth="yes"/>
      <point x="334" y="128"/>
      <point x="368" y="160"/>
      <point x="368" y="256" type="curve" smooth="yes"/>
      <point x="368" y="338"/>
      <point x="344" y="372"/>
      <point x="298" y="372" type="curve" smooth="yes"/>
      <point x="272" y="372"/>
      <point x="252" y="362"/>
      <point x="230" y="336" type="curve"/>
      <point x="230" y="152" type="line"/>
      <point x="250" y="134"/>
      <point x="272" y="128"/>
    </contour>
  </outline>
</glyph>
<glyph name="q" format="1">
  <advance width="580"/>
  <unicode hex="0071"/>
  <outline>
    <contour>
      <point x="432" y="-218" type="move" name="Anchor-4"/>
    </contour>
    <contour>
      <point x="298" y="522" type="move" name="Anchor-0"/>
    </contour>
    <contour>
      <point x="350" y="-176" type="line"/>
      <point x="350" y="-33" type="line"/>
      <point x="356" y="38" type="line"/>
      <point x="326" y="8"/>
      <point x="280" y="-12"/>
      <point x="240" y="-12" type="curve" smooth="yes"/>
      <point x="116" y="-12"/>
      <point x="36" y="88"/>
      <point x="36" y="250" type="curve" smooth="yes"/>
      <point x="36" y="414"/>
      <point x="138" y="512"/>
      <point x="240" y="512" type="curve" smooth="yes"/>
      <point x="293" y="512"/>
      <point x="332" y="494"/>
      <point x="370" y="450" type="curve"/>
      <point x="374" y="450" type="line"/>
      <point x="388" y="500" type="line"/>
      <point x="522" y="500" type="line"/>
      <point x="522" y="-176" type="line"/>
    </contour>
    <contour>
      <point x="286" y="128" type="curve" smooth="yes"/>
      <point x="312" y="128"/>
      <point x="332" y="136"/>
      <point x="350" y="164" type="curve"/>
      <point x="350" y="348" type="line"/>
      <point x="330" y="366"/>
      <point x="304" y="372"/>
      <point x="282" y="372" type="curve" smooth="yes"/>
      <point x="246" y="372"/>
      <point x="212" y="340"/>
      <point x="212" y="252" type="curve" smooth="yes"/>
      <point x="212" y="162"/>
      <point x="240" y="128"/>
    </contour>
  </outline>
</glyph>
<glyph name="v" format="1">
  <advance width="544"/>
  <unicode hex="0076"/>
  <outline>
    <contour>
      <point x="274" y="-22" type="move" name="Anchor-4"/>
    </contour>
    <contour>
      <point x="274" y="522" type="move" name="Anchor-0"/>
    </contour>
    <contour>
      <point x="176" y="0" type="line"/>
      <point x="12" y="500" type="line"/>
      <point x="184" y="500" type="line"/>
      <point x="238" y="282" type="line" smooth="yes"/>
      <point x="250" y="232"/>
      <point x="262" y="180"/>
      <point x="274" y="126" type="curve"/>
      <point x="278" y="126" type="line"/>
      <point x="290" y="180"/>
      <point x="302" y="232"/>
      <point x="314" y="282" type="curve" smooth="yes"/>
      <point x="368" y="500" type="line"/>
      <point x="532" y="500" type="line"/>
      <point x="374" y="0" type="line"/>
    </contour>
  </outline>
</glyph>
<glyph name="x" format="1">
  <advance width="540"/>
  <unicode hex="0078"/>
  <outline>
    <contour>
      <point x="270" y="-22" type="move" name="Anchor-4"/>
    </contour>
    <contour>
      <point x="270" y="522" type="move" name="Anchor-0"/>
    </contour>
    <contour>
      <point x="14" y="0" type="line"/>
      <point x="164" y="260" type="line"/>
      <point x="22" y="500" type="line"/>
      <point x="206" y="500" type="line"/>
      <point x="242" y="430" type="line" smooth="yes"/>
      <point x="255" y="402"/>
      <point x="269" y="372"/>
      <point x="282" y="344" type="curve"/>
      <point x="286" y="344" type="line"/>
      <point x="295" y="372"/>
      <point x="307" y="402"/>
      <point x="316" y="430" type="curve" smooth="yes"/>
      <point x="340" y="500" type="line"/>
      <point x="518" y="500" type="line"/>
      <point x="376" y="240" type="line"/>
      <point x="526" y="0" type="line"/>
      <point x="342" y="0" type="line"/>
      <point x="302" y="70" type="line" smooth="yes"/>
      <point x="287" y="98"/>
      <point x="273" y="128"/>
      <point x="258" y="156" type="curve"/>
      <point x="254" y="156" type="line"/>
      <point x="243" y="128"/>
      <point x="231" y="99"/>
      <point x="220" y="70" type="curve" smooth="yes"/>
      <point x="192" y="0" type="line"/>
    </contour>
  </outline>
</glyph>
<glyph name="z" format="1">
  <advance width="474"/>
  <unicode hex="007A"/>
  <outline>
    <contour>
      <point x="252" y="-22" type="move" name="Anchor-4"/>
    </contour>
    <contour>
      <point x="252" y="522" type="move" name="Anchor-0"/>
    </contour>
    <contour>
      <point x="40" y="0" type="line"/>
      <point x="40" y="92" type="line"/>
      <point x="230" y="366" type="line"/>
      <point x="62" y="366" type="line"/>
      <point x="62" y="500" type="line"/>
      <point x="444" y="500" type="line"/>
      <point x="444" y="408" type="line"/>
      <point x="254" y="134" type="line"/>
      <point x="450" y="134" type="line"/>
      <point x="450" y="0" type="line"/>
    </contour>
  </outline>
</glyph>
<glyph name="braceleft" format="1">
  <advance width="360"/>
  <unicode hex="007B"/>
  <outline>
    <contour>
      <point x="238" y="-152" type="line" smooth="yes"/>
      <point x="146" y="-152"/>
      <point x="106" y="-116"/>
      <point x="106" y="-6" type="curve" smooth="yes"/>
      <point x="106" y="64"/>
      <point x="116" y="94"/>
      <point x="116" y="156" type="curve" smooth="yes"/>
      <point x="116" y="190"/>
      <point x="94" y="226"/>
      <point x="30" y="228" type="curve"/>
      <point x="30" y="328" type="line"/>
      <point x="94" y="330"/>
      <point x="116" y="366"/>
      <point x="116" y="400" type="curve" smooth="yes"/>
      <point x="116" y="462"/>
      <point x="106" y="492"/>
      <point x="106" y="562" type="curve" smooth="yes"/>
      <point x="106" y="672"/>
      <point x="146" y="708"/>
      <point x="238" y="708" type="curve" smooth="yes"/>
      <point x="308" y="708" type="line"/>
      <point x="308" y="618" type="line"/>
      <point x="292" y="618" type="line" smooth="yes"/>
      <point x="255" y="618"/>
      <point x="244" y="608"/>
      <point x="244" y="556" type="curve" smooth="yes"/>
      <point x="244" y="505"/>
      <point x="248" y="458"/>
      <point x="248" y="400" type="curve" smooth="yes"/>
      <point x="248" y="320"/>
      <point x="221" y="292"/>
      <point x="168" y="280" type="curve"/>
      <point x="168" y="276" type="line"/>
      <point x="221" y="264"/>
      <point x="248" y="236"/>
      <point x="248" y="156" type="curve" smooth="yes"/>
      <point x="248" y="98"/>
      <point x="244" y="51"/>
      <point x="244" y="0" type="curve" smooth="yes"/>
      <point x="244" y="-52"/>
      <point x="255" y="-62"/>
      <point x="292" y="-62" type="curve" smooth="yes"/>
      <point x="308" y="-62" type="line"/>
      <point x="308" y="-152" type="line"/>
    </contour>
  </outline>
</glyph>
<glyph name="braceright" format="1">
  <advance width="360"/>
  <unicode hex="007D"/>
  <outline>
    <contour>
      <point x="52" y="-152" type="line"/>
      <point x="52" y="-62" type="line"/>
      <point x="68" y="-62" type="line" smooth="yes"/>
      <point x="105" y="-62"/>
      <point x="116" y="-52"/>
      <point x="116" y="0" type="curve" smooth="yes"/>
      <point x="116" y="51"/>
      <point x="112" y="98"/>
      <point x="112" y="156" type="curve" smooth="yes"/>
      <point x="112" y="236"/>
      <point x="139" y="264"/>
      <point x="192" y="276" type="curve"/>
      <point x="192" y="280" type="line"/>
      <point x="139" y="292"/>
      <point x="112" y="320"/>
      <point x="112" y="400" type="curve" smooth="yes"/>
      <point x="112" y="458"/>
      <point x="116" y="505"/>
      <point x="116" y="556" type="curve" smooth="yes"/>
      <point x="116" y="608"/>
      <point x="105" y="618"/>
      <point x="68" y="618" type="curve" smooth="yes"/>
      <point x="52" y="618" type="line"/>
      <point x="52" y="708" type="line"/>
      <point x="122" y="708" type="line" smooth="yes"/>
      <point x="214" y="708"/>
      <point x="254" y="672"/>
      <point x="254" y="562" type="curve" smooth="yes"/>
      <point x="254" y="492"/>
      <point x="244" y="462"/>
      <point x="244" y="400" type="curve" smooth="yes"/>
      <point x="244" y="366"/>
      <point x="266" y="330"/>
      <point x="330" y="328" type="curve"/>
      <point x="330" y="228" type="line"/>
      <point x="266" y="226"/>
      <point x="244" y="190"/>
      <point x="244" y="156" type="curve" smooth="yes"/>
      <point x="244" y="94"/>
      <point x="254" y="64"/>
      <point x="254" y="-6" type="curve" smooth="yes"/>
      <point x="254" y="-116"/>
      <point x="214" y="-152"/>
      <point x="122" y="-152" type="curve" smooth="yes"/>
    </contour>
  </outline>
</glyph>
<glyph name="cent" format="1">
  <advance width="540"/>
  <unicode hex="00A2"/>
  <outline>
    <contour>
      <point x="226" y="306" type="curve" smooth="yes"/>
      <point x="226" y="257"/>
      <point x="245" y="219"/>
      <point x="280" y="199" type="curve"/>
      <point x="280" y="413" type="line"/>
      <point x="243" y="393"/>
      <point x="226" y="355"/>
    </contour>
    <contour>
      <point x="280" y="-44" type="line"/>
      <point x="280" y="47" type="line"/>
      <point x="146" y="66"/>
      <point x="60" y="158"/>
      <point x="60" y="306" type="curve" smooth="yes"/>
      <point x="60" y="448"/>
      <point x="152" y="539"/>
      <point x="280" y="562" type="curve"/>
      <point x="280" y="656" type="line"/>
      <point x="372" y="656" type="line"/>
      <point x="372" y="567" type="line"/>
      <point x="422" y="562"/>
      <point x="465" y="541"/>
      <point x="494" y="512" type="curve"/>
      <point x="416" y="406" type="line"/>
      <point x="400" y="419"/>
      <point x="386" y="426"/>
      <point x="372" y="429" type="curve"/>
      <point x="372" y="184" type="line"/>
      <point x="395" y="189"/>
      <point x="415" y="201"/>
      <point x="432" y="214" type="curve"/>
      <point x="500" y="106" type="line"/>
      <point x="462" y="73"/>
      <point x="415" y="54"/>
      <point x="372" y="47" type="curve"/>
      <point x="372" y="-44" type="line"/>
    </contour>
  </outline>
</glyph>
<glyph name="sterling" format="1">
  <advance width="540"/>
  <unicode hex="00A3"/>
  <outline>
    <contour>
      <point x="46" y="0" type="line"/>
      <point x="46" y="106" type="line"/>
      <point x="102" y="130"/>
      <point x="152" y="180"/>
      <point x="152" y="250" type="curve" smooth="yes"/>
      <point x="152" y="255"/>
      <point x="152" y="261"/>
      <point x="151" y="266" type="curve"/>
      <point x="52" y="266" type="line"/>
      <point x="52" y="364" type="line"/>
      <point x="120" y="370" type="line"/>
      <point x="122" y="370" type="line"/>
      <point x="115" y="392"/>
      <point x="110" y="413"/>
      <point x="110" y="432" type="curve" smooth="yes"/>
      <point x="110" y="564"/>
      <point x="206" y="646"/>
      <point x="334" y="646" type="curve" smooth="yes"/>
      <point x="410" y="646"/>
      <point x="466" y="618"/>
      <point x="514" y="562" type="curve"/>
      <point x="422" y="470" type="line"/>
      <point x="400" y="496"/>
      <point x="378" y="508"/>
      <point x="352" y="508" type="curve" smooth="yes"/>
      <point x="306" y="508"/>
      <point x="274" y="484"/>
      <point x="274" y="422" type="curve" smooth="yes"/>
      <point x="274" y="405"/>
      <point x="277" y="388"/>
      <point x="280" y="370" type="curve"/>
      <point x="424" y="370" type="line"/>
      <point x="424" y="266" type="line"/>
      <point x="301" y="266" type="line"/>
      <point x="302" y="260"/>
      <point x="302" y="254"/>
      <point x="302" y="248" type="curve" smooth="yes"/>
      <point x="302" y="209"/>
      <point x="292" y="182"/>
      <point x="264" y="148" type="curve"/>
      <point x="264" y="144" type="line"/>
      <point x="514" y="144" type="line"/>
      <point x="514" y="0" type="line"/>
    </contour>
  </outline>
</glyph>
<glyph name="currency" format="1">
  <advance width="540"/>
  <unicode hex="00A4"/>
  <outline>
    <contour>
      <point x="102" y="76" type="line"/>
      <point x="17" y="161" type="line"/>
      <point x="77" y="221" type="line"/>
      <point x="56" y="251"/>
      <point x="44" y="287"/>
      <point x="44" y="330" type="curve" smooth="yes"/>
      <point x="44" y="372"/>
      <point x="56" y="408"/>
      <point x="76" y="437" type="curve"/>
      <point x="17" y="497" type="line"/>
      <point x="102" y="582" type="line"/>
      <point x="172" y="512" type="line"/>
      <point x="203" y="525"/>
      <point x="237" y="532"/>
      <point x="270" y="532" type="curve" smooth="yes"/>
      <point x="303" y="532"/>
      <point x="337" y="525"/>
      <point x="368" y="512" type="curve"/>
      <point x="438" y="582" type="line"/>
      <point x="523" y="497" type="line"/>
      <point x="463" y="437" type="line"/>
      <point x="484" y="408"/>
      <point x="496" y="372"/>
      <point x="496" y="330" type="curve" smooth="yes"/>
      <point x="496" y="287"/>
      <point x="483" y="251"/>
      <point x="462" y="221" type="curve"/>
      <point x="523" y="161" type="line"/>
      <point x="438" y="76" type="line"/>
      <point x="367" y="147" type="line"/>
      <point x="336" y="134"/>
      <point x="302" y="128"/>
      <point x="270" y="128" type="curve" smooth="yes"/>
      <point x="237" y="128"/>
      <point x="204" y="134"/>
      <point x="173" y="147" type="curve"/>
    </contour>
    <contour>
      <point x="270" y="246" type="curve" smooth="yes"/>
      <point x="312" y="246"/>
      <point x="344" y="278"/>
      <point x="344" y="330" type="curve" smooth="yes"/>
      <point x="344" y="382"/>
      <point x="312" y="414"/>
      <point x="270" y="414" type="curve" smooth="yes"/>
      <point x="228" y="414"/>
      <point x="196" y="382"/>
      <point x="196" y="330" type="curve" smooth="yes"/>
      <point x="196" y="278"/>
      <point x="228" y="246"/>
    </contour>
  </outline>
</glyph>
<glyph name="yen" format="1">
  <advance width="540"/>
  <unicode hex="00A5"/>
  <outline>
    <contour>
      <point x="184" y="0" type="line"/>
      <point x="184" y="142" type="line"/>
      <point x="34" y="142" type="line"/>
      <point x="34" y="222" type="line"/>
      <point x="184" y="222" type="line"/>
      <point x="184" y="272" type="line"/>
      <point x="34" y="272" type="line"/>
      <point x="34" y="352" type="line"/>
      <point x="148" y="352" type="line"/>
      <point x="8" y="634" type="line"/>
      <point x="184" y="634" type="line"/>
      <point x="224" y="516" type="line" smooth="yes"/>
      <point x="239" y="472"/>
      <point x="254" y="428"/>
      <point x="270" y="386" type="curve"/>
      <point x="274" y="386" type="line"/>
      <point x="289" y="429"/>
      <point x="305" y="473"/>
      <point x="320" y="516" type="curve" smooth="yes"/>
      <point x="360" y="634" type="line"/>
      <point x="532" y="634" type="line"/>
      <point x="392" y="352" type="line"/>
      <point x="506" y="352" type="line"/>
      <point x="506" y="272" type="line"/>
      <point x="356" y="272" type="line"/>
      <point x="356" y="222" type="line"/>
      <point x="506" y="222" type="line"/>
      <point x="506" y="142" type="line"/>
      <point x="356" y="142" type="line"/>
      <point x="356" y="0" type="line"/>
    </contour>
  </outline>
</glyph>
<glyph name="brokenbar" format="1">
  <advance width="278"/>
  <unicode hex="00A6"/>
  <outline>
    <contour>
      <point x="84" y="320" type="line"/>
      <point x="84" y="750" type="line"/>
      <point x="194" y="750" type="line"/>
      <point x="194" y="320" type="line"/>
    </contour>
    <contour>
      <point x="84" y="-250" type="line"/>
      <point x="84" y="200" type="line"/>
      <point x="194" y="200" type="line"/>
      <point x="194" y="-250" type="line"/>
    </contour>
  </outline>
</glyph>
<glyph name="dieresis" format="1">
  <advance width="560"/>
  <unicode hex="00A8"/>
  <outline>
    <contour>
      <point x="166" y="562" type="curve" smooth="yes"/>
      <point x="119" y="562"/>
      <point x="86" y="597"/>
      <point x="86" y="642" type="curve" smooth="yes"/>
      <point x="86" y="687"/>
      <point x="119" y="722"/>
      <point x="166" y="722" type="curve" smooth="yes"/>
      <point x="213" y="722"/>
      <point x="246" y="687"/>
      <point x="246" y="642" type="curve" smooth="yes"/>
      <point x="246" y="597"/>
      <point x="213" y="562"/>
    </contour>
    <contour>
      <point x="394" y="562" type="curve" smooth="yes"/>
      <point x="347" y="562"/>
      <point x="314" y="597"/>
      <point x="314" y="642" type="curve" smooth="yes"/>
      <point x="314" y="687"/>
      <point x="347" y="722"/>
      <point x="394" y="722" type="curve" smooth="yes"/>
      <point x="441" y="722"/>
      <point x="474" y="687"/>
      <point x="474" y="642" type="curve" smooth="yes"/>
      <point x="474" y="597"/>
      <point x="441" y="562"/>
    </contour>
  </outline>
</glyph>
<glyph name="copyright" format="1">
  <advance width="752"/>
  <unicode hex="00A9"/>
  <outline>
    <contour>
      <point x="376" y="-8" type="curve" smooth="yes"/>
      <point x="198" y="-8"/>
      <point x="44" y="118"/>
      <point x="44" y="326" type="curve" smooth="yes"/>
      <point x="44" y="534"/>
      <point x="198" y="656"/>
      <point x="376" y="656" type="curve" smooth="yes"/>
      <point x="554" y="656"/>
      <point x="708" y="533"/>
      <point x="708" y="326" type="curve" smooth="yes"/>
      <point x="708" y="118"/>
      <point x="554" y="-8"/>
    </contour>
    <contour>
      <point x="376" y="60" type="curve" smooth="yes"/>
      <point x="522" y="60"/>
      <point x="632" y="166"/>
      <point x="632" y="326" type="curve" smooth="yes"/>
      <point x="632" y="486"/>
      <point x="522" y="588"/>
      <point x="376" y="588" type="curve" smooth="yes"/>
      <point x="230" y="588"/>
      <point x="120" y="486"/>
      <point x="120" y="326" type="curve" smooth="yes"/>
      <point x="120" y="166"/>
      <point x="230" y="60"/>
    </contour>
    <contour>
      <point x="390" y="128" type="curve" smooth="yes"/>
      <point x="274" y="128"/>
      <point x="192" y="204"/>
      <point x="192" y="324" type="curve" smooth="yes"/>
      <point x="192" y="442"/>
      <point x="286" y="518"/>
      <point x="388" y="518" type="curve" smooth="yes"/>
      <point x="452" y="518"/>
      <point x="492" y="490"/>
      <point x="524" y="458" type="curve"/>
      <point x="461" y="388" type="line"/>
      <point x="442" y="408"/>
      <point x="424" y="420"/>
      <point x="400" y="420" type="curve" smooth="yes"/>
      <point x="341" y="420"/>
      <point x="313" y="376"/>
      <point x="313" y="324" type="curve" smooth="yes"/>
      <point x="313" y="264"/>
      <point x="344" y="226"/>
      <point x="394" y="226" type="curve" smooth="yes"/>
      <point x="424" y="226"/>
      <point x="442" y="238"/>
      <point x="466" y="256" type="curve"/>
      <point x="520" y="178" type="line"/>
      <point x="482" y="148"/>
      <point x="439" y="128"/>
    </contour>
  </outline>
</glyph>
<glyph name="guillemotleft" format="1">
  <advance width="500"/>
  <unicode hex="00AB"/>
  <outline>
    <contour>
      <point x="184" y="52" type="line"/>
      <point x="50" y="192" type="line"/>
      <point x="50" y="312" type="line"/>
      <point x="184" y="452" type="line"/>
      <point x="246" y="402" type="line"/>
      <point x="138" y="252" type="line"/>
      <point x="246" y="102" type="line"/>
    </contour>
    <contour>
      <point x="384" y="52" type="line"/>
      <point x="250" y="192" type="line"/>
      <point x="250" y="312" type="line"/>
      <point x="384" y="452" type="line"/>
      <point x="446" y="402" type="line"/>
      <point x="338" y="252" type="line"/>
      <point x="446" y="102" type="line"/>
    </contour>
  </outline>
</glyph>
<glyph name="logicalnot" format="1">
  <advance width="540"/>
  <unicode hex="00AC"/>
  <outline>
    <contour>
      <point x="382" y="90" type="line"/>
      <point x="382" y="270" type="line"/>
      <point x="34" y="270" type="line"/>
      <point x="34" y="390" type="line"/>
      <point x="506" y="390" type="line"/>
      <point x="506" y="90" type="line"/>
    </contour>
  </outline>
</glyph>
<glyph name="plusminus" format="1">
  <advance width="540"/>
  <unicode hex="00B1"/>
  <outline>
    <contour>
      <point x="208" y="170" type="line"/>
      <point x="208" y="290" type="line"/>
      <point x="34" y="290" type="line"/>
      <point x="34" y="410" type="line"/>
      <point x="208" y="410" type="line"/>
      <point x="208" y="570" type="line"/>
      <point x="332" y="570" type="line"/>
      <point x="332" y="410" type="line"/>
      <point x="506" y="410" type="line"/>
      <point x="506" y="290" type="line"/>
      <point x="332" y="290" type="line"/>
      <point x="332" y="170" type="line"/>
    </contour>
    <contour>
      <point x="34" y="0" type="line"/>
      <point x="34" y="120" type="line"/>
      <point x="506" y="120" type="line"/>
      <point x="506" y="0" type="line"/>
    </contour>
  </outline>
</glyph>
<glyph name="two.sups" format="1">
  <advance width="380"/>
  <unicode hex="00B2"/>
  <outline>
    <contour>
      <point x="42" y="368" type="line"/>
      <point x="42" y="434" type="line"/>
      <point x="134" y="506"/>
      <point x="208" y="570"/>
      <point x="208" y="614" type="curve" smooth="yes"/>
      <point x="208" y="648"/>
      <point x="190" y="668"/>
      <point x="158" y="668" type="curve" smooth="yes"/>
      <point x="134" y="668"/>
      <point x="114" y="652"/>
      <point x="92" y="624" type="curve"/>
      <point x="22" y="688" type="line"/>
      <point x="66" y="744"/>
      <point x="116" y="770"/>
      <point x="178" y="770" type="curve" smooth="yes"/>
      <point x="268" y="770"/>
      <point x="328" y="720"/>
      <point x="328" y="636" type="curve" smooth="yes"/>
      <point x="328" y="577"/>
      <point x="284" y="524"/>
      <point x="240" y="472" type="curve"/>
      <point x="340" y="472" type="line"/>
      <point x="340" y="368" type="line"/>
    </contour>
  </outline>
</glyph>
<glyph name="three.sups" format="1">
  <advance width="380"/>
  <unicode hex="00B3"/>
  <outline>
    <contour>
      <point x="188" y="356" type="curve" smooth="yes"/>
      <point x="118" y="356"/>
      <point x="60" y="382"/>
      <point x="24" y="436" type="curve"/>
      <point x="98" y="494" type="line"/>
      <point x="122" y="462"/>
      <point x="144" y="450"/>
      <point x="174" y="450" type="curve" smooth="yes"/>
      <point x="201" y="450"/>
      <point x="222" y="464"/>
      <point x="222" y="488" type="curve" smooth="yes"/>
      <point x="222" y="518"/>
      <point x="197" y="532"/>
      <point x="140" y="532" type="curve"/>
      <point x="140" y="602" type="line"/>
      <point x="181" y="602"/>
      <point x="208" y="612"/>
      <point x="208" y="642" type="curve" smooth="yes"/>
      <point x="208" y="664"/>
      <point x="192" y="676"/>
      <point x="168" y="676" type="curve" smooth="yes"/>
      <point x="144" y="676"/>
      <point x="126" y="660"/>
      <point x="110" y="640" type="curve"/>
      <point x="40" y="702" type="line"/>
      <point x="86" y="750"/>
      <point x="126" y="770"/>
      <point x="190" y="770" type="curve" smooth="yes"/>
      <point x="264" y="770"/>
      <point x="330" y="728"/>
      <point x="330" y="660" type="curve" smooth="yes"/>
      <point x="330" y="620"/>
      <point x="312" y="594"/>
      <point x="278" y="572" type="curve"/>
      <point x="316" y="554"/>
      <point x="344" y="522"/>
      <point x="344" y="478" type="curve" smooth="yes"/>
      <point x="344" y="406"/>
      <point x="270" y="356"/>
    </contour>
  </outline>
</glyph>
<glyph name="acute" format="1">
  <advance width="560"/>
  <unicode hex="00B4"/>
  <outline>
    <contour>
      <point x="300" y="572" type="line"/>
      <point x="216" y="656" type="line"/>
      <point x="374" y="844" type="line"/>
      <point x="490" y="730" type="line"/>
    </contour>
  </outline>
</glyph>
<glyph name="periodcentered" format="1">
  <advance width="320"/>
  <unicode hex="00B7"/>
  <outline>
    <contour>
      <point x="160" y="216" type="curve" smooth="yes"/>
      <point x="102" y="216"/>
      <point x="60" y="262"/>
      <point x="60" y="320" type="curve" smooth="yes"/>
      <point x="60" y="378"/>
      <point x="102" y="424"/>
      <point x="160" y="424" type="curve" smooth="yes"/>
      <point x="218" y="424"/>
      <point x="260" y="378"/>
      <point x="260" y="320" type="curve" smooth="yes"/>
      <point x="260" y="262"/>
      <point x="218" y="216"/>
    </contour>
  </outline>
</glyph>
<glyph name="cedilla" format="1">
  <advance width="560"/>
  <unicode hex="00B8"/>
  <outline>
    <contour>
      <point x="172" y="-244" type="curve"/>
      <point x="160" y="-178" type="line"/>
      <point x="236" y="-174"/>
      <point x="260" y="-164"/>
      <point x="260" y="-136" type="curve" smooth="yes"/>
      <point x="260" y="-118"/>
      <point x="246" y="-104"/>
      <point x="184" y="-96" type="curve"/>
      <point x="234" y="4" type="line"/>
      <point x="332" y="4" type="line"/>
      <point x="304" y="-60" type="line"/>
      <point x="356" y="-72"/>
      <point x="382" y="-94"/>
      <point x="382" y="-136" type="curve" smooth="yes"/>
      <point x="382" y="-208"/>
      <point x="304" y="-240"/>
    </contour>
  </outline>
</glyph>
<glyph name="one.sups" format="1">
  <advance width="380"/>
  <unicode hex="00B9"/>
  <outline>
    <contour>
      <point x="162" y="368" type="line"/>
      <point x="162" y="638" type="line"/>
      <point x="72" y="638" type="line"/>
      <point x="72" y="714" type="line"/>
      <point x="130" y="722"/>
      <point x="154" y="734"/>
      <point x="190" y="758" type="curve"/>
      <point x="288" y="758" type="line"/>
      <point x="288" y="368" type="line"/>
    </contour>
  </outline>
</glyph>
<glyph name="ordmasculine" format="1">
  <advance width="376"/>
  <unicode hex="00BA"/>
  <outline>
    <contour>
      <point x="188" y="360" type="curve" smooth="yes"/>
      <point x="102" y="360"/>
      <point x="22" y="424"/>
      <point x="22" y="533" type="curve" smooth="yes"/>
      <point x="22" y="643"/>
      <point x="102" y="708"/>
      <point x="188" y="708" type="curve" smooth="yes"/>
      <point x="274" y="708"/>
      <point x="354" y="643"/>
      <point x="354" y="533" type="curve" smooth="yes"/>
      <point x="354" y="424"/>
      <point x="274" y="360"/>
    </contour>
    <contour>
      <point x="188" y="454" type="curve" smooth="yes"/>
      <point x="221" y="454"/>
      <point x="232" y="485"/>
      <point x="232" y="533" type="curve" smooth="yes"/>
      <point x="232" y="582"/>
      <point x="221" y="614"/>
      <point x="188" y="614" type="curve" smooth="yes"/>
      <point x="155" y="614"/>
      <point x="144" y="582"/>
      <point x="144" y="533" type="curve" smooth="yes"/>
      <point x="144" y="485"/>
      <point x="155" y="454"/>
    </contour>
  </outline>
</glyph>
<glyph name="guillemotright" format="1">
  <advance width="500"/>
  <unicode hex="00BB"/>
  <outline>
    <contour>
      <point x="116" y="52" type="line"/>
      <point x="54" y="102" type="line"/>
      <point x="162" y="252" type="line"/>
      <point x="54" y="402" type="line"/>
      <point x="116" y="452" type="line"/>
      <point x="250" y="312" type="line"/>
      <point x="250" y="192" type="line"/>
    </contour>
    <contour>
      <point x="316" y="52" type="line"/>
      <point x="254" y="102" type="line"/>
      <point x="362" y="252" type="line"/>
      <point x="254" y="402" type="line"/>
      <point x="316" y="452" type="line"/>
      <point x="450" y="312" type="line"/>
      <point x="450" y="192" type="line"/>
    </contour>
  </outline>
</glyph>
<glyph name="onequarter" format="1">
  <advance width="820"/>
  <unicode hex="00BC"/>
  <outline>
    <contour>
      <point x="130" y="260" type="line"/>
      <point x="130" y="530" type="line"/>
      <point x="40" y="530" type="line"/>
      <point x="40" y="606" type="line"/>
      <point x="98" y="614"/>
      <point x="122" y="626"/>
      <point x="158" y="650" type="curve"/>
      <point x="256" y="650" type="line"/>
      <point x="256" y="260" type="line"/>
    </contour>
    <contour>
      <point x="188" y="-12" type="line"/>
      <point x="536" y="662" type="line"/>
      <point x="632" y="662" type="line"/>
      <point x="284" y="-12" type="line"/>
    </contour>
    <contour>
      <point x="652" y="0" type="line"/>
      <point x="652" y="80" type="line"/>
      <point x="472" y="80" type="line"/>
      <point x="472" y="142" type="line"/>
      <point x="604" y="390" type="line"/>
      <point x="762" y="390" type="line"/>
      <point x="762" y="160" type="line"/>
      <point x="820" y="160" type="line"/>
      <point x="820" y="80" type="line"/>
      <point x="762" y="80" type="line"/>
      <point x="762" y="0" type="line"/>
    </contour>
    <contour>
      <point x="584" y="160" type="line"/>
      <point x="652" y="160" type="line"/>
      <point x="652" y="190" type="line"/>
      <point x="658" y="310" type="line"/>
      <point x="654" y="310" type="line"/>
      <point x="618" y="234" type="line"/>
    </contour>
  </outline>
</glyph>
<glyph name="onehalf" format="1">
  <advance width="860"/>
  <unicode hex="00BD"/>
  <outline>
    <contour>
      <point x="130" y="260" type="line"/>
      <point x="130" y="530" type="line"/>
      <point x="40" y="530" type="line"/>
      <point x="40" y="606" type="line"/>
      <point x="98" y="614"/>
      <point x="122" y="626"/>
      <point x="158" y="650" type="curve"/>
      <point x="256" y="650" type="line"/>
      <point x="256" y="260" type="line"/>
    </contour>
    <contour>
      <point x="174" y="-12" type="line"/>
      <point x="522" y="662" type="line"/>
      <point x="618" y="662" type="line"/>
      <point x="270" y="-12" type="line"/>
    </contour>
    <contour>
      <point x="522" y="0" type="line"/>
      <point x="522" y="66" type="line"/>
      <point x="614" y="138"/>
      <point x="688" y="202"/>
      <point x="688" y="246" type="curve" smooth="yes"/>
      <point x="688" y="280"/>
      <point x="670" y="300"/>
      <point x="638" y="300" type="curve" smooth="yes"/>
      <point x="614" y="300"/>
      <point x="594" y="284"/>
      <point x="572" y="256" type="curve"/>
      <point x="502" y="320" type="line"/>
      <point x="546" y="376"/>
      <point x="596" y="402"/>
      <point x="658" y="402" type="curve" smooth="yes"/>
      <point x="748" y="402"/>
      <point x="808" y="352"/>
      <point x="808" y="268" type="curve" smooth="yes"/>
      <point x="808" y="209"/>
      <point x="764" y="156"/>
      <point x="720" y="104" type="curve"/>
      <point x="820" y="104" type="line"/>
      <point x="820" y="0" type="line"/>
    </contour>
  </outline>
</glyph>
<glyph name="threequarters" format="1">
  <advance width="826"/>
  <unicode hex="00BE"/>
  <outline>
    <contour>
      <point x="184" y="248" type="curve" smooth="yes"/>
      <point x="114" y="248"/>
      <point x="56" y="274"/>
      <point x="20" y="328" type="curve"/>
      <point x="94" y="386" type="line"/>
      <point x="118" y="354"/>
      <point x="140" y="342"/>
      <point x="170" y="342" type="curve" smooth="yes"/>
      <point x="197" y="342"/>
      <point x="218" y="356"/>
      <point x="218" y="380" type="curve" smooth="yes"/>
      <point x="218" y="410"/>
      <point x="193" y="424"/>
      <point x="136" y="424" type="curve"/>
      <point x="136" y="494" type="line"/>
      <point x="177" y="494"/>
      <point x="204" y="504"/>
      <point x="204" y="534" type="curve" smooth="yes"/>
      <point x="204" y="556"/>
      <point x="188" y="568"/>
      <point x="164" y="568" type="curve" smooth="yes"/>
      <point x="140" y="568"/>
      <point x="122" y="552"/>
      <point x="106" y="532" type="curve"/>
      <point x="36" y="594" type="line"/>
      <point x="82" y="642"/>
      <point x="122" y="662"/>
      <point x="186" y="662" type="curve" smooth="yes"/>
      <point x="260" y="662"/>
      <point x="326" y="620"/>
      <point x="326" y="552" type="curve" smooth="yes"/>
      <point x="326" y="512"/>
      <point x="308" y="486"/>
      <point x="274" y="464" type="curve"/>
      <point x="312" y="446"/>
      <point x="340" y="414"/>
      <point x="340" y="370" type="curve" smooth="yes"/>
      <point x="340" y="298"/>
      <point x="266" y="248"/>
    </contour>
    <contour>
      <point x="204" y="-12" type="line"/>
      <point x="552" y="662" type="line"/>
      <point x="648" y="662" type="line"/>
      <point x="300" y="-12" type="line"/>
    </contour>
    <contour>
      <point x="658" y="0" type="line"/>
      <point x="658" y="80" type="line"/>
      <point x="478" y="80" type="line"/>
      <point x="478" y="142" type="line"/>
      <point x="610" y="390" type="line"/>
      <point x="768" y="390" type="line"/>
      <point x="768" y="160" type="line"/>
      <point x="826" y="160" type="line"/>
      <point x="826" y="80" type="line"/>
      <point x="768" y="80" type="line"/>
      <point x="768" y="0" type="line"/>
    </contour>
    <contour>
      <point x="590" y="160" type="line"/>
      <point x="658" y="160" type="line"/>
      <point x="658" y="190" type="line"/>
      <point x="664" y="310" type="line"/>
      <point x="660" y="310" type="line"/>
      <point x="624" y="234" type="line"/>
    </contour>
  </outline>
</glyph>
<glyph name="Atilde" format="1">
  <advance width="584"/>
  <unicode hex="00C3"/>
  <outline>
    <contour>
      <point x="240" y="316" type="curve" smooth="yes"/>
      <point x="229" y="271" type="line"/>
      <point x="349" y="271" type="line"/>
      <point x="338" y="316" type="line" smooth="yes"/>
      <point x="322" y="378"/>
      <point x="306" y="457"/>
      <point x="290" y="522" type="curve"/>
      <point x="286" y="522" type="line"/>
      <point x="272" y="456"/>
      <point x="256" y="378"/>
    </contour>
    <contour>
      <point x="-10" y="0" type="line"/>
      <point x="188" y="650" type="line"/>
      <point x="396" y="650" type="line"/>
      <point x="594" y="0" type="line"/>
      <point x="412" y="0" type="line"/>
      <point x="380" y="138" type="line"/>
      <point x="198" y="138" type="line"/>
      <point x="166" y="0" type="line"/>
    </contour>
    <contour>
      <point x="358" y="686" type="curve" smooth="yes"/>
      <point x="288" y="686"/>
      <point x="252" y="738"/>
      <point x="224" y="738" type="curve" smooth="yes"/>
      <point x="208" y="738"/>
      <point x="196" y="730"/>
      <point x="192" y="696" type="curve"/>
      <point x="82" y="704" type="line"/>
      <point x="88" y="814"/>
      <point x="145" y="856"/>
      <point x="218" y="856" type="curve" smooth="yes"/>
      <point x="288" y="856"/>
      <point x="324" y="804"/>
      <point x="352" y="804" type="curve" smooth="yes"/>
      <point x="368" y="804"/>
      <point x="380" y="812"/>
      <point x="384" y="846" type="curve"/>
      <point x="494" y="838" type="line"/>
      <point x="488" y="728"/>
      <point x="431" y="686"/>
    </contour>
  </outline>
</glyph>
<glyph name="Adieresis" format="1">
  <advance width="584"/>
  <unicode hex="00C4"/>
  <outline>
    <contour>
      <point x="240" y="316" type="curve" smooth="yes"/>
      <point x="229" y="271" type="line"/>
      <point x="349" y="271" type="line"/>
      <point x="338" y="316" type="line" smooth="yes"/>
      <point x="322" y="378"/>
      <point x="306" y="457"/>
      <point x="290" y="522" type="curve"/>
      <point x="286" y="522" type="line"/>
      <point x="272" y="456"/>
      <point x="256" y="378"/>
    </contour>
    <contour>
      <point x="-10" y="0" type="line"/>
      <point x="188" y="650" type="line"/>
      <point x="396" y="650" type="line"/>
      <point x="594" y="0" type="line"/>
      <point x="412" y="0" type="line"/>
      <point x="380" y="138" type="line"/>
      <point x="198" y="138" type="line"/>
      <point x="166" y="0" type="line"/>
    </contour>
    <contour>
      <point x="174" y="694" type="curve" smooth="yes"/>
      <point x="128" y="694"/>
      <point x="96" y="728"/>
      <point x="96" y="772" type="curve" smooth="yes"/>
      <point x="96" y="816"/>
      <point x="128" y="850"/>
      <point x="174" y="850" type="curve" smooth="yes"/>
      <point x="220" y="850"/>
      <point x="252" y="816"/>
      <point x="252" y="772" type="curve" smooth="yes"/>
      <point x="252" y="728"/>
      <point x="220" y="694"/>
    </contour>
    <contour>
      <point x="402" y="694" type="curve" smooth="yes"/>
      <point x="356" y="694"/>
      <point x="324" y="728"/>
      <point x="324" y="772" type="curve" smooth="yes"/>
      <point x="324" y="816"/>
      <point x="356" y="850"/>
      <point x="402" y="850" type="curve" smooth="yes"/>
      <point x="448" y="850"/>
      <point x="480" y="816"/>
      <point x="480" y="772" type="curve" smooth="yes"/>
      <point x="480" y="728"/>
      <point x="448" y="694"/>
    </contour>
  </outline>
</glyph>
<glyph name="Aring" format="1">
  <advance width="584"/>
  <unicode hex="00C5"/>
  <outline>
    <contour>
      <point x="240" y="316" type="curve" smooth="yes"/>
      <point x="229" y="271" type="line"/>
      <point x="349" y="271" type="line"/>
      <point x="338" y="316" type="line" smooth="yes"/>
      <point x="322" y="378"/>
      <point x="306" y="457"/>
      <point x="290" y="522" type="curve"/>
      <point x="286" y="522" type="line"/>
      <point x="272" y="456"/>
      <point x="256" y="378"/>
    </contour>
    <contour>
      <point x="-10" y="0" type="line"/>
      <point x="188" y="650" type="line"/>
      <point x="396" y="650" type="line"/>
      <point x="594" y="0" type="line"/>
      <point x="412" y="0" type="line"/>
      <point x="380" y="138" type="line"/>
      <point x="198" y="138" type="line"/>
      <point x="166" y="0" type="line"/>
    </contour>
    <contour>
      <point x="288" y="696" type="curve" smooth="yes"/>
      <point x="216" y="696"/>
      <point x="168" y="736"/>
      <point x="168" y="798" type="curve" smooth="yes"/>
      <point x="168" y="860"/>
      <point x="216" y="900"/>
      <point x="288" y="900" type="curve" smooth="yes"/>
      <point x="360" y="900"/>
      <point x="408" y="860"/>
      <point x="408" y="798" type="curve" smooth="yes"/>
      <point x="408" y="736"/>
      <point x="360" y="696"/>
    </contour>
    <contour>
      <point x="288" y="758" type="curve" smooth="yes"/>
      <point x="309" y="758"/>
      <point x="326" y="774"/>
      <point x="326" y="798" type="curve" smooth="yes"/>
      <point x="326" y="822"/>
      <point x="309" y="838"/>
      <point x="288" y="838" type="curve" smooth="yes"/>
      <point x="267" y="838"/>
      <point x="250" y="822"/>
      <point x="250" y="798" type="curve" smooth="yes"/>
      <point x="250" y="774"/>
      <point x="267" y="758"/>
    </contour>
  </outline>
</glyph>
<glyph name="Ccedilla" format="1">
  <advance width="586"/>
  <unicode hex="00C7"/>
  <outline>
    <contour>
      <point x="244" y="-244" type="curve"/>
      <point x="232" y="-178" type="line"/>
      <point x="308" y="-174"/>
      <point x="332" y="-164"/>
      <point x="332" y="-136" type="curve" smooth="yes"/>
      <point x="332" y="-118"/>
      <point x="318" y="-104"/>
      <point x="256" y="-96" type="curve"/>
      <point x="300" y="-8" type="line"/>
      <point x="158" y="14"/>
      <point x="44" y="122"/>
      <point x="44" y="320" type="curve" smooth="yes"/>
      <point x="44" y="538"/>
      <point x="194" y="662"/>
      <point x="358" y="662" type="curve" smooth="yes"/>
      <point x="444" y="662"/>
      <point x="514" y="622"/>
      <point x="560" y="576" type="curve"/>
      <point x="470" y="466" type="line"/>
      <point x="438" y="494"/>
      <point x="406" y="514"/>
      <point x="362" y="514" type="curve" smooth="yes"/>
      <point x="286" y="514"/>
      <point x="220" y="444"/>
      <point x="220" y="326" type="curve" smooth="yes"/>
      <point x="220" y="204"/>
      <point x="276" y="136"/>
      <point x="360" y="136" type="curve" smooth="yes"/>
      <point x="410" y="136"/>
      <point x="450" y="162"/>
      <point x="478" y="192" type="curve"/>
      <point x="568" y="84" type="line"/>
      <point x="523" y="32"/>
      <point x="464" y="1"/>
      <point x="398" y="-9" type="curve"/>
      <point x="376" y="-60" type="line"/>
      <point x="428" y="-72"/>
      <point x="454" y="-94"/>
      <point x="454" y="-136" type="curve" smooth="yes"/>
      <point x="454" y="-208"/>
      <point x="376" y="-240"/>
    </contour>
  </outline>
</glyph>
<glyph name="Eacute" format="1">
  <advance width="556"/>
  <unicode hex="00C9"/>
  <outline>
    <contour>
      <point x="72" y="0" type="line"/>
      <point x="72" y="650" type="line"/>
      <point x="492" y="650" type="line"/>
      <point x="492" y="506" type="line"/>
      <point x="244" y="506" type="line"/>
      <point x="244" y="404" type="line"/>
      <point x="456" y="404" type="line"/>
      <point x="456" y="260" type="line"/>
      <point x="244" y="260" type="line"/>
      <point x="244" y="144" type="line"/>
      <point x="502" y="144" type="line"/>
      <point x="502" y="0" type="line"/>
    </contour>
    <contour>
      <point x="282" y="674" type="line"/>
      <point x="206" y="760" type="line"/>
      <point x="388" y="904" type="line"/>
      <point x="478" y="794" type="line"/>
    </contour>
  </outline>
</glyph>
<glyph name="Ecircumflex" format="1">
  <advance width="556"/>
  <unicode hex="00CA"/>
  <outline>
    <contour>
      <point x="72" y="0" type="line"/>
      <point x="72" y="650" type="line"/>
      <point x="492" y="650" type="line"/>
      <point x="492" y="506" type="line"/>
      <point x="244" y="506" type="line"/>
      <point x="244" y="404" type="line"/>
      <point x="456" y="404" type="line"/>
      <point x="456" y="260" type="line"/>
      <point x="244" y="260" type="line"/>
      <point x="244" y="144" type="line"/>
      <point x="502" y="144" type="line"/>
      <point x="502" y="0" type="line"/>
    </contour>
    <contour>
      <point x="112" y="724" type="line"/>
      <point x="196" y="834" type="line"/>
      <point x="384" y="834" type="line"/>
      <point x="468" y="724" type="line"/>
      <point x="394" y="680" type="line"/>
      <point x="292" y="760" type="line"/>
      <point x="288" y="760" type="line"/>
      <point x="186" y="680" type="line"/>
    </contour>
  </outline>
</glyph>
<glyph name="Edieresis" format="1">
  <advance width="556"/>
  <unicode hex="00CB"/>
  <outline>
    <contour>
      <point x="72" y="0" type="line"/>
      <point x="72" y="650" type="line"/>
      <point x="492" y="650" type="line"/>
      <point x="492" y="506" type="line"/>
      <point x="244" y="506" type="line"/>
      <point x="244" y="404" type="line"/>
      <point x="456" y="404" type="line"/>
      <point x="456" y="260" type="line"/>
      <point x="244" y="260" type="line"/>
      <point x="244" y="144" type="line"/>
      <point x="502" y="144" type="line"/>
      <point x="502" y="0" type="line"/>
    </contour>
    <contour>
      <point x="176" y="694" type="curve" smooth="yes"/>
      <point x="130" y="694"/>
      <point x="98" y="728"/>
      <point x="98" y="772" type="curve" smooth="yes"/>
      <point x="98" y="816"/>
      <point x="130" y="850"/>
      <point x="176" y="850" type="curve" smooth="yes"/>
      <point x="222" y="850"/>
      <point x="254" y="816"/>
      <point x="254" y="772" type="curve" smooth="yes"/>
      <point x="254" y="728"/>
      <point x="222" y="694"/>
    </contour>
    <contour>
      <point x="404" y="694" type="curve" smooth="yes"/>
      <point x="358" y="694"/>
      <point x="326" y="728"/>
      <point x="326" y="772" type="curve" smooth="yes"/>
      <point x="326" y="816"/>
      <point x="358" y="850"/>
      <point x="404" y="850" type="curve" smooth="yes"/>
      <point x="450" y="850"/>
      <point x="482" y="816"/>
      <point x="482" y="772" type="curve" smooth="yes"/>
      <point x="482" y="728"/>
      <point x="450" y="694"/>
    </contour>
  </outline>
</glyph>
<glyph name="Eth" format="1">
  <advance width="668"/>
  <unicode hex="00D0"/>
  <outline>
    <contour>
      <point x="24" y="294" type="line"/>
      <point x="24" y="368" type="line"/>
      <point x="98" y="374" type="line"/>
      <point x="98" y="650" type="line"/>
      <point x="290" y="650" type="line" smooth="yes"/>
      <point x="488" y="650"/>
      <point x="624" y="558"/>
      <point x="624" y="328" type="curve" smooth="yes"/>
      <point x="624" y="98"/>
      <point x="488" y="0"/>
      <point x="300" y="0" type="curve" smooth="yes"/>
      <point x="98" y="0" type="line"/>
      <point x="98" y="294" type="line"/>
    </contour>
    <contour>
      <point x="270" y="138" type="line"/>
      <point x="280" y="138" type="line" smooth="yes"/>
      <point x="374" y="138"/>
      <point x="448" y="176"/>
      <point x="448" y="328" type="curve" smooth="yes"/>
      <point x="448" y="480"/>
      <point x="374" y="512"/>
      <point x="280" y="512" type="curve" smooth="yes"/>
      <point x="270" y="512" type="line"/>
      <point x="270" y="374" type="line"/>
      <point x="386" y="374" type="line"/>
      <point x="386" y="294" type="line"/>
      <point x="270" y="294" type="line"/>
    </contour>
  </outline>
</glyph>
<glyph name="Ntilde" format="1">
  <advance width="672"/>
  <unicode hex="00D1"/>
  <outline>
    <contour>
      <point x="72" y="0" type="line"/>
      <point x="72" y="650" type="line"/>
      <point x="248" y="650" type="line"/>
      <point x="392" y="360" type="line"/>
      <point x="454" y="214" type="line"/>
      <point x="458" y="214" type="line"/>
      <point x="450" y="284"/>
      <point x="436" y="382"/>
      <point x="436" y="462" type="curve" smooth="yes"/>
      <point x="436" y="650" type="line"/>
      <point x="600" y="650" type="line"/>
      <point x="600" y="0" type="line"/>
      <point x="424" y="0" type="line"/>
      <point x="280" y="291" type="line"/>
      <point x="218" y="436" type="line"/>
      <point x="214" y="436" type="line"/>
      <point x="222" y="362"/>
      <point x="236" y="268"/>
      <point x="236" y="188" type="curve" smooth="yes"/>
      <point x="236" y="0" type="line"/>
    </contour>
    <contour>
      <point x="406" y="686" type="curve" smooth="yes"/>
      <point x="336" y="686"/>
      <point x="300" y="738"/>
      <point x="272" y="738" type="curve" smooth="yes"/>
      <point x="256" y="738"/>
      <point x="244" y="730"/>
      <point x="240" y="696" type="curve"/>
      <point x="130" y="704" type="line"/>
      <point x="136" y="814"/>
      <point x="193" y="856"/>
      <point x="266" y="856" type="curve" smooth="yes"/>
      <point x="336" y="856"/>
      <point x="372" y="804"/>
      <point x="400" y="804" type="curve" smooth="yes"/>
      <point x="416" y="804"/>
      <point x="428" y="812"/>
      <point x="432" y="846" type="curve"/>
      <point x="542" y="838" type="line"/>
      <point x="536" y="728"/>
      <point x="479" y="686"/>
    </contour>
  </outline>
</glyph>
<glyph name="Otilde" format="1">
  <advance width="692"/>
  <unicode hex="00D5"/>
  <outline>
    <contour>
      <point x="346" y="-12" type="curve" smooth="yes"/>
      <point x="166" y="-12"/>
      <point x="44" y="114"/>
      <point x="44" y="328" type="curve" smooth="yes"/>
      <point x="44" y="542"/>
      <point x="166" y="662"/>
      <point x="346" y="662" type="curve" smooth="yes"/>
      <point x="526" y="662"/>
      <point x="648" y="541"/>
      <point x="648" y="328" type="curve" smooth="yes"/>
      <point x="648" y="114"/>
      <point x="526" y="-12"/>
    </contour>
    <contour>
      <point x="346" y="136" type="curve" smooth="yes"/>
      <point x="424" y="136"/>
      <point x="472" y="210"/>
      <point x="472" y="328" type="curve" smooth="yes"/>
      <point x="472" y="446"/>
      <point x="424" y="514"/>
      <point x="346" y="514" type="curve" smooth="yes"/>
      <point x="268" y="514"/>
      <point x="220" y="446"/>
      <point x="220" y="328" type="curve" smooth="yes"/>
      <point x="220" y="210"/>
      <point x="268" y="136"/>
    </contour>
    <contour>
      <point x="416" y="686" type="curve" smooth="yes"/>
      <point x="346" y="686"/>
      <point x="310" y="738"/>
      <point x="282" y="738" type="curve" smooth="yes"/>
      <point x="266" y="738"/>
      <point x="254" y="730"/>
      <point x="250" y="696" type="curve"/>
      <point x="140" y="704" type="line"/>
      <point x="146" y="814"/>
      <point x="203" y="856"/>
      <point x="276" y="856" type="curve" smooth="yes"/>
      <point x="346" y="856"/>
      <point x="382" y="804"/>
      <point x="410" y="804" type="curve" smooth="yes"/>
      <point x="426" y="804"/>
      <point x="438" y="812"/>
      <point x="442" y="846" type="curve"/>
      <point x="552" y="838" type="line"/>
      <point x="546" y="728"/>
      <point x="489" y="686"/>
    </contour>
  </outline>
</glyph>
<glyph name="Oslash" format="1">
  <advance width="692"/>
  <unicode hex="00D8"/>
  <outline>
    <contour>
      <point x="356" y="672" type="move" name="Anchor-1"/>
    </contour>
    <contour>
      <point x="346" y="-12" type="curve" smooth="yes"/>
      <point x="285" y="-12"/>
      <point x="231" y="2"/>
      <point x="186" y="30" type="curve"/>
      <point x="124" y="-46" type="line"/>
      <point x="36" y="22" type="line"/>
      <point x="105" y="106" type="line"/>
      <point x="66" y="162"/>
      <point x="44" y="237"/>
      <point x="44" y="328" type="curve" smooth="yes"/>
      <point x="44" y="542"/>
      <point x="166" y="662"/>
      <point x="346" y="662" type="curve" smooth="yes"/>
      <point x="413" y="662"/>
      <point x="472" y="645"/>
      <point x="520" y="613" type="curve"/>
      <point x="588" y="696" type="line"/>
      <point x="676" y="628" type="line"/>
      <point x="597" y="532" type="line"/>
      <point x="630" y="479"/>
      <point x="648" y="410"/>
      <point x="648" y="328" type="curve" smooth="yes"/>
      <point x="648" y="114"/>
      <point x="526" y="-12"/>
    </contour>
    <contour>
      <point x="220" y="328" type="curve" smooth="yes"/>
      <point x="220" y="301"/>
      <point x="222" y="277"/>
      <point x="227" y="255" type="curve"/>
      <point x="418" y="488" type="line"/>
      <point x="398" y="505"/>
      <point x="374" y="514"/>
      <point x="346" y="514" type="curve" smooth="yes"/>
      <point x="268" y="514"/>
      <point x="220" y="446"/>
    </contour>
    <contour>
      <point x="346" y="136" type="curve" smooth="yes"/>
      <point x="424" y="136"/>
      <point x="472" y="210"/>
      <point x="472" y="328" type="curve" smooth="yes"/>
      <point x="472" y="345"/>
      <point x="471" y="361"/>
      <point x="469" y="375" type="curve"/>
      <point x="287" y="153" type="line"/>
      <point x="304" y="142"/>
      <point x="324" y="136"/>
    </contour>
  </outline>
</glyph>
<glyph name="Ucircumflex" format="1">
  <advance width="672"/>
  <unicode hex="00DB"/>
  <outline>
    <contour>
      <point x="338" y="-12" type="curve" smooth="yes"/>
      <point x="156" y="-12"/>
      <point x="68" y="92"/>
      <point x="68" y="314" type="curve" smooth="yes"/>
      <point x="68" y="650" type="line"/>
      <point x="240" y="650" type="line"/>
      <point x="240" y="294" type="line" smooth="yes"/>
      <point x="240" y="178"/>
      <point x="270" y="136"/>
      <point x="338" y="136" type="curve" smooth="yes"/>
      <point x="406" y="136"/>
      <point x="438" y="178"/>
      <point x="438" y="294" type="curve" smooth="yes"/>
      <point x="438" y="650" type="line"/>
      <point x="604" y="650" type="line"/>
      <point x="604" y="314" type="line" smooth="yes"/>
      <point x="604" y="92"/>
      <point x="520" y="-12"/>
    </contour>
    <contour>
      <point x="158" y="724" type="line"/>
      <point x="242" y="834" type="line"/>
      <point x="430" y="834" type="line"/>
      <point x="514" y="724" type="line"/>
      <point x="440" y="680" type="line"/>
      <point x="338" y="760" type="line"/>
      <point x="334" y="760" type="line"/>
      <point x="232" y="680" type="line"/>
    </contour>
  </outline>
</glyph>
<glyph name="Udieresis" format="1">
  <advance width="672"/>
  <unicode hex="00DC"/>
  <outline>
    <contour>
      <point x="338" y="-12" type="curve" smooth="yes"/>
      <point x="156" y="-12"/>
      <point x="68" y="92"/>
      <point x="68" y="314" type="curve" smooth="yes"/>
      <point x="68" y="650" type="line"/>
      <point x="240" y="650" type="line"/>
      <point x="240" y="294" type="line" smooth="yes"/>
      <point x="240" y="178"/>
      <point x="270" y="136"/>
      <point x="338" y="136" type="curve" smooth="yes"/>
      <point x="406" y="136"/>
      <point x="438" y="178"/>
      <point x="438" y="294" type="curve" smooth="yes"/>
      <point x="438" y="650" type="line"/>
      <point x="604" y="650" type="line"/>
      <point x="604" y="314" type="line" smooth="yes"/>
      <point x="604" y="92"/>
      <point x="520" y="-12"/>
    </contour>
    <contour>
      <point x="222" y="694" type="curve" smooth="yes"/>
      <point x="176" y="694"/>
      <point x="144" y="728"/>
      <point x="144" y="772" type="curve" smooth="yes"/>
      <point x="144" y="816"/>
      <point x="176" y="850"/>
      <point x="222" y="850" type="curve" smooth="yes"/>
      <point x="268" y="850"/>
      <point x="300" y="816"/>
      <point x="300" y="772" type="curve" smooth="yes"/>
      <point x="300" y="728"/>
      <point x="268" y="694"/>
    </contour>
    <contour>
      <point x="450" y="694" type="curve" smooth="yes"/>
      <point x="404" y="694"/>
      <point x="372" y="728"/>
      <point x="372" y="772" type="curve" smooth="yes"/>
      <point x="372" y="816"/>
      <point x="404" y="850"/>
      <point x="450" y="850" type="curve" smooth="yes"/>
      <point x="496" y="850"/>
      <point x="528" y="816"/>
      <point x="528" y="772" type="curve" smooth="yes"/>
      <point x="528" y="728"/>
      <point x="496" y="694"/>
    </contour>
  </outline>
</glyph>
<glyph name="Thorn" format="1">
  <advance width="630"/>
  <unicode hex="00DE"/>
  <outline>
    <contour>
      <point x="72" y="0" type="line"/>
      <point x="72" y="650" type="line"/>
      <point x="244" y="650" type="line"/>
      <point x="244" y="556" type="line"/>
      <point x="324" y="556" type="line" smooth="yes"/>
      <point x="464" y="556"/>
      <point x="584" y="504"/>
      <point x="584" y="340" type="curve" smooth="yes"/>
      <point x="584" y="181"/>
      <point x="460" y="112"/>
      <point x="324" y="112" type="curve" smooth="yes"/>
      <point x="244" y="112" type="line"/>
      <point x="244" y="0" type="line"/>
    </contour>
    <contour>
      <point x="244" y="248" type="line"/>
      <point x="316" y="248" type="line" smooth="yes"/>
      <point x="384" y="248"/>
      <point x="416" y="282"/>
      <point x="416" y="340" type="curve" smooth="yes"/>
      <point x="416" y="398"/>
      <point x="380" y="420"/>
      <point x="316" y="420" type="curve" smooth="yes"/>
      <point x="244" y="420" type="line"/>
    </contour>
  </outline>
</glyph>
<glyph name="atilde" format="1">
  <advance width="536"/>
  <unicode hex="00E3"/>
  <outline>
    <contour>
      <point x="188" y="-12" type="curve" smooth="yes"/>
      <point x="94" y="-12"/>
      <point x="38" y="60"/>
      <point x="38" y="142" type="curve" smooth="yes"/>
      <point x="38" y="246"/>
      <point x="118" y="304"/>
      <point x="310" y="324" type="curve"/>
      <point x="306" y="360"/>
      <point x="284" y="376"/>
      <point x="240" y="376" type="curve" smooth="yes"/>
      <point x="204" y="376"/>
      <point x="166" y="362"/>
      <point x="114" y="334" type="curve"/>
      <point x="54" y="446" type="line"/>
      <point x="124" y="488"/>
      <point x="196" y="512"/>
      <point x="274" y="512" type="curve" smooth="yes"/>
      <point x="404" y="512"/>
      <point x="482" y="442"/>
      <point x="482" y="278" type="curve" smooth="yes"/>
      <point x="482" y="0" type="line"/>
      <point x="342" y="0" type="line"/>
      <point x="330" y="48" type="line"/>
      <point x="326" y="48" type="line"/>
      <point x="286" y="12"/>
      <point x="242" y="-12"/>
    </contour>
    <contour>
      <point x="248" y="120" type="curve" smooth="yes"/>
      <point x="276" y="120"/>
      <point x="292" y="134"/>
      <point x="310" y="154" type="curve"/>
      <point x="310" y="222" type="line"/>
      <point x="228" y="210"/>
      <point x="202" y="184"/>
      <point x="202" y="156" type="curve" smooth="yes"/>
      <point x="202" y="133"/>
      <point x="218" y="120"/>
    </contour>
    <contour>
      <point x="345" y="572" type="curve" smooth="yes"/>
      <point x="285" y="572"/>
      <point x="247" y="628"/>
      <point x="221" y="628" type="curve" smooth="yes"/>
      <point x="205" y="628"/>
      <point x="195" y="618"/>
      <point x="191" y="582" type="curve"/>
      <point x="85" y="588" type="line"/>
      <point x="87" y="701"/>
      <point x="137" y="746"/>
      <point x="217" y="746" type="curve" smooth="yes"/>
      <point x="277" y="746"/>
      <point x="315" y="690"/>
      <point x="341" y="690" type="curve" smooth="yes"/>
      <point x="357" y="690"/>
      <point x="367" y="700"/>
      <point x="371" y="736" type="curve"/>
      <point x="477" y="730" type="line"/>
      <point x="475" y="617"/>
      <point x="425" y="572"/>
    </contour>
  </outline>
</glyph>
<glyph name="adieresis" format="1">
  <advance width="536"/>
  <unicode hex="00E4"/>
  <outline>
    <contour>
      <point x="188" y="-12" type="curve" smooth="yes"/>
      <point x="94" y="-12"/>
      <point x="38" y="60"/>
      <point x="38" y="142" type="curve" smooth="yes"/>
      <point x="38" y="246"/>
      <point x="118" y="304"/>
      <point x="310" y="324" type="curve"/>
      <point x="306" y="360"/>
      <point x="284" y="376"/>
      <point x="240" y="376" type="curve" smooth="yes"/>
      <point x="204" y="376"/>
      <point x="166" y="362"/>
      <point x="114" y="334" type="curve"/>
      <point x="54" y="446" type="line"/>
      <point x="124" y="488"/>
      <point x="196" y="512"/>
      <point x="274" y="512" type="curve" smooth="yes"/>
      <point x="404" y="512"/>
      <point x="482" y="442"/>
      <point x="482" y="278" type="curve" smooth="yes"/>
      <point x="482" y="0" type="line"/>
      <point x="342" y="0" type="line"/>
      <point x="330" y="48" type="line"/>
      <point x="326" y="48" type="line"/>
      <point x="286" y="12"/>
      <point x="242" y="-12"/>
    </contour>
    <contour>
      <point x="248" y="120" type="curve" smooth="yes"/>
      <point x="276" y="120"/>
      <point x="292" y="134"/>
      <point x="310" y="154" type="curve"/>
      <point x="310" y="222" type="line"/>
      <point x="228" y="210"/>
      <point x="202" y="184"/>
      <point x="202" y="156" type="curve" smooth="yes"/>
      <point x="202" y="133"/>
      <point x="218" y="120"/>
    </contour>
    <contour>
      <point x="167" y="562" type="curve" smooth="yes"/>
      <point x="120" y="562"/>
      <point x="87" y="597"/>
      <point x="87" y="642" type="curve" smooth="yes"/>
      <point x="87" y="687"/>
      <point x="120" y="722"/>
      <point x="167" y="722" type="curve" smooth="yes"/>
      <point x="214" y="722"/>
      <point x="247" y="687"/>
      <point x="247" y="642" type="curve" smooth="yes"/>
      <point x="247" y="597"/>
      <point x="214" y="562"/>
    </contour>
    <contour>
      <point x="395" y="562" type="curve" smooth="yes"/>
      <point x="348" y="562"/>
      <point x="315" y="597"/>
      <point x="315" y="642" type="curve" smooth="yes"/>
      <point x="315" y="687"/>
      <point x="348" y="722"/>
      <point x="395" y="722" type="curve" smooth="yes"/>
      <point x="442" y="722"/>
      <point x="475" y="687"/>
      <point x="475" y="642" type="curve" smooth="yes"/>
      <point x="475" y="597"/>
      <point x="442" y="562"/>
    </contour>
  </outline>
</glyph>
<glyph name="aring" format="1">
  <advance width="536"/>
  <unicode hex="00E5"/>
  <outline>
    <contour>
      <point x="188" y="-12" type="curve" smooth="yes"/>
      <point x="94" y="-12"/>
      <point x="38" y="60"/>
      <point x="38" y="142" type="curve" smooth="yes"/>
      <point x="38" y="246"/>
      <point x="118" y="304"/>
      <point x="310" y="324" type="curve"/>
      <point x="306" y="360"/>
      <point x="284" y="376"/>
      <point x="240" y="376" type="curve" smooth="yes"/>
      <point x="204" y="376"/>
      <point x="166" y="362"/>
      <point x="114" y="334" type="curve"/>
      <point x="54" y="446" type="line"/>
      <point x="124" y="488"/>
      <point x="196" y="512"/>
      <point x="274" y="512" type="curve" smooth="yes"/>
      <point x="404" y="512"/>
      <point x="482" y="442"/>
      <point x="482" y="278" type="curve" smooth="yes"/>
      <point x="482" y="0" type="line"/>
      <point x="342" y="0" type="line"/>
      <point x="330" y="48" type="line"/>
      <point x="326" y="48" type="line"/>
      <point x="286" y="12"/>
      <point x="242" y="-12"/>
    </contour>
    <contour>
      <point x="248" y="120" type="curve" smooth="yes"/>
      <point x="276" y="120"/>
      <point x="292" y="134"/>
      <point x="310" y="154" type="curve"/>
      <point x="310" y="222" type="line"/>
      <point x="228" y="210"/>
      <point x="202" y="184"/>
      <point x="202" y="156" type="curve" smooth="yes"/>
      <point x="202" y="133"/>
      <point x="218" y="120"/>
    </contour>
    <contour>
      <point x="281" y="568" type="curve" smooth="yes"/>
      <point x="187" y="568"/>
      <point x="141" y="616"/>
      <point x="141" y="674" type="curve" smooth="yes"/>
      <point x="141" y="732"/>
      <point x="187" y="780"/>
      <point x="281" y="780" type="curve" smooth="yes"/>
      <point x="375" y="780"/>
      <point x="421" y="732"/>
      <point x="421" y="674" type="curve" smooth="yes"/>
      <point x="421" y="616"/>
      <point x="375" y="568"/>
    </contour>
    <contour>
      <point x="281" y="630" type="curve" smooth="yes"/>
      <point x="302" y="630"/>
      <point x="319" y="648"/>
      <point x="319" y="674" type="curve" smooth="yes"/>
      <point x="319" y="700"/>
      <point x="302" y="718"/>
      <point x="281" y="718" type="curve" smooth="yes"/>
      <point x="260" y="718"/>
      <point x="243" y="700"/>
      <point x="243" y="674" type="curve" smooth="yes"/>
      <point x="243" y="648"/>
      <point x="260" y="630"/>
    </contour>
  </outline>
</glyph>
<glyph name="ccedilla" format="1">
  <advance width="472"/>
  <unicode hex="00E7"/>
  <outline>
    <contour>
      <point x="179" y="-244" type="curve"/>
      <point x="167" y="-178" type="line"/>
      <point x="243" y="-174"/>
      <point x="267" y="-164"/>
      <point x="267" y="-136" type="curve" smooth="yes"/>
      <point x="267" y="-118"/>
      <point x="253" y="-104"/>
      <point x="191" y="-96" type="curve"/>
      <point x="235" y="-8" type="line"/>
      <point x="117" y="12"/>
      <point x="32" y="104"/>
      <point x="32" y="250" type="curve" smooth="yes"/>
      <point x="32" y="416"/>
      <point x="158" y="512"/>
      <point x="300" y="512" type="curve" smooth="yes"/>
      <point x="360" y="512"/>
      <point x="408" y="492"/>
      <point x="446" y="460" type="curve"/>
      <point x="366" y="350" type="line"/>
      <point x="344" y="368"/>
      <point x="328" y="374"/>
      <point x="310" y="374" type="curve" smooth="yes"/>
      <point x="246" y="374"/>
      <point x="208" y="326"/>
      <point x="208" y="250" type="curve" smooth="yes"/>
      <point x="208" y="174"/>
      <point x="250" y="126"/>
      <point x="304" y="126" type="curve" smooth="yes"/>
      <point x="332" y="126"/>
      <point x="360" y="140"/>
      <point x="384" y="158" type="curve"/>
      <point x="450" y="46" type="line"/>
      <point x="415" y="15"/>
      <point x="374" y="-1"/>
      <point x="334" y="-8" type="curve"/>
      <point x="311" y="-60" type="line"/>
      <point x="363" y="-72"/>
      <point x="389" y="-94"/>
      <point x="389" y="-136" type="curve" smooth="yes"/>
      <point x="389" y="-208"/>
      <point x="311" y="-240"/>
    </contour>
  </outline>
</glyph>
<glyph name="iacute" format="1">
  <advance width="288"/>
  <unicode hex="00ED"/>
  <outline>
    <contour>
      <point x="58" y="0" type="line"/>
      <point x="58" y="500" type="line"/>
      <point x="230" y="500" type="line"/>
      <point x="230" y="0" type="line"/>
    </contour>
    <contour>
      <point x="164" y="572" type="line"/>
      <point x="80" y="656" type="line"/>
      <point x="238" y="844" type="line"/>
      <point x="354" y="730" type="line"/>
    </contour>
  </outline>
</glyph>
<glyph name="icircumflex" format="1">
  <advance width="288"/>
  <unicode hex="00EE"/>
  <outline>
    <contour>
      <point x="58" y="0" type="line"/>
      <point x="58" y="500" type="line"/>
      <point x="230" y="500" type="line"/>
      <point x="230" y="0" type="line"/>
    </contour>
    <contour>
      <point x="-50" y="618" type="line"/>
      <point x="56" y="746" type="line"/>
      <point x="232" y="746" type="line"/>
      <point x="338" y="618" type="line"/>
      <point x="274" y="558" type="line"/>
      <point x="146" y="642" type="line"/>
      <point x="142" y="642" type="line"/>
      <point x="14" y="558" type="line"/>
    </contour>
  </outline>
</glyph>
<glyph name="idieresis" format="1">
  <advance width="288"/>
  <unicode hex="00EF"/>
  <outline>
    <contour>
      <point x="58" y="0" type="line"/>
      <point x="58" y="500" type="line"/>
      <point x="230" y="500" type="line"/>
      <point x="230" y="0" type="line"/>
    </contour>
    <contour>
      <point x="30" y="562" type="curve" smooth="yes"/>
      <point x="-17" y="562"/>
      <point x="-50" y="597"/>
      <point x="-50" y="642" type="curve" smooth="yes"/>
      <point x="-50" y="687"/>
      <point x="-17" y="722"/>
      <point x="30" y="722" type="curve" smooth="yes"/>
      <point x="77" y="722"/>
      <point x="110" y="687"/>
      <point x="110" y="642" type="curve" smooth="yes"/>
      <point x="110" y="597"/>
      <point x="77" y="562"/>
    </contour>
    <contour>
      <point x="258" y="562" type="curve" smooth="yes"/>
      <point x="211" y="562"/>
      <point x="178" y="597"/>
      <point x="178" y="642" type="curve" smooth="yes"/>
      <point x="178" y="687"/>
      <point x="211" y="722"/>
      <point x="258" y="722" type="curve" smooth="yes"/>
      <point x="305" y="722"/>
      <point x="338" y="687"/>
      <point x="338" y="642" type="curve" smooth="yes"/>
      <point x="338" y="597"/>
      <point x="305" y="562"/>
    </contour>
  </outline>
</glyph>
<glyph name="eth" format="1">
  <advance width="566"/>
  <unicode hex="00F0"/>
  <outline>
    <contour>
      <point x="274" y="-12" type="curve" smooth="yes"/>
      <point x="146" y="-12"/>
      <point x="38" y="82"/>
      <point x="38" y="230" type="curve" smooth="yes"/>
      <point x="38" y="376"/>
      <point x="140" y="458"/>
      <point x="240" y="458" type="curve" smooth="yes"/>
      <point x="272" y="458"/>
      <point x="307" y="450"/>
      <point x="332" y="427" type="curve"/>
      <point x="315" y="469"/>
      <point x="291" y="504"/>
      <point x="258" y="536" type="curve"/>
      <point x="116" y="465" type="line"/>
      <point x="72" y="539" type="line"/>
      <point x="183" y="595" type="line"/>
      <point x="159" y="610"/>
      <point x="132" y="625"/>
      <point x="103" y="640" type="curve"/>
      <point x="177" y="744" type="line"/>
      <point x="224" y="720"/>
      <point x="271" y="693"/>
      <point x="315" y="661" type="curve"/>
      <point x="458" y="733" type="line"/>
      <point x="502" y="658" type="line"/>
      <point x="386" y="600" type="line"/>
      <point x="465" y="520"/>
      <point x="520" y="415"/>
      <point x="520" y="270" type="curve" smooth="yes"/>
      <point x="520" y="108"/>
      <point x="428" y="-12"/>
    </contour>
    <contour>
      <point x="280" y="126" type="curve" smooth="yes"/>
      <point x="324" y="126"/>
      <point x="360" y="162"/>
      <point x="360" y="260" type="curve" smooth="yes"/>
      <point x="360" y="274"/>
      <point x="360" y="287"/>
      <point x="359" y="299" type="curve"/>
      <point x="335" y="323"/>
      <point x="307" y="332"/>
      <point x="277" y="332" type="curve" smooth="yes"/>
      <point x="231" y="332"/>
      <point x="194" y="305"/>
      <point x="194" y="230" type="curve" smooth="yes"/>
      <point x="194" y="160"/>
      <point x="234" y="126"/>
    </contour>
  </outline>
</glyph>
<glyph name="ntilde" format="1">
  <advance width="582"/>
  <unicode hex="00F1"/>
  <outline>
    <contour>
      <point x="58" y="0" type="line"/>
      <point x="58" y="500" type="line"/>
      <point x="198" y="500" type="line"/>
      <point x="210" y="440" type="line"/>
      <point x="214" y="440" type="line"/>
      <point x="254" y="478"/>
      <point x="304" y="512"/>
      <point x="372" y="512" type="curve" smooth="yes"/>
      <point x="482" y="512"/>
      <point x="528" y="432"/>
      <point x="528" y="308" type="curve" smooth="yes"/>
      <point x="528" y="0" type="line"/>
      <point x="356" y="0" type="line"/>
      <point x="356" y="286" type="line" smooth="yes"/>
      <point x="356" y="350"/>
      <point x="340" y="366"/>
      <point x="306" y="366" type="curve" smooth="yes"/>
      <point x="274" y="366"/>
      <point x="256" y="352"/>
      <point x="230" y="328" type="curve"/>
      <point x="230" y="0" type="line"/>
    </contour>
    <contour>
      <point x="378" y="572" type="curve" smooth="yes"/>
      <point x="318" y="572"/>
      <point x="280" y="628"/>
      <point x="254" y="628" type="curve" smooth="yes"/>
      <point x="238" y="628"/>
      <point x="228" y="618"/>
      <point x="224" y="582" type="curve"/>
      <point x="118" y="588" type="line"/>
      <point x="120" y="701"/>
      <point x="170" y="746"/>
      <point x="250" y="746" type="curve" smooth="yes"/>
      <point x="310" y="746"/>
      <point x="348" y="690"/>
      <point x="374" y="690" type="curve" smooth="yes"/>
      <point x="390" y="690"/>
      <point x="400" y="700"/>
      <point x="404" y="736" type="curve"/>
      <point x="510" y="730" type="line"/>
      <point x="508" y="617"/>
      <point x="458" y="572"/>
    </contour>
  </outline>
</glyph>
<glyph name="ocircumflex" format="1">
  <advance width="560"/>
  <unicode hex="00F4"/>
  <outline>
    <contour>
      <point x="280" y="-12" type="curve" smooth="yes"/>
      <point x="152" y="-12"/>
      <point x="32" y="84"/>
      <point x="32" y="250" type="curve" smooth="yes"/>
      <point x="32" y="416"/>
      <point x="152" y="512"/>
      <point x="280" y="512" type="curve" smooth="yes"/>
      <point x="408" y="512"/>
      <point x="528" y="416"/>
      <point x="528" y="250" type="curve" smooth="yes"/>
      <point x="528" y="84"/>
      <point x="408" y="-12"/>
    </contour>
    <contour>
      <point x="280" y="126" type="curve" smooth="yes"/>
      <point x="332" y="126"/>
      <point x="352" y="174"/>
      <point x="352" y="250" type="curve" smooth="yes"/>
      <point x="352" y="326"/>
      <point x="332" y="374"/>
      <point x="280" y="374" type="curve" smooth="yes"/>
      <point x="228" y="374"/>
      <point x="208" y="326"/>
      <point x="208" y="250" type="curve" smooth="yes"/>
      <point x="208" y="174"/>
      <point x="228" y="126"/>
    </contour>
    <contour>
      <point x="86" y="618" type="line"/>
      <point x="192" y="746" type="line"/>
      <point x="368" y="746" type="line"/>
      <point x="474" y="618" type="line"/>
      <point x="410" y="558" type="line"/>
      <point x="282" y="642" type="line"/>
      <point x="278" y="642" type="line"/>
      <point x="150" y="558" type="line"/>
    </contour>
  </outline>
</glyph>
<glyph name="otilde" format="1">
  <advance width="560"/>
  <unicode hex="00F5"/>
  <outline>
    <contour>
      <point x="280" y="-12" type="curve" smooth="yes"/>
      <point x="152" y="-12"/>
      <point x="32" y="84"/>
      <point x="32" y="250" type="curve" smooth="yes"/>
      <point x="32" y="416"/>
      <point x="152" y="512"/>
      <point x="280" y="512" type="curve" smooth="yes"/>
      <point x="408" y="512"/>
      <point x="528" y="416"/>
      <point x="528" y="250" type="curve" smooth="yes"/>
      <point x="528" y="84"/>
      <point x="408" y="-12"/>
    </contour>
    <contour>
      <point x="280" y="126" type="curve" smooth="yes"/>
      <point x="332" y="126"/>
      <point x="352" y="174"/>
      <point x="352" y="250" type="curve" smooth="yes"/>
      <point x="352" y="326"/>
      <point x="332" y="374"/>
      <point x="280" y="374" type="curve" smooth="yes"/>
      <point x="228" y="374"/>
      <point x="208" y="326"/>
      <point x="208" y="250" type="curve" smooth="yes"/>
      <point x="208" y="174"/>
      <point x="228" y="126"/>
    </contour>
    <contour>
      <point x="344" y="572" type="curve" smooth="yes"/>
      <point x="284" y="572"/>
      <point x="246" y="628"/>
      <point x="220" y="628" type="curve" smooth="yes"/>
      <point x="204" y="628"/>
      <point x="194" y="618"/>
      <point x="190" y="582" type="curve"/>
      <point x="84" y="588" type="line"/>
      <point x="86" y="701"/>
      <point x="136" y="746"/>
      <point x="216" y="746" type="curve" smooth="yes"/>
      <point x="276" y="746"/>
      <point x="314" y="690"/>
      <point x="340" y="690" type="curve" smooth="yes"/>
      <point x="356" y="690"/>
      <point x="366" y="700"/>
      <point x="370" y="736" type="curve"/>
      <point x="476" y="730" type="line"/>
      <point x="474" y="617"/>
      <point x="424" y="572"/>
    </contour>
  </outline>
</glyph>
<glyph name="oslash" format="1">
  <advance width="560"/>
  <unicode hex="00F8"/>
  <outline>
    <contour>
      <point x="280" y="522" type="move" name="Anchor-0"/>
    </contour>
    <contour>
      <point x="280" y="-12" type="curve" smooth="yes"/>
      <point x="233" y="-12"/>
      <point x="188" y="1"/>
      <point x="149" y="25" type="curve"/>
      <point x="108" y="-26" type="line"/>
      <point x="46" y="22" type="line"/>
      <point x="90" y="77" type="line"/>
      <point x="54" y="120"/>
      <point x="32" y="179"/>
      <point x="32" y="250" type="curve" smooth="yes"/>
      <point x="32" y="416"/>
      <point x="152" y="512"/>
      <point x="280" y="512" type="curve" smooth="yes"/>
      <point x="326" y="512"/>
      <point x="371" y="500"/>
      <point x="410" y="476" type="curve"/>
      <point x="452" y="528" type="line"/>
      <point x="514" y="480" type="line"/>
      <point x="469" y="424" type="line"/>
      <point x="505" y="381"/>
      <point x="528" y="322"/>
      <point x="528" y="250" type="curve" smooth="yes"/>
      <point x="528" y="84"/>
      <point x="408" y="-12"/>
    </contour>
    <contour>
      <point x="198" y="260" type="curve" smooth="yes"/>
      <point x="198" y="243"/>
      <point x="199" y="228"/>
      <point x="200" y="215" type="curve"/>
      <point x="323" y="367" type="line"/>
      <point x="311" y="376"/>
      <point x="297" y="380"/>
      <point x="280" y="380" type="curve" smooth="yes"/>
      <point x="228" y="380"/>
      <point x="198" y="332"/>
    </contour>
    <contour>
      <point x="280" y="120" type="curve" smooth="yes"/>
      <point x="332" y="120"/>
      <point x="362" y="168"/>
      <point x="362" y="240" type="curve" smooth="yes"/>
      <point x="362" y="258"/>
      <point x="361" y="273"/>
      <point x="359" y="287" type="curve"/>
      <point x="236" y="134" type="line"/>
      <point x="248" y="124"/>
      <point x="263" y="120"/>
    </contour>
  </outline>
</glyph>
<glyph name="uacute" format="1">
  <advance width="578"/>
  <unicode hex="00FA"/>
  <outline>
    <contour>
      <point x="210" y="-12" type="curve" smooth="yes"/>
      <point x="100" y="-12"/>
      <point x="54" y="68"/>
      <point x="54" y="192" type="curve" smooth="yes"/>
      <point x="54" y="500" type="line"/>
      <point x="226" y="500" type="line"/>
      <point x="226" y="214" type="line" smooth="yes"/>
      <point x="226" y="150"/>
      <point x="242" y="134"/>
      <point x="276" y="134" type="curve" smooth="yes"/>
      <point x="308" y="134"/>
      <point x="326" y="146"/>
      <point x="348" y="178" type="curve"/>
      <point x="348" y="500" type="line"/>
      <point x="520" y="500" type="line"/>
      <point x="520" y="0" type="line"/>
      <point x="380" y="0" type="line"/>
      <point x="368" y="66" type="line"/>
      <point x="364" y="66" type="line"/>
      <point x="324" y="18"/>
      <point x="278" y="-12"/>
    </contour>
    <contour>
      <point x="310" y="572" type="line"/>
      <point x="226" y="656" type="line"/>
      <point x="384" y="844" type="line"/>
      <point x="500" y="730" type="line"/>
    </contour>
  </outline>
</glyph>
<glyph name="udieresis" format="1">
  <advance width="578"/>
  <unicode hex="00FC"/>
  <outline>
    <contour>
      <point x="210" y="-12" type="curve" smooth="yes"/>
      <point x="100" y="-12"/>
      <point x="54" y="68"/>
      <point x="54" y="192" type="curve" smooth="yes"/>
      <point x="54" y="500" type="line"/>
      <point x="226" y="500" type="line"/>
      <point x="226" y="214" type="line" smooth="yes"/>
      <point x="226" y="150"/>
      <point x="242" y="134"/>
      <point x="276" y="134" type="curve" smooth="yes"/>
      <point x="308" y="134"/>
      <point x="326" y="146"/>
      <point x="348" y="178" type="curve"/>
      <point x="348" y="500" type="line"/>
      <point x="520" y="500" type="line"/>
      <point x="520" y="0" type="line"/>
      <point x="380" y="0" type="line"/>
      <point x="368" y="66" type="line"/>
      <point x="364" y="66" type="line"/>
      <point x="324" y="18"/>
      <point x="278" y="-12"/>
    </contour>
    <contour>
      <point x="176" y="562" type="curve" smooth="yes"/>
      <point x="129" y="562"/>
      <point x="96" y="597"/>
      <point x="96" y="642" type="curve" smooth="yes"/>
      <point x="96" y="687"/>
      <point x="129" y="722"/>
      <point x="176" y="722" type="curve" smooth="yes"/>
      <point x="223" y="722"/>
      <point x="256" y="687"/>
      <point x="256" y="642" type="curve" smooth="yes"/>
      <point x="256" y="597"/>
      <point x="223" y="562"/>
    </contour>
    <contour>
      <point x="404" y="562" type="curve" smooth="yes"/>
      <point x="357" y="562"/>
      <point x="324" y="597"/>
      <point x="324" y="642" type="curve" smooth="yes"/>
      <point x="324" y="687"/>
      <point x="357" y="722"/>
      <point x="404" y="722" type="curve" smooth="yes"/>
      <point x="451" y="722"/>
      <point x="484" y="687"/>
      <point x="484" y="642" type="curve" smooth="yes"/>
      <point x="484" y="597"/>
      <point x="451" y="562"/>
    </contour>
  </outline>
</glyph>
<glyph name="thorn" format="1">
  <advance width="580"/>
  <unicode hex="00FE"/>
  <outline>
    <contour>
      <point x="297" y="-22" type="move" name="Anchor-4"/>
    </contour>
    <contour>
      <point x="146" y="730" type="move" name="Anchor-0"/>
    </contour>
    <contour>
      <point x="58" y="-176" type="line"/>
      <point x="58" y="696" type="line"/>
      <point x="230" y="696" type="line"/>
      <point x="230" y="533" type="line"/>
      <point x="226" y="468" type="line"/>
      <point x="257" y="496"/>
      <point x="298" y="512"/>
      <point x="340" y="512" type="curve" smooth="yes"/>
      <point x="464" y="512"/>
      <point x="544" y="412"/>
      <point x="544" y="258" type="curve" smooth="yes"/>
      <point x="544" y="86"/>
      <point x="442" y="-12"/>
      <point x="336" y="-12" type="curve" smooth="yes"/>
      <point x="288" y="-12"/>
      <point x="256" y="4"/>
      <point x="226" y="32" type="curve"/>
      <point x="230" y="-38" type="line"/>
      <point x="230" y="-176" type="line"/>
    </contour>
    <contour>
      <point x="294" y="128" type="curve" smooth="yes"/>
      <point x="334" y="128"/>
      <point x="368" y="160"/>
      <point x="368" y="256" type="curve" smooth="yes"/>
      <point x="368" y="338"/>
      <point x="344" y="372"/>
      <point x="298" y="372" type="curve" smooth="yes"/>
      <point x="272" y="372"/>
      <point x="252" y="362"/>
      <point x="230" y="336" type="curve"/>
      <point x="230" y="152" type="line"/>
      <point x="250" y="134"/>
      <point x="272" y="128"/>
    </contour>
  </outline>
</glyph>
<glyph name="ydieresis" format="1">
  <advance width="542"/>
  <unicode hex="00FF"/>
  <outline>
    <contour>
      <point x="132" y="-188" type="curve" smooth="yes"/>
      <point x="98" y="-188"/>
      <point x="78" y="-184"/>
      <point x="56" y="-178" type="curve"/>
      <point x="86" y="-48" type="line"/>
      <point x="95" y="-50"/>
      <point x="108" y="-54"/>
      <point x="118" y="-54" type="curve" smooth="yes"/>
      <point x="164" y="-54"/>
      <point x="186" y="-34"/>
      <point x="196" y="-4" type="curve" smooth="yes"/>
      <point x="202" y="18" type="line"/>
      <point x="12" y="500" type="line"/>
      <point x="184" y="500" type="line"/>
      <point x="244" y="308" type="line" smooth="yes"/>
      <point x="258" y="262"/>
      <point x="268" y="216"/>
      <point x="280" y="166" type="curve"/>
      <point x="284" y="166" type="line"/>
      <point x="294" y="214"/>
      <point x="304" y="260"/>
      <point x="316" y="308" type="curve" smooth="yes"/>
      <point x="366" y="500" type="line"/>
      <point x="530" y="500" type="line"/>
      <point x="362" y="8" type="line"/>
      <point x="310" y="-127"/>
      <point x="256" y="-188"/>
    </contour>
    <contour>
      <point x="162" y="562" type="curve" smooth="yes"/>
      <point x="115" y="562"/>
      <point x="82" y="597"/>
      <point x="82" y="642" type="curve" smooth="yes"/>
      <point x="82" y="687"/>
      <point x="115" y="722"/>
      <point x="162" y="722" type="curve" smooth="yes"/>
      <point x="209" y="722"/>
      <point x="242" y="687"/>
      <point x="242" y="642" type="curve" smooth="yes"/>
      <point x="242" y="597"/>
      <point x="209" y="562"/>
    </contour>
    <contour>
      <point x="390" y="562" type="curve" smooth="yes"/>
      <point x="343" y="562"/>
      <point x="310" y="597"/>
      <point x="310" y="642" type="curve" smooth="yes"/>
      <point x="310" y="687"/>
      <point x="343" y="722"/>
      <point x="390" y="722" type="curve" smooth="yes"/>
      <point x="437" y="722"/>
      <point x="470" y="687"/>
      <point x="470" y="642" type="curve" smooth="yes"/>
      <point x="470" y="597"/>
      <point x="437" y="562"/>
    </contour>
  </outline>
</glyph>
<glyph name="Aogonek" format="1">
  <advance width="584"/>
  <unicode hex="0104"/>
  <outline>
    <contour>
      <point x="292" y="672" type="move" name="Anchor-1"/>
    </contour>
    <contour>
      <point x="498" y="-228" type="curve" smooth="yes"/>
      <point x="430" y="-228"/>
      <point x="376" y="-192"/>
      <point x="376" y="-130" type="curve" smooth="yes"/>
      <point x="376" y="-65"/>
      <point x="428" y="-17"/>
      <point x="460" y="0" type="curve"/>
      <point x="412" y="0" type="line"/>
      <point x="380" y="138" type="line"/>
      <point x="198" y="138" type="line"/>
      <point x="166" y="0" type="line"/>
      <point x="-10" y="0" type="line"/>
      <point x="188" y="650" type="line"/>
      <point x="396" y="650" type="line"/>
      <point x="594" y="0" type="line"/>
      <point x="536" y="0"/>
      <point x="500" y="-44"/>
      <point x="500" y="-84" type="curve" smooth="yes"/>
      <point x="500" y="-106"/>
      <point x="516" y="-118"/>
      <point x="536" y="-118" type="curve" smooth="yes"/>
      <point x="551" y="-118"/>
      <point x="565" y="-111"/>
      <point x="574" y="-104" type="curve"/>
      <point x="612" y="-190" type="line"/>
      <point x="584" y="-212"/>
      <point x="536" y="-228"/>
    </contour>
    <contour>
      <point x="240" y="316" type="curve" smooth="yes"/>
      <point x="229" y="271" type="line"/>
      <point x="349" y="271" type="line"/>
      <point x="338" y="316" type="line" smooth="yes"/>
      <point x="322" y="378"/>
      <point x="306" y="457"/>
      <point x="290" y="522" type="curve"/>
      <point x="286" y="522" type="line"/>
      <point x="272" y="456"/>
      <point x="256" y="378"/>
    </contour>
  </outline>
</glyph>
<glyph name="aogonek" format="1">
  <advance width="536"/>
  <unicode hex="0105"/>
  <outline>
    <contour>
      <point x="285" y="522" type="move" name="Anchor-0"/>
    </contour>
    <contour>
      <point x="392" y="-212" type="curve" smooth="yes"/>
      <point x="330" y="-212"/>
      <point x="280" y="-180"/>
      <point x="280" y="-118" type="curve" smooth="yes"/>
      <point x="280" y="-58"/>
      <point x="324" y="-18"/>
      <point x="344" y="-4" type="curve"/>
      <point x="330" y="48" type="line"/>
      <point x="326" y="48" type="line"/>
      <point x="286" y="12"/>
      <point x="242" y="-12"/>
      <point x="188" y="-12" type="curve" smooth="yes"/>
      <point x="94" y="-12"/>
      <point x="38" y="60"/>
      <point x="38" y="142" type="curve" smooth="yes"/>
      <point x="38" y="246"/>
      <point x="118" y="304"/>
      <point x="310" y="324" type="curve"/>
      <point x="306" y="360"/>
      <point x="284" y="376"/>
      <point x="240" y="376" type="curve" smooth="yes"/>
      <point x="204" y="376"/>
      <point x="166" y="362"/>
      <point x="114" y="334" type="curve"/>
      <point x="54" y="446" type="line"/>
      <point x="124" y="488"/>
      <point x="196" y="512"/>
      <point x="274" y="512" type="curve" smooth="yes"/>
      <point x="404" y="512"/>
      <point x="482" y="442"/>
      <point x="482" y="278" type="curve" smooth="yes"/>
      <point x="482" y="0" type="line"/>
      <point x="414" y="-16"/>
      <point x="394" y="-50"/>
      <point x="394" y="-78" type="curve" smooth="yes"/>
      <point x="394" y="-102"/>
      <point x="414" y="-112"/>
      <point x="434" y="-112" type="curve" smooth="yes"/>
      <point x="446" y="-112"/>
      <point x="460" y="-106"/>
      <point x="468" y="-100" type="curve"/>
      <point x="502" y="-176" type="line"/>
      <point x="474" y="-198"/>
      <point x="426" y="-212"/>
    </contour>
    <contour>
      <point x="248" y="120" type="curve" smooth="yes"/>
      <point x="276" y="120"/>
      <point x="292" y="134"/>
      <point x="310" y="154" type="curve"/>
      <point x="310" y="222" type="line"/>
      <point x="228" y="210"/>
      <point x="202" y="184"/>
      <point x="202" y="156" type="curve" smooth="yes"/>
      <point x="202" y="133"/>
      <point x="218" y="120"/>
    </contour>
  </outline>
</glyph>
<glyph name="cdotaccent" format="1">
  <advance width="472"/>
  <unicode hex="010B"/>
  <outline>
    <contour>
      <point x="284" y="-12" type="curve" smooth="yes"/>
      <point x="142" y="-12"/>
      <point x="32" y="84"/>
      <point x="32" y="250" type="curve" smooth="yes"/>
      <point x="32" y="416"/>
      <point x="158" y="512"/>
      <point x="300" y="512" type="curve" smooth="yes"/>
      <point x="360" y="512"/>
      <point x="408" y="492"/>
      <point x="446" y="460" type="curve"/>
      <point x="366" y="350" type="line"/>
      <point x="344" y="368"/>
      <point x="328" y="374"/>
      <point x="310" y="374" type="curve" smooth="yes"/>
      <point x="246" y="374"/>
      <point x="208" y="326"/>
      <point x="208" y="250" type="curve" smooth="yes"/>
      <point x="208" y="174"/>
      <point x="250" y="126"/>
      <point x="304" y="126" type="curve" smooth="yes"/>
      <point x="332" y="126"/>
      <point x="360" y="140"/>
      <point x="384" y="158" type="curve"/>
      <point x="450" y="46" type="line"/>
      <point x="400" y="2"/>
      <point x="336" y="-12"/>
    </contour>
    <contour>
      <point x="295" y="562" type="curve" smooth="yes"/>
      <point x="241" y="562"/>
      <point x="203" y="598"/>
      <point x="203" y="648" type="curve" smooth="yes"/>
      <point x="203" y="698"/>
      <point x="241" y="734"/>
      <point x="295" y="734" type="curve" smooth="yes"/>
      <point x="349" y="734"/>
      <point x="387" y="698"/>
      <point x="387" y="648" type="curve" smooth="yes"/>
      <point x="387" y="598"/>
      <point x="349" y="562"/>
    </contour>
  </outline>
</glyph>
<glyph name="Ccaron" format="1">
  <advance width="586"/>
  <unicode hex="010C"/>
  <outline>
    <contour>
      <point x="354" y="-12" type="curve" smooth="yes"/>
      <point x="188" y="-12"/>
      <point x="44" y="98"/>
      <point x="44" y="320" type="curve" smooth="yes"/>
      <point x="44" y="538"/>
      <point x="194" y="662"/>
      <point x="358" y="662" type="curve" smooth="yes"/>
      <point x="444" y="662"/>
      <point x="514" y="622"/>
      <point x="560" y="576" type="curve"/>
      <point x="470" y="466" type="line"/>
      <point x="438" y="494"/>
      <point x="406" y="514"/>
      <point x="362" y="514" type="curve" smooth="yes"/>
      <point x="286" y="514"/>
      <point x="220" y="444"/>
      <point x="220" y="326" type="curve" smooth="yes"/>
      <point x="220" y="204"/>
      <point x="276" y="136"/>
      <point x="360" y="136" type="curve" smooth="yes"/>
      <point x="410" y="136"/>
      <point x="450" y="162"/>
      <point x="478" y="192" type="curve"/>
      <point x="568" y="84" type="line"/>
      <point x="513" y="20"/>
      <point x="438" y="-12"/>
    </contour>
    <contour>
      <point x="254" y="700" type="line"/>
      <point x="170" y="810" type="line"/>
      <point x="244" y="854" type="line"/>
      <point x="346" y="774" type="line"/>
      <point x="350" y="774" type="line"/>
      <point x="452" y="854" type="line"/>
      <point x="526" y="810" type="line"/>
      <point x="442" y="700" type="line"/>
    </contour>
  </outline>
</glyph>
<glyph name="ccaron" format="1">
  <advance width="472"/>
  <unicode hex="010D"/>
  <outline>
    <contour>
      <point x="284" y="-12" type="curve" smooth="yes"/>
      <point x="142" y="-12"/>
      <point x="32" y="84"/>
      <point x="32" y="250" type="curve" smooth="yes"/>
      <point x="32" y="416"/>
      <point x="158" y="512"/>
      <point x="300" y="512" type="curve" smooth="yes"/>
      <point x="360" y="512"/>
      <point x="408" y="492"/>
      <point x="446" y="460" type="curve"/>
      <point x="366" y="350" type="line"/>
      <point x="344" y="368"/>
      <point x="328" y="374"/>
      <point x="310" y="374" type="curve" smooth="yes"/>
      <point x="246" y="374"/>
      <point x="208" y="326"/>
      <point x="208" y="250" type="curve" smooth="yes"/>
      <point x="208" y="174"/>
      <point x="250" y="126"/>
      <point x="304" y="126" type="curve" smooth="yes"/>
      <point x="332" y="126"/>
      <point x="360" y="140"/>
      <point x="384" y="158" type="curve"/>
      <point x="450" y="46" type="line"/>
      <point x="400" y="2"/>
      <point x="336" y="-12"/>
    </contour>
    <contour>
      <point x="207" y="578" type="line"/>
      <point x="101" y="706" type="line"/>
      <point x="165" y="766" type="line"/>
      <point x="293" y="682" type="line"/>
      <point x="297" y="682" type="line"/>
      <point x="425" y="766" type="line"/>
      <point x="489" y="706" type="line"/>
      <point x="383" y="578" type="line"/>
    </contour>
  </outline>
</glyph>
<glyph name="Dcaron" format="1">
  <advance width="642"/>
  <unicode hex="010E"/>
  <outline>
    <contour>
      <point x="72" y="0" type="line"/>
      <point x="72" y="650" type="line"/>
      <point x="264" y="650" type="line" smooth="yes"/>
      <point x="462" y="650"/>
      <point x="598" y="558"/>
      <point x="598" y="328" type="curve" smooth="yes"/>
      <point x="598" y="98"/>
      <point x="462" y="0"/>
      <point x="274" y="0" type="curve" smooth="yes"/>
    </contour>
    <contour>
      <point x="244" y="138" type="line"/>
      <point x="254" y="138" type="line" smooth="yes"/>
      <point x="348" y="138"/>
      <point x="422" y="176"/>
      <point x="422" y="328" type="curve" smooth="yes"/>
      <point x="422" y="480"/>
      <point x="348" y="512"/>
      <point x="254" y="512" type="curve" smooth="yes"/>
      <point x="244" y="512" type="line"/>
    </contour>
    <contour>
      <point x="228" y="700" type="line"/>
      <point x="144" y="810" type="line"/>
      <point x="218" y="854" type="line"/>
      <point x="320" y="774" type="line"/>
      <point x="324" y="774" type="line"/>
      <point x="426" y="854" type="line"/>
      <point x="500" y="810" type="line"/>
      <point x="416" y="700" type="line"/>
    </contour>
  </outline>
</glyph>
<glyph name="dcroat" format="1">
  <advance width="580"/>
  <unicode hex="0111"/>
  <outline>
    <contour>
      <point x="240" y="-12" type="curve" smooth="yes"/>
      <point x="116" y="-12"/>
      <point x="36" y="84"/>
      <point x="36" y="226" type="curve" smooth="yes"/>
      <point x="36" y="366"/>
      <point x="138" y="460"/>
      <point x="240" y="460" type="curve" smooth="yes"/>
      <point x="294" y="460"/>
      <point x="326" y="440"/>
      <point x="356" y="410" type="curve"/>
      <point x="350" y="482" type="line"/>
      <point x="350" y="550" type="line"/>
      <point x="206" y="550" type="line"/>
      <point x="206" y="630" type="line"/>
      <point x="350" y="630" type="line"/>
      <point x="350" y="696" type="line"/>
      <point x="522" y="696" type="line"/>
      <point x="522" y="630" type="line"/>
      <point x="588" y="630" type="line"/>
      <point x="588" y="556" type="line"/>
      <point x="522" y="551" type="line"/>
      <point x="522" y="0" type="line"/>
      <point x="378" y="0" type="line"/>
      <point x="368" y="40" type="line"/>
      <point x="364" y="40" type="line"/>
      <point x="331" y="8"/>
      <point x="286" y="-12"/>
    </contour>
    <contour>
      <point x="286" y="128" type="curve" smooth="yes"/>
      <point x="312" y="128"/>
      <point x="332" y="136"/>
      <point x="350" y="164" type="curve"/>
      <point x="350" y="296" type="line"/>
      <point x="330" y="314"/>
      <point x="304" y="320"/>
      <point x="282" y="320" type="curve" smooth="yes"/>
      <point x="246" y="320"/>
      <point x="212" y="292"/>
      <point x="212" y="228" type="curve" smooth="yes"/>
      <point x="212" y="160"/>
      <point x="240" y="128"/>
    </contour>
  </outline>
</glyph>
<glyph name="Ebreve" format="1">
  <advance width="556"/>
  <unicode hex="0114"/>
  <outline>
    <contour>
      <point x="72" y="0" type="line"/>
      <point x="72" y="650" type="line"/>
      <point x="492" y="650" type="line"/>
      <point x="492" y="506" type="line"/>
      <point x="244" y="506" type="line"/>
      <point x="244" y="404" type="line"/>
      <point x="456" y="404" type="line"/>
      <point x="456" y="260" type="line"/>
      <point x="244" y="260" type="line"/>
      <point x="244" y="144" type="line"/>
      <point x="502" y="144" type="line"/>
      <point x="502" y="0" type="line"/>
    </contour>
    <contour>
      <point x="290" y="694" type="curve" smooth="yes"/>
      <point x="188" y="694"/>
      <point x="130" y="738"/>
      <point x="120" y="834" type="curve"/>
      <point x="212" y="850" type="line"/>
      <point x="221" y="811"/>
      <point x="250" y="792"/>
      <point x="290" y="792" type="curve" smooth="yes"/>
      <point x="330" y="792"/>
      <point x="359" y="811"/>
      <point x="368" y="850" type="curve"/>
      <point x="460" y="834" type="line"/>
      <point x="450" y="738"/>
      <point x="392" y="694"/>
    </contour>
  </outline>
</glyph>
<glyph name="ebreve" format="1">
  <advance width="526"/>
  <unicode hex="0115"/>
  <outline>
    <contour>
      <point x="290" y="-12" type="curve" smooth="yes"/>
      <point x="144" y="-12"/>
      <point x="32" y="84"/>
      <point x="32" y="250" type="curve" smooth="yes"/>
      <point x="32" y="412"/>
      <point x="150" y="512"/>
      <point x="272" y="512" type="curve" smooth="yes"/>
      <point x="420" y="512"/>
      <point x="490" y="404"/>
      <point x="490" y="270" type="curve" smooth="yes"/>
      <point x="490" y="240"/>
      <point x="486" y="210"/>
      <point x="483" y="198" type="curve"/>
      <point x="198" y="198" type="line"/>
      <point x="214" y="138"/>
      <point x="258" y="118"/>
      <point x="314" y="118" type="curve" smooth="yes"/>
      <point x="348" y="118"/>
      <point x="380" y="128"/>
      <point x="416" y="148" type="curve"/>
      <point x="472" y="46" type="line"/>
      <point x="418" y="8"/>
      <point x="346" y="-12"/>
    </contour>
    <contour>
      <point x="196" y="310" type="curve"/>
      <point x="344" y="310" type="line"/>
      <point x="344" y="348"/>
      <point x="328" y="382"/>
      <point x="276" y="382" type="curve" smooth="yes"/>
      <point x="238" y="382"/>
      <point x="206" y="360"/>
    </contour>
    <contour>
      <point x="272" y="572" type="curve" smooth="yes"/>
      <point x="155" y="572"/>
      <point x="100" y="638"/>
      <point x="98" y="732" type="curve"/>
      <point x="194" y="748" type="line"/>
      <point x="200" y="708"/>
      <point x="224" y="678"/>
      <point x="272" y="678" type="curve" smooth="yes"/>
      <point x="320" y="678"/>
      <point x="344" y="708"/>
      <point x="350" y="748" type="curve"/>
      <point x="446" y="732" type="line"/>
      <point x="444" y="638"/>
      <point x="390" y="572"/>
    </contour>
  </outline>
</glyph>
<glyph name="Edotaccent" format="1">
  <advance width="556"/>
  <unicode hex="0116"/>
  <outline>
    <contour>
      <point x="72" y="0" type="line"/>
      <point x="72" y="650" type="line"/>
      <point x="492" y="650" type="line"/>
      <point x="492" y="506" type="line"/>
      <point x="244" y="506" type="line"/>
      <point x="244" y="404" type="line"/>
      <point x="456" y="404" type="line"/>
      <point x="456" y="260" type="line"/>
      <point x="244" y="260" type="line"/>
      <point x="244" y="144" type="line"/>
      <point x="502" y="144" type="line"/>
      <point x="502" y="0" type="line"/>
    </contour>
    <contour>
      <point x="290" y="696" type="curve" smooth="yes"/>
      <point x="234" y="696"/>
      <point x="194" y="732"/>
      <point x="194" y="782" type="curve" smooth="yes"/>
      <point x="194" y="832"/>
      <point x="234" y="868"/>
      <point x="290" y="868" type="curve" smooth="yes"/>
      <point x="346" y="868"/>
      <point x="386" y="832"/>
      <point x="386" y="782" type="curve" smooth="yes"/>
      <point x="386" y="732"/>
      <point x="346" y="696"/>
    </contour>
  </outline>
</glyph>
<glyph name="Eogonek" format="1">
  <advance width="556"/>
  <unicode hex="0118"/>
  <outline>
    <contour>
      <point x="290" y="672" type="move" name="Anchor-1"/>
    </contour>
    <contour>
      <point x="410" y="-228" type="curve" smooth="yes"/>
      <point x="342" y="-228"/>
      <point x="288" y="-192"/>
      <point x="288" y="-130" type="curve" smooth="yes"/>
      <point x="288" y="-67"/>
      <point x="335" y="-20"/>
      <point x="368" y="0" type="curve"/>
      <point x="72" y="0" type="line"/>
      <point x="72" y="650" type="line"/>
      <point x="492" y="650" type="line"/>
      <point x="492" y="506" type="line"/>
      <point x="244" y="506" type="line"/>
      <point x="244" y="404" type="line"/>
      <point x="456" y="404" type="line"/>
      <point x="456" y="260" type="line"/>
      <point x="244" y="260" type="line"/>
      <point x="244" y="144" type="line"/>
      <point x="502" y="144" type="line"/>
      <point x="502" y="0" type="line"/>
      <point x="496" y="0" type="line" smooth="yes"/>
      <point x="450" y="0"/>
      <point x="412" y="-43"/>
      <point x="412" y="-84" type="curve" smooth="yes"/>
      <point x="412" y="-108"/>
      <point x="432" y="-118"/>
      <point x="452" y="-118" type="curve" smooth="yes"/>
      <point x="464" y="-118"/>
      <point x="477" y="-110"/>
      <point x="486" y="-104" type="curve"/>
      <point x="524" y="-190" type="line"/>
      <point x="496" y="-212"/>
      <point x="448" y="-228"/>
    </contour>
  </outline>
</glyph>
<glyph name="eogonek" format="1">
  <advance width="526"/>
  <unicode hex="0119"/>
  <outline>
    <contour>
      <point x="272" y="522" type="move" name="Anchor-0"/>
    </contour>
    <contour>
      <point x="364" y="-212" type="curve" smooth="yes"/>
      <point x="302" y="-212"/>
      <point x="254" y="-180"/>
      <point x="254" y="-118" type="curve" smooth="yes"/>
      <point x="254" y="-70"/>
      <point x="284" y="-32"/>
      <point x="308" y="-10" type="curve"/>
      <point x="298" y="-12"/>
      <point x="294" y="-12"/>
      <point x="290" y="-12" type="curve" smooth="yes"/>
      <point x="144" y="-12"/>
      <point x="32" y="84"/>
      <point x="32" y="250" type="curve" smooth="yes"/>
      <point x="32" y="412"/>
      <point x="150" y="512"/>
      <point x="272" y="512" type="curve" smooth="yes"/>
      <point x="420" y="512"/>
      <point x="490" y="404"/>
      <point x="490" y="270" type="curve" smooth="yes"/>
      <point x="490" y="240"/>
      <point x="486" y="210"/>
      <point x="483" y="198" type="curve"/>
      <point x="198" y="198" type="line"/>
      <point x="214" y="138"/>
      <point x="258" y="118"/>
      <point x="314" y="118" type="curve" smooth="yes"/>
      <point x="348" y="118"/>
      <point x="380" y="128"/>
      <point x="416" y="148" type="curve"/>
      <point x="472" y="46" type="line"/>
      <point x="384" y="-14"/>
      <point x="366" y="-40"/>
      <point x="366" y="-78" type="curve" smooth="yes"/>
      <point x="366" y="-101"/>
      <point x="384" y="-112"/>
      <point x="407" y="-112" type="curve" smooth="yes"/>
      <point x="419" y="-112"/>
      <point x="431" y="-106"/>
      <point x="440" y="-100" type="curve"/>
      <point x="474" y="-176" type="line"/>
      <point x="446" y="-198"/>
      <point x="398" y="-212"/>
    </contour>
    <contour>
      <point x="196" y="310" type="curve"/>
      <point x="344" y="310" type="line"/>
      <point x="344" y="348"/>
      <point x="328" y="382"/>
      <point x="276" y="382" type="curve" smooth="yes"/>
      <point x="238" y="382"/>
      <point x="206" y="360"/>
    </contour>
  </outline>
</glyph>
<glyph name="uni0122" format="1">
  <advance width="646"/>
  <unicode hex="0122"/>
  <outline>
    <contour>
      <point x="372" y="-12" type="curve" smooth="yes"/>
      <point x="190" y="-12"/>
      <point x="44" y="98"/>
      <point x="44" y="320" type="curve" smooth="yes"/>
      <point x="44" y="538"/>
      <point x="194" y="662"/>
      <point x="368" y="662" type="curve" smooth="yes"/>
      <point x="464" y="662"/>
      <point x="534" y="622"/>
      <point x="580" y="576" type="curve"/>
      <point x="490" y="466" type="line"/>
      <point x="458" y="494"/>
      <point x="426" y="514"/>
      <point x="374" y="514" type="curve" smooth="yes"/>
      <point x="286" y="514"/>
      <point x="220" y="444"/>
      <point x="220" y="326" type="curve" smooth="yes"/>
      <point x="220" y="204"/>
      <point x="274" y="136"/>
      <point x="390" y="136" type="curve" smooth="yes"/>
      <point x="408" y="136"/>
      <point x="428" y="140"/>
      <point x="440" y="148" type="curve"/>
      <point x="440" y="238" type="line"/>
      <point x="344" y="238" type="line"/>
      <point x="344" y="378" type="line"/>
      <point x="592" y="378" type="line"/>
      <point x="592" y="68" type="line"/>
      <point x="546" y="24"/>
      <point x="464" y="-12"/>
    </contour>
    <contour>
      <point x="260" y="-244" type="curve"/>
      <point x="248" y="-178" type="line"/>
      <point x="324" y="-174"/>
      <point x="348" y="-164"/>
      <point x="348" y="-142" type="curve" smooth="yes"/>
      <point x="348" y="-126"/>
      <point x="332" y="-114"/>
      <point x="288" y="-110" type="curve"/>
      <point x="320" y="-50" type="line"/>
      <point x="434" y="-58"/>
      <point x="470" y="-86"/>
      <point x="470" y="-136" type="curve" smooth="yes"/>
      <point x="470" y="-208"/>
      <point x="392" y="-240"/>
    </contour>
  </outline>
</glyph>
<glyph name="Hcircumflex" format="1">
  <advance width="682"/>
  <unicode hex="0124"/>
  <outline>
    <contour>
      <point x="72" y="0" type="line"/>
      <point x="72" y="650" type="line"/>
      <point x="244" y="650" type="line"/>
      <point x="244" y="408" type="line"/>
      <point x="438" y="408" type="line"/>
      <point x="438" y="650" type="line"/>
      <point x="610" y="650" type="line"/>
      <point x="610" y="0" type="line"/>
      <point x="438" y="0" type="line"/>
      <point x="438" y="258" type="line"/>
      <point x="244" y="258" type="line"/>
      <point x="244" y="0" type="line"/>
    </contour>
    <contour>
      <point x="162" y="724" type="line"/>
      <point x="246" y="834" type="line"/>
      <point x="434" y="834" type="line"/>
      <point x="518" y="724" type="line"/>
      <point x="444" y="680" type="line"/>
      <point x="342" y="760" type="line"/>
      <point x="338" y="760" type="line"/>
      <point x="236" y="680" type="line"/>
    </contour>
  </outline>
</glyph>
<glyph name="Hbar" format="1">
  <advance width="722"/>
  <unicode hex="0126"/>
  <outline>
    <contour>
      <point x="22" y="484" type="line"/>
      <point x="22" y="558" type="line"/>
      <point x="92" y="564" type="line"/>
      <point x="92" y="650" type="line"/>
      <point x="264" y="650" type="line"/>
      <point x="264" y="564" type="line"/>
      <point x="458" y="564" type="line"/>
      <point x="458" y="650" type="line"/>
      <point x="630" y="650" type="line"/>
      <point x="630" y="564" type="line"/>
      <point x="700" y="564" type="line"/>
      <point x="700" y="484" type="line"/>
      <point x="630" y="484" type="line"/>
      <point x="630" y="0" type="line"/>
      <point x="458" y="0" type="line"/>
      <point x="458" y="258" type="line"/>
      <point x="264" y="258" type="line"/>
      <point x="264" y="0" type="line"/>
      <point x="92" y="0" type="line"/>
      <point x="92" y="484" type="line"/>
    </contour>
    <contour>
      <point x="264" y="408" type="line"/>
      <point x="458" y="408" type="line"/>
      <point x="458" y="484" type="line"/>
      <point x="264" y="484" type="line"/>
    </contour>
  </outline>
</glyph>
<glyph name="Itilde" format="1">
  <advance width="316"/>
  <unicode hex="0128"/>
  <outline>
    <contour>
      <point x="72" y="0" type="line"/>
      <point x="72" y="650" type="line"/>
      <point x="244" y="650" type="line"/>
      <point x="244" y="0" type="line"/>
    </contour>
    <contour>
      <point x="228" y="686" type="curve" smooth="yes"/>
      <point x="158" y="686"/>
      <point x="122" y="738"/>
      <point x="94" y="738" type="curve" smooth="yes"/>
      <point x="78" y="738"/>
      <point x="66" y="730"/>
      <point x="62" y="696" type="curve"/>
      <point x="-48" y="704" type="line"/>
      <point x="-42" y="814"/>
      <point x="15" y="856"/>
      <point x="88" y="856" type="curve" smooth="yes"/>
      <point x="158" y="856"/>
      <point x="194" y="804"/>
      <point x="222" y="804" type="curve" smooth="yes"/>
      <point x="238" y="804"/>
      <point x="250" y="812"/>
      <point x="254" y="846" type="curve"/>
      <point x="364" y="838" type="line"/>
      <point x="358" y="728"/>
      <point x="301" y="686"/>
    </contour>
  </outline>
</glyph>
<glyph name="itilde" format="1">
  <advance width="288"/>
  <unicode hex="0129"/>
  <outline>
    <contour>
      <point x="58" y="0" type="line"/>
      <point x="58" y="500" type="line"/>
      <point x="230" y="500" type="line"/>
      <point x="230" y="0" type="line"/>
    </contour>
    <contour>
      <point x="208" y="572" type="curve" smooth="yes"/>
      <point x="148" y="572"/>
      <point x="110" y="628"/>
      <point x="84" y="628" type="curve" smooth="yes"/>
      <point x="68" y="628"/>
      <point x="58" y="618"/>
      <point x="54" y="582" type="curve"/>
      <point x="-52" y="588" type="line"/>
      <point x="-50" y="701"/>
      <point x="0" y="746"/>
      <point x="80" y="746" type="curve" smooth="yes"/>
      <point x="140" y="746"/>
      <point x="178" y="690"/>
      <point x="204" y="690" type="curve" smooth="yes"/>
      <point x="220" y="690"/>
      <point x="230" y="700"/>
      <point x="234" y="736" type="curve"/>
      <point x="340" y="730" type="line"/>
      <point x="338" y="617"/>
      <point x="288" y="572"/>
    </contour>
  </outline>
</glyph>
<glyph name="imacron" format="1">
  <advance width="288"/>
  <unicode hex="012B"/>
  <outline>
    <contour>
      <point x="58" y="0" type="line"/>
      <point x="58" y="500" type="line"/>
      <point x="230" y="500" type="line"/>
      <point x="230" y="0" type="line"/>
    </contour>
    <contour>
      <point x="-10" y="588" type="line"/>
      <point x="-10" y="696" type="line"/>
      <point x="298" y="696" type="line"/>
      <point x="298" y="588" type="line"/>
    </contour>
  </outline>
</glyph>
<glyph name="uni012C" format="1">
  <advance width="316"/>
  <unicode hex="012C"/>
  <outline>
    <contour>
      <point x="72" y="0" type="line"/>
      <point x="72" y="650" type="line"/>
      <point x="244" y="650" type="line"/>
      <point x="244" y="0" type="line"/>
    </contour>
    <contour>
      <point x="158" y="694" type="curve" smooth="yes"/>
      <point x="56" y="694"/>
      <point x="-2" y="738"/>
      <point x="-12" y="834" type="curve"/>
      <point x="80" y="850" type="line"/>
      <point x="89" y="811"/>
      <point x="118" y="792"/>
      <point x="158" y="792" type="curve" smooth="yes"/>
      <point x="198" y="792"/>
      <point x="227" y="811"/>
      <point x="236" y="850" type="curve"/>
      <point x="328" y="834" type="line"/>
      <point x="318" y="738"/>
      <point x="260" y="694"/>
    </contour>
  </outline>
</glyph>
<glyph name="uni012D" format="1">
  <advance width="288"/>
  <unicode hex="012D"/>
  <outline>
    <contour>
      <point x="58" y="0" type="line"/>
      <point x="58" y="500" type="line"/>
      <point x="230" y="500" type="line"/>
      <point x="230" y="0" type="line"/>
    </contour>
    <contour>
      <point x="144" y="572" type="curve" smooth="yes"/>
      <point x="27" y="572"/>
      <point x="-28" y="638"/>
      <point x="-30" y="732" type="curve"/>
      <point x="66" y="748" type="line"/>
      <point x="72" y="708"/>
      <point x="96" y="678"/>
      <point x="144" y="678" type="curve" smooth="yes"/>
      <point x="192" y="678"/>
      <point x="216" y="708"/>
      <point x="222" y="748" type="curve"/>
      <point x="318" y="732" type="line"/>
      <point x="316" y="638"/>
      <point x="262" y="572"/>
    </contour>
  </outline>
</glyph>
<glyph name="iogonek" format="1">
  <advance width="288"/>
  <unicode hex="012F"/>
  <outline>
    <contour>
      <point x="154" y="-212" type="curve" smooth="yes"/>
      <point x="92" y="-212"/>
      <point x="42" y="-180"/>
      <point x="42" y="-118" type="curve" smooth="yes"/>
      <point x="42" y="-59"/>
      <point x="84" y="-17"/>
      <point x="108" y="0" type="curve"/>
      <point x="58" y="0" type="line"/>
      <point x="58" y="500" type="line"/>
      <point x="230" y="500" type="line"/>
      <point x="230" y="0" type="line"/>
      <point x="172" y="-16"/>
      <point x="156" y="-50"/>
      <point x="156" y="-78" type="curve" smooth="yes"/>
      <point x="156" y="-101"/>
      <point x="175" y="-112"/>
      <point x="197" y="-112" type="curve" smooth="yes"/>
      <point x="208" y="-112"/>
      <point x="219" y="-106"/>
      <point x="230" y="-100" type="curve"/>
      <point x="264" y="-176" type="line"/>
      <point x="236" y="-198"/>
      <point x="188" y="-212"/>
    </contour>
    <contour>
      <point x="144" y="562" type="curve" smooth="yes"/>
      <point x="88" y="562"/>
      <point x="48" y="598"/>
      <point x="48" y="648" type="curve" smooth="yes"/>
      <point x="48" y="698"/>
      <point x="88" y="734"/>
      <point x="144" y="734" type="curve" smooth="yes"/>
      <point x="200" y="734"/>
      <point x="240" y="698"/>
      <point x="240" y="648" type="curve" smooth="yes"/>
      <point x="240" y="598"/>
      <point x="200" y="562"/>
    </contour>
  </outline>
</glyph>
<glyph name="Idotaccent" format="1">
  <advance width="316"/>
  <unicode hex="0130"/>
  <outline>
    <contour>
      <point x="72" y="0" type="line"/>
      <point x="72" y="650" type="line"/>
      <point x="244" y="650" type="line"/>
      <point x="244" y="0" type="line"/>
    </contour>
    <contour>
      <point x="158" y="696" type="curve" smooth="yes"/>
      <point x="102" y="696"/>
      <point x="62" y="732"/>
      <point x="62" y="782" type="curve" smooth="yes"/>
      <point x="62" y="832"/>
      <point x="102" y="868"/>
      <point x="158" y="868" type="curve" smooth="yes"/>
      <point x="214" y="868"/>
      <point x="254" y="832"/>
      <point x="254" y="782" type="curve" smooth="yes"/>
      <point x="254" y="732"/>
      <point x="214" y="696"/>
    </contour>
  </outline>
</glyph>
<glyph name="dotlessi" format="1">
  <advance width="288"/>
  <unicode hex="0131"/>
  <outline>
    <contour>
      <point x="190" y="0" type="move" name="Anchor-7"/>
    </contour>
    <contour>
      <point x="144" y="-22" type="move" name="Anchor-4"/>
    </contour>
    <contour>
      <point x="144" y="522" type="move" name="Anchor-0"/>
    </contour>
    <contour>
      <point x="58" y="0" type="line"/>
      <point x="58" y="500" type="line"/>
      <point x="230" y="500" type="line"/>
      <point x="230" y="0" type="line"/>
    </contour>
  </outline>
</glyph>
<glyph name="uni0132" format="1">
  <advance width="632"/>
  <unicode hex="0132"/>
  <outline>
    <contour>
      <point x="72" y="0" type="line"/>
      <point x="72" y="650" type="line"/>
      <point x="244" y="650" type="line"/>
      <point x="244" y="0" type="line"/>
    </contour>
    <contour>
      <point x="366" y="-188" type="curve" smooth="yes"/>
      <point x="320" y="-188"/>
      <point x="294" y="-182"/>
      <point x="272" y="-174" type="curve"/>
      <point x="302" y="-48" type="line"/>
      <point x="316" y="-52"/>
      <point x="326" y="-54"/>
      <point x="338" y="-54" type="curve" smooth="yes"/>
      <point x="374" y="-54"/>
      <point x="388" y="-34"/>
      <point x="388" y="20" type="curve" smooth="yes"/>
      <point x="388" y="650" type="line"/>
      <point x="560" y="650" type="line"/>
      <point x="560" y="26" type="line" smooth="yes"/>
      <point x="560" y="-86"/>
      <point x="516" y="-188"/>
    </contour>
  </outline>
</glyph>
<glyph name="uni0133" format="1">
  <advance width="578"/>
  <unicode hex="0133"/>
  <outline>
    <contour>
      <point x="58" y="0" type="line"/>
      <point x="58" y="500" type="line"/>
      <point x="230" y="500" type="line"/>
      <point x="230" y="0" type="line"/>
    </contour>
    <contour>
      <point x="144" y="562" type="curve" smooth="yes"/>
      <point x="88" y="562"/>
      <point x="48" y="598"/>
      <point x="48" y="648" type="curve" smooth="yes"/>
      <point x="48" y="698"/>
      <point x="88" y="734"/>
      <point x="144" y="734" type="curve" smooth="yes"/>
      <point x="200" y="734"/>
      <point x="240" y="698"/>
      <point x="240" y="648" type="curve" smooth="yes"/>
      <point x="240" y="598"/>
      <point x="200" y="562"/>
    </contour>
    <contour>
      <point x="326" y="-188" type="curve" smooth="yes"/>
      <point x="280" y="-188"/>
      <point x="254" y="-182"/>
      <point x="232" y="-174" type="curve"/>
      <point x="262" y="-48" type="line"/>
      <point x="276" y="-52"/>
      <point x="286" y="-54"/>
      <point x="298" y="-54" type="curve" smooth="yes"/>
      <point x="334" y="-54"/>
      <point x="348" y="-34"/>
      <point x="348" y="20" type="curve" smooth="yes"/>
      <point x="348" y="500" type="line"/>
      <point x="520" y="500" type="line"/>
      <point x="520" y="26" type="line" smooth="yes"/>
      <point x="520" y="-86"/>
      <point x="476" y="-188"/>
    </contour>
    <contour>
      <point x="434" y="562" type="curve" smooth="yes"/>
      <point x="378" y="562"/>
      <point x="338" y="598"/>
      <point x="338" y="648" type="curve" smooth="yes"/>
      <point x="338" y="698"/>
      <point x="378" y="734"/>
      <point x="434" y="734" type="curve" smooth="yes"/>
      <point x="490" y="734"/>
      <point x="530" y="698"/>
      <point x="530" y="648" type="curve" smooth="yes"/>
      <point x="530" y="598"/>
      <point x="490" y="562"/>
    </contour>
  </outline>
</glyph>
<glyph name="Jcircumflex" format="1">
  <advance width="520"/>
  <unicode hex="0134"/>
  <outline>
    <contour>
      <point x="232" y="-12" type="curve" smooth="yes"/>
      <point x="126" y="-12"/>
      <point x="58" y="28"/>
      <point x="10" y="111" type="curve"/>
      <point x="126" y="198" type="line"/>
      <point x="148" y="156"/>
      <point x="180" y="136"/>
      <point x="208" y="136" type="curve" smooth="yes"/>
      <point x="254" y="136"/>
      <point x="280" y="158"/>
      <point x="280" y="240" type="curve" smooth="yes"/>
      <point x="280" y="650" type="line"/>
      <point x="452" y="650" type="line"/>
      <point x="452" y="226" type="line" smooth="yes"/>
      <point x="452" y="96"/>
      <point x="382" y="-12"/>
    </contour>
    <contour>
      <point x="186" y="724" type="line"/>
      <point x="270" y="834" type="line"/>
      <point x="458" y="834" type="line"/>
      <point x="542" y="724" type="line"/>
      <point x="468" y="680" type="line"/>
      <point x="366" y="760" type="line"/>
      <point x="362" y="760" type="line"/>
      <point x="260" y="680" type="line"/>
    </contour>
  </outline>
</glyph>
<glyph name="jcircumflex" format="1">
  <advance width="290"/>
  <unicode hex="0135"/>
  <outline>
    <contour>
      <point x="38" y="-188" type="curve" smooth="yes"/>
      <point x="-8" y="-188"/>
      <point x="-34" y="-182"/>
      <point x="-56" y="-174" type="curve"/>
      <point x="-26" y="-48" type="line"/>
      <point x="-12" y="-52"/>
      <point x="-2" y="-54"/>
      <point x="10" y="-54" type="curve" smooth="yes"/>
      <point x="46" y="-54"/>
      <point x="60" y="-34"/>
      <point x="60" y="20" type="curve" smooth="yes"/>
      <point x="60" y="500" type="line"/>
      <point x="232" y="500" type="line"/>
      <point x="232" y="26" type="line" smooth="yes"/>
      <point x="232" y="-86"/>
      <point x="188" y="-188"/>
    </contour>
    <contour>
      <point x="-48" y="618" type="line"/>
      <point x="58" y="746" type="line"/>
      <point x="234" y="746" type="line"/>
      <point x="340" y="618" type="line"/>
      <point x="276" y="558" type="line"/>
      <point x="148" y="642" type="line"/>
      <point x="144" y="642" type="line"/>
      <point x="16" y="558" type="line"/>
    </contour>
  </outline>
</glyph>
<glyph name="uni0136" format="1">
  <advance width="628"/>
  <unicode hex="0136"/>
  <outline>
    <contour>
      <point x="72" y="0" type="line"/>
      <point x="72" y="650" type="line"/>
      <point x="244" y="650" type="line"/>
      <point x="244" y="408" type="line"/>
      <point x="248" y="408" type="line"/>
      <point x="412" y="650" type="line"/>
      <point x="600" y="650" type="line"/>
      <point x="406" y="386" type="line"/>
      <point x="638" y="0" type="line"/>
      <point x="450" y="0" type="line"/>
      <point x="306" y="250" type="line"/>
      <point x="244" y="162" type="line"/>
      <point x="244" y="0" type="line"/>
    </contour>
    <contour>
      <point x="226" y="-244" type="curve"/>
      <point x="214" y="-178" type="line"/>
      <point x="290" y="-174"/>
      <point x="314" y="-164"/>
      <point x="314" y="-142" type="curve" smooth="yes"/>
      <point x="314" y="-126"/>
      <point x="298" y="-114"/>
      <point x="254" y="-110" type="curve"/>
      <point x="286" y="-50" type="line"/>
      <point x="400" y="-58"/>
      <point x="436" y="-86"/>
      <point x="436" y="-136" type="curve" smooth="yes"/>
      <point x="436" y="-208"/>
      <point x="358" y="-240"/>
    </contour>
  </outline>
</glyph>
<glyph name="uni0137" format="1">
  <advance width="568"/>
  <unicode hex="0137"/>
  <outline>
    <contour>
      <point x="58" y="0" type="line"/>
      <point x="58" y="696" type="line"/>
      <point x="226" y="696" type="line"/>
      <point x="226" y="326" type="line"/>
      <point x="230" y="326" type="line"/>
      <point x="368" y="500" type="line"/>
      <point x="554" y="500" type="line"/>
      <point x="376" y="292" type="line"/>
      <point x="564" y="0" type="line"/>
      <point x="378" y="0" type="line"/>
      <point x="278" y="178" type="line"/>
      <point x="226" y="120" type="line"/>
      <point x="226" y="0" type="line"/>
    </contour>
    <contour>
      <point x="196" y="-244" type="curve"/>
      <point x="184" y="-178" type="line"/>
      <point x="260" y="-174"/>
      <point x="284" y="-164"/>
      <point x="284" y="-142" type="curve" smooth="yes"/>
      <point x="284" y="-126"/>
      <point x="268" y="-114"/>
      <point x="224" y="-110" type="curve"/>
      <point x="256" y="-50" type="line"/>
      <point x="370" y="-58"/>
      <point x="406" y="-86"/>
      <point x="406" y="-136" type="curve" smooth="yes"/>
      <point x="406" y="-208"/>
      <point x="328" y="-240"/>
    </contour>
  </outline>
</glyph>
<glyph name="kgreenlandic" format="1">
  <advance width="568"/>
  <unicode hex="0138"/>
  <outline>
    <contour>
      <point x="58" y="0" type="line"/>
      <point x="58" y="500" type="line"/>
      <point x="230" y="500" type="line"/>
      <point x="230" y="322" type="line"/>
      <point x="234" y="322" type="line"/>
      <point x="368" y="500" type="line"/>
      <point x="554" y="500" type="line"/>
      <point x="380" y="292" type="line"/>
      <point x="564" y="0" type="line"/>
      <point x="378" y="0" type="line"/>
      <point x="278" y="172" type="line"/>
      <point x="230" y="114" type="line"/>
      <point x="230" y="0" type="line"/>
    </contour>
  </outline>
</glyph>
<glyph name="Lacute" format="1">
  <advance width="530"/>
  <unicode hex="0139"/>
  <outline>
    <contour>
      <point x="72" y="0" type="line"/>
      <point x="72" y="650" type="line"/>
      <point x="244" y="650" type="line"/>
      <point x="244" y="144" type="line"/>
      <point x="490" y="144" type="line"/>
      <point x="490" y="0" type="line"/>
    </contour>
    <contour>
      <point x="154" y="674" type="line"/>
      <point x="78" y="760" type="line"/>
      <point x="260" y="904" type="line"/>
      <point x="350" y="794" type="line"/>
    </contour>
  </outline>
</glyph>
<glyph name="lacute" format="1">
  <advance width="298"/>
  <unicode hex="013A"/>
  <outline>
    <contour>
      <point x="212" y="-12" type="curve" smooth="yes"/>
      <point x="96" y="-12"/>
      <point x="58" y="64"/>
      <point x="58" y="176" type="curve" smooth="yes"/>
      <point x="58" y="696" type="line"/>
      <point x="230" y="696" type="line"/>
      <point x="230" y="170" type="line" smooth="yes"/>
      <point x="230" y="136"/>
      <point x="246" y="126"/>
      <point x="258" y="126" type="curve" smooth="yes"/>
      <point x="264" y="126"/>
      <point x="268" y="126"/>
      <point x="276" y="128" type="curve"/>
      <point x="296" y="2" type="line"/>
      <point x="278" y="-6"/>
      <point x="250" y="-12"/>
    </contour>
    <contour>
      <point x="141" y="730" type="line"/>
      <point x="65" y="816" type="line"/>
      <point x="247" y="960" type="line"/>
      <point x="337" y="850" type="line"/>
    </contour>
  </outline>
</glyph>
<glyph name="uni013B" format="1">
  <advance width="530"/>
  <unicode hex="013B"/>
  <outline>
    <contour>
      <point x="72" y="0" type="line"/>
      <point x="72" y="650" type="line"/>
      <point x="244" y="650" type="line"/>
      <point x="244" y="144" type="line"/>
      <point x="490" y="144" type="line"/>
      <point x="490" y="0" type="line"/>
    </contour>
    <contour>
      <point x="183" y="-244" type="curve"/>
      <point x="171" y="-178" type="line"/>
      <point x="247" y="-174"/>
      <point x="271" y="-164"/>
      <point x="271" y="-142" type="curve" smooth="yes"/>
      <point x="271" y="-126"/>
      <point x="255" y="-114"/>
      <point x="211" y="-110" type="curve"/>
      <point x="243" y="-50" type="line"/>
      <point x="357" y="-58"/>
      <point x="393" y="-86"/>
      <point x="393" y="-136" type="curve" smooth="yes"/>
      <point x="393" y="-208"/>
      <point x="315" y="-240"/>
    </contour>
  </outline>
</glyph>
<glyph name="uni013C" format="1">
  <advance width="298"/>
  <unicode hex="013C"/>
  <outline>
    <contour>
      <point x="212" y="-12" type="curve" smooth="yes"/>
      <point x="96" y="-12"/>
      <point x="58" y="64"/>
      <point x="58" y="176" type="curve" smooth="yes"/>
      <point x="58" y="696" type="line"/>
      <point x="230" y="696" type="line"/>
      <point x="230" y="170" type="line" smooth="yes"/>
      <point x="230" y="136"/>
      <point x="246" y="126"/>
      <point x="258" y="126" type="curve" smooth="yes"/>
      <point x="264" y="126"/>
      <point x="268" y="126"/>
      <point x="276" y="128" type="curve"/>
      <point x="296" y="2" type="line"/>
      <point x="278" y="-6"/>
      <point x="250" y="-12"/>
    </contour>
    <contour>
      <point x="90" y="-244" type="curve"/>
      <point x="78" y="-178" type="line"/>
      <point x="154" y="-174"/>
      <point x="178" y="-164"/>
      <point x="178" y="-142" type="curve" smooth="yes"/>
      <point x="178" y="-126"/>
      <point x="162" y="-114"/>
      <point x="118" y="-110" type="curve"/>
      <point x="150" y="-50" type="line"/>
      <point x="264" y="-58"/>
      <point x="300" y="-86"/>
      <point x="300" y="-136" type="curve" smooth="yes"/>
      <point x="300" y="-208"/>
      <point x="222" y="-240"/>
    </contour>
  </outline>
</glyph>
<glyph name="Lcaron" format="1">
  <advance width="530"/>
  <unicode hex="013D"/>
  <outline>
    <contour>
      <point x="72" y="0" type="line"/>
      <point x="72" y="650" type="line"/>
      <point x="244" y="650" type="line"/>
      <point x="244" y="144" type="line"/>
      <point x="490" y="144" type="line"/>
      <point x="490" y="0" type="line"/>
    </contour>
    <contour>
      <point x="360" y="508" type="line"/>
      <point x="354" y="734" type="line"/>
      <point x="462" y="734" type="line"/>
      <point x="460" y="660" type="line"/>
      <point x="432" y="508" type="line"/>
    </contour>
  </outline>
</glyph>
<glyph name="lcaron" format="1">
  <advance width="338"/>
  <unicode hex="013E"/>
  <outline>
    <contour>
      <point x="212" y="-12" type="curve" smooth="yes"/>
      <point x="96" y="-12"/>
      <point x="58" y="64"/>
      <point x="58" y="176" type="curve" smooth="yes"/>
      <point x="58" y="696" type="line"/>
      <point x="230" y="696" type="line"/>
      <point x="230" y="170" type="line" smooth="yes"/>
      <point x="230" y="136"/>
      <point x="246" y="126"/>
      <point x="258" y="126" type="curve" smooth="yes"/>
      <point x="264" y="126"/>
      <point x="268" y="126"/>
      <point x="276" y="128" type="curve"/>
      <point x="296" y="2" type="line"/>
      <point x="278" y="-6"/>
      <point x="250" y="-12"/>
    </contour>
    <contour>
      <point x="268" y="548" type="line"/>
      <point x="262" y="774" type="line"/>
      <point x="370" y="774" type="line"/>
      <point x="368" y="700" type="line"/>
      <point x="340" y="548" type="line"/>
    </contour>
  </outline>
</glyph>
<glyph name="Ldot" format="1">
  <advance width="530"/>
  <unicode hex="013F"/>
  <outline>
    <contour>
      <point x="72" y="0" type="line"/>
      <point x="72" y="650" type="line"/>
      <point x="244" y="650" type="line"/>
      <point x="244" y="144" type="line"/>
      <point x="490" y="144" type="line"/>
      <point x="490" y="0" type="line"/>
    </contour>
    <contour>
      <point x="423" y="226" type="curve" smooth="yes"/>
      <point x="365" y="226"/>
      <point x="323" y="272"/>
      <point x="323" y="330" type="curve" smooth="yes"/>
      <point x="323" y="388"/>
      <point x="365" y="434"/>
      <point x="423" y="434" type="curve" smooth="yes"/>
      <point x="481" y="434"/>
      <point x="523" y="388"/>
      <point x="523" y="330" type="curve" smooth="yes"/>
      <point x="523" y="272"/>
      <point x="481" y="226"/>
    </contour>
  </outline>
</glyph>
<glyph name="ldot" format="1">
  <advance width="488"/>
  <unicode hex="0140"/>
  <outline>
    <contour>
      <point x="212" y="-12" type="curve" smooth="yes"/>
      <point x="96" y="-12"/>
      <point x="58" y="64"/>
      <point x="58" y="176" type="curve" smooth="yes"/>
      <point x="58" y="696" type="line"/>
      <point x="230" y="696" type="line"/>
      <point x="230" y="170" type="line" smooth="yes"/>
      <point x="230" y="136"/>
      <point x="246" y="126"/>
      <point x="258" y="126" type="curve" smooth="yes"/>
      <point x="264" y="126"/>
      <point x="268" y="126"/>
      <point x="276" y="128" type="curve"/>
      <point x="296" y="2" type="line"/>
      <point x="278" y="-6"/>
      <point x="250" y="-12"/>
    </contour>
    <contour>
      <point x="388" y="226" type="curve" smooth="yes"/>
      <point x="330" y="226"/>
      <point x="288" y="272"/>
      <point x="288" y="330" type="curve" smooth="yes"/>
      <point x="288" y="388"/>
      <point x="330" y="434"/>
      <point x="388" y="434" type="curve" smooth="yes"/>
      <point x="446" y="434"/>
      <point x="488" y="388"/>
      <point x="488" y="330" type="curve" smooth="yes"/>
      <point x="488" y="272"/>
      <point x="446" y="226"/>
    </contour>
  </outline>
</glyph>
<glyph name="Lslash" format="1">
  <advance width="538"/>
  <unicode hex="0141"/>
  <outline>
    <contour>
      <point x="28" y="166" type="line"/>
      <point x="-30" y="268" type="line"/>
      <point x="80" y="331" type="line"/>
      <point x="80" y="650" type="line"/>
      <point x="252" y="650" type="line"/>
      <point x="252" y="410" type="line"/>
      <point x="402" y="494" type="line"/>
      <point x="460" y="392" type="line"/>
      <point x="252" y="277" type="line"/>
      <point x="252" y="144" type="line"/>
      <point x="498" y="144" type="line"/>
      <point x="498" y="0" type="line"/>
      <point x="80" y="0" type="line"/>
      <point x="80" y="198" type="line"/>
    </contour>
  </outline>
</glyph>
<glyph name="lslash" format="1">
  <advance width="318"/>
  <unicode hex="0142"/>
  <outline>
    <contour>
      <point x="224" y="-12" type="curve" smooth="yes"/>
      <point x="108" y="-12"/>
      <point x="70" y="64"/>
      <point x="70" y="176" type="curve" smooth="yes"/>
      <point x="70" y="255" type="line"/>
      <point x="30" y="232" type="line"/>
      <point x="-28" y="338" type="line"/>
      <point x="70" y="392" type="line"/>
      <point x="70" y="696" type="line"/>
      <point x="242" y="696" type="line"/>
      <point x="242" y="474" type="line"/>
      <point x="288" y="500" type="line"/>
      <point x="346" y="394" type="line"/>
      <point x="242" y="338" type="line"/>
      <point x="242" y="170" type="line" smooth="yes"/>
      <point x="242" y="136"/>
      <point x="258" y="126"/>
      <point x="270" y="126" type="curve" smooth="yes"/>
      <point x="276" y="126"/>
      <point x="280" y="126"/>
      <point x="288" y="128" type="curve"/>
      <point x="308" y="2" type="line"/>
      <point x="290" y="-6"/>
      <point x="262" y="-12"/>
    </contour>
  </outline>
</glyph>
<glyph name="uni0146" format="1">
  <advance width="582"/>
  <unicode hex="0146"/>
  <outline>
    <contour>
      <point x="58" y="0" type="line"/>
      <point x="58" y="500" type="line"/>
      <point x="198" y="500" type="line"/>
      <point x="210" y="440" type="line"/>
      <point x="214" y="440" type="line"/>
      <point x="254" y="478"/>
      <point x="304" y="512"/>
      <point x="372" y="512" type="curve" smooth="yes"/>
      <point x="482" y="512"/>
      <point x="528" y="432"/>
      <point x="528" y="308" type="curve" smooth="yes"/>
      <point x="528" y="0" type="line"/>
      <point x="356" y="0" type="line"/>
      <point x="356" y="286" type="line" smooth="yes"/>
      <point x="356" y="350"/>
      <point x="340" y="366"/>
      <point x="306" y="366" type="curve" smooth="yes"/>
      <point x="274" y="366"/>
      <point x="256" y="352"/>
      <point x="230" y="328" type="curve"/>
      <point x="230" y="0" type="line"/>
    </contour>
    <contour>
      <point x="188" y="-244" type="curve"/>
      <point x="176" y="-178" type="line"/>
      <point x="252" y="-174"/>
      <point x="276" y="-164"/>
      <point x="276" y="-142" type="curve" smooth="yes"/>
      <point x="276" y="-126"/>
      <point x="260" y="-114"/>
      <point x="216" y="-110" type="curve"/>
      <point x="248" y="-50" type="line"/>
      <point x="362" y="-58"/>
      <point x="398" y="-86"/>
      <point x="398" y="-136" type="curve" smooth="yes"/>
      <point x="398" y="-208"/>
      <point x="320" y="-240"/>
    </contour>
  </outline>
</glyph>
<glyph name="ncaron" format="1">
  <advance width="582"/>
  <unicode hex="0148"/>
  <outline>
    <contour>
      <point x="58" y="0" type="line"/>
      <point x="58" y="500" type="line"/>
      <point x="198" y="500" type="line"/>
      <point x="210" y="440" type="line"/>
      <point x="214" y="440" type="line"/>
      <point x="254" y="478"/>
      <point x="304" y="512"/>
      <point x="372" y="512" type="curve" smooth="yes"/>
      <point x="482" y="512"/>
      <point x="528" y="432"/>
      <point x="528" y="308" type="curve" smooth="yes"/>
      <point x="528" y="0" type="line"/>
      <point x="356" y="0" type="line"/>
      <point x="356" y="286" type="line" smooth="yes"/>
      <point x="356" y="350"/>
      <point x="340" y="366"/>
      <point x="306" y="366" type="curve" smooth="yes"/>
      <point x="274" y="366"/>
      <point x="256" y="352"/>
      <point x="230" y="328" type="curve"/>
      <point x="230" y="0" type="line"/>
    </contour>
    <contour>
      <point x="226" y="578" type="line"/>
      <point x="120" y="706" type="line"/>
      <point x="184" y="766" type="line"/>
      <point x="312" y="682" type="line"/>
      <point x="316" y="682" type="line"/>
      <point x="444" y="766" type="line"/>
      <point x="508" y="706" type="line"/>
      <point x="402" y="578" type="line"/>
    </contour>
  </outline>
</glyph>
<glyph name="napostrophe" format="1">
  <advance width="882"/>
  <unicode hex="0149"/>
  <outline>
    <contour>
      <point x="358" y="0" type="line"/>
      <point x="358" y="500" type="line"/>
      <point x="498" y="500" type="line"/>
      <point x="510" y="440" type="line"/>
      <point x="514" y="440" type="line"/>
      <point x="554" y="478"/>
      <point x="604" y="512"/>
      <point x="672" y="512" type="curve" smooth="yes"/>
      <point x="782" y="512"/>
      <point x="828" y="432"/>
      <point x="828" y="308" type="curve" smooth="yes"/>
      <point x="828" y="0" type="line"/>
      <point x="656" y="0" type="line"/>
      <point x="656" y="286" type="line" smooth="yes"/>
      <point x="656" y="350"/>
      <point x="640" y="366"/>
      <point x="606" y="366" type="curve" smooth="yes"/>
      <point x="574" y="366"/>
      <point x="556" y="352"/>
      <point x="530" y="328" type="curve"/>
      <point x="530" y="0" type="line"/>
    </contour>
    <contour>
      <point x="110" y="322" type="curve"/>
      <point x="74" y="396" type="line"/>
      <point x="138" y="424"/>
      <point x="170" y="464"/>
      <point x="170" y="523" type="curve"/>
      <point x="167" y="522"/>
      <point x="163" y="522"/>
      <point x="160" y="522" type="curve" smooth="yes"/>
      <point x="112" y="522"/>
      <point x="74" y="554"/>
      <point x="74" y="604" type="curve" smooth="yes"/>
      <point x="74" y="660"/>
      <point x="110" y="696"/>
      <point x="160" y="696" type="curve" smooth="yes"/>
      <point x="230" y="696"/>
      <point x="266" y="642"/>
      <point x="266" y="550" type="curve" smooth="yes"/>
      <point x="266" y="450"/>
      <point x="216" y="372"/>
    </contour>
  </outline>
</glyph>
<glyph name="uni014A" format="1">
  <advance width="678"/>
  <unicode hex="014A"/>
  <outline>
    <contour>
      <point x="378" y="672" type="move" name="Anchor-1"/>
    </contour>
    <contour>
      <point x="414" y="-12" type="curve" smooth="yes"/>
      <point x="382" y="-12"/>
      <point x="340" y="-6"/>
      <point x="320" y="8" type="curve"/>
      <point x="356" y="156" type="line"/>
      <point x="366" y="152"/>
      <point x="378" y="148"/>
      <point x="394" y="148" type="curve" smooth="yes"/>
      <point x="429" y="148"/>
      <point x="458" y="176"/>
      <point x="458" y="330" type="curve" smooth="yes"/>
      <point x="458" y="461"/>
      <point x="422" y="514"/>
      <point x="358" y="514" type="curve" smooth="yes"/>
      <point x="322" y="514"/>
      <point x="274" y="491"/>
      <point x="244" y="438" type="curve"/>
      <point x="244" y="0" type="line"/>
      <point x="72" y="0" type="line"/>
      <point x="72" y="650" type="line"/>
      <point x="238" y="650" type="line"/>
      <point x="238" y="584" type="line"/>
      <point x="288" y="638"/>
      <point x="346" y="662"/>
      <point x="411" y="662" type="curve" smooth="yes"/>
      <point x="538" y="662"/>
      <point x="634" y="572"/>
      <point x="634" y="330" type="curve" smooth="yes"/>
      <point x="634" y="105"/>
      <point x="569" y="-12"/>
    </contour>
  </outline>
</glyph>
<glyph name="uni014B" format="1">
  <advance width="582"/>
  <unicode hex="014B"/>
  <outline>
    <contour>
      <point x="314" y="522" type="move" name="Anchor-0"/>
    </contour>
    <contour>
      <point x="334" y="-188" type="curve" smooth="yes"/>
      <point x="288" y="-188"/>
      <point x="262" y="-182"/>
      <point x="240" y="-174" type="curve"/>
      <point x="270" y="-48" type="line"/>
      <point x="284" y="-52"/>
      <point x="294" y="-54"/>
      <point x="306" y="-54" type="curve" smooth="yes"/>
      <point x="342" y="-54"/>
      <point x="356" y="-34"/>
      <point x="356" y="20" type="curve" smooth="yes"/>
      <point x="356" y="286" type="line" smooth="yes"/>
      <point x="356" y="350"/>
      <point x="340" y="366"/>
      <point x="306" y="366" type="curve" smooth="yes"/>
      <point x="274" y="366"/>
      <point x="256" y="352"/>
      <point x="230" y="328" type="curve"/>
      <point x="230" y="0" type="line"/>
      <point x="58" y="0" type="line"/>
      <point x="58" y="500" type="line"/>
      <point x="198" y="500" type="line"/>
      <point x="210" y="440" type="line"/>
      <point x="214" y="440" type="line"/>
      <point x="254" y="478"/>
      <point x="304" y="512"/>
      <point x="372" y="512" type="curve" smooth="yes"/>
      <point x="482" y="512"/>
      <point x="528" y="432"/>
      <point x="528" y="308" type="curve" smooth="yes"/>
      <point x="528" y="26" type="line" smooth="yes"/>
      <point x="528" y="-86"/>
      <point x="484" y="-188"/>
    </contour>
  </outline>
</glyph>
<glyph name="uni014E" format="1">
  <advance width="692"/>
  <unicode hex="014E"/>
  <outline>
    <contour>
      <point x="346" y="-12" type="curve" smooth="yes"/>
      <point x="166" y="-12"/>
      <point x="44" y="114"/>
      <point x="44" y="328" type="curve" smooth="yes"/>
      <point x="44" y="542"/>
      <point x="166" y="662"/>
      <point x="346" y="662" type="curve" smooth="yes"/>
      <point x="526" y="662"/>
      <point x="648" y="541"/>
      <point x="648" y="328" type="curve" smooth="yes"/>
      <point x="648" y="114"/>
      <point x="526" y="-12"/>
    </contour>
    <contour>
      <point x="346" y="136" type="curve" smooth="yes"/>
      <point x="424" y="136"/>
      <point x="472" y="210"/>
      <point x="472" y="328" type="curve" smooth="yes"/>
      <point x="472" y="446"/>
      <point x="424" y="514"/>
      <point x="346" y="514" type="curve" smooth="yes"/>
      <point x="268" y="514"/>
      <point x="220" y="446"/>
      <point x="220" y="328" type="curve" smooth="yes"/>
      <point x="220" y="210"/>
      <point x="268" y="136"/>
    </contour>
    <contour>
      <point x="346" y="694" type="curve" smooth="yes"/>
      <point x="244" y="694"/>
      <point x="186" y="738"/>
      <point x="176" y="834" type="curve"/>
      <point x="268" y="850" type="line"/>
      <point x="277" y="811"/>
      <point x="306" y="792"/>
      <point x="346" y="792" type="curve" smooth="yes"/>
      <point x="386" y="792"/>
      <point x="415" y="811"/>
      <point x="424" y="850" type="curve"/>
      <point x="516" y="834" type="line"/>
      <point x="506" y="738"/>
      <point x="448" y="694"/>
    </contour>
  </outline>
</glyph>
<glyph name="uni014F" format="1">
  <advance width="560"/>
  <unicode hex="014F"/>
  <outline>
    <contour>
      <point x="280" y="-12" type="curve" smooth="yes"/>
      <point x="152" y="-12"/>
      <point x="32" y="84"/>
      <point x="32" y="250" type="curve" smooth="yes"/>
      <point x="32" y="416"/>
      <point x="152" y="512"/>
      <point x="280" y="512" type="curve" smooth="yes"/>
      <point x="408" y="512"/>
      <point x="528" y="416"/>
      <point x="528" y="250" type="curve" smooth="yes"/>
      <point x="528" y="84"/>
      <point x="408" y="-12"/>
    </contour>
    <contour>
      <point x="280" y="126" type="curve" smooth="yes"/>
      <point x="332" y="126"/>
      <point x="352" y="174"/>
      <point x="352" y="250" type="curve" smooth="yes"/>
      <point x="352" y="326"/>
      <point x="332" y="374"/>
      <point x="280" y="374" type="curve" smooth="yes"/>
      <point x="228" y="374"/>
      <point x="208" y="326"/>
      <point x="208" y="250" type="curve" smooth="yes"/>
      <point x="208" y="174"/>
      <point x="228" y="126"/>
    </contour>
    <contour>
      <point x="280" y="572" type="curve" smooth="yes"/>
      <point x="163" y="572"/>
      <point x="108" y="638"/>
      <point x="106" y="732" type="curve"/>
      <point x="202" y="748" type="line"/>
      <point x="208" y="708"/>
      <point x="232" y="678"/>
      <point x="280" y="678" type="curve" smooth="yes"/>
      <point x="328" y="678"/>
      <point x="352" y="708"/>
      <point x="358" y="748" type="curve"/>
      <point x="454" y="732" type="line"/>
      <point x="452" y="638"/>
      <point x="398" y="572"/>
    </contour>
  </outline>
</glyph>
<glyph name="OE" format="1">
  <advance width="880"/>
  <unicode hex="0152"/>
  <outline>
    <contour>
      <point x="528" y="672" type="move" name="Anchor-1"/>
    </contour>
    <contour>
      <point x="374" y="0" type="line" smooth="yes"/>
      <point x="194" y="0"/>
      <point x="44" y="98"/>
      <point x="44" y="328" type="curve" smooth="yes"/>
      <point x="44" y="558"/>
      <point x="194" y="650"/>
      <point x="384" y="650" type="curve" smooth="yes"/>
      <point x="816" y="650" type="line"/>
      <point x="816" y="506" type="line"/>
      <point x="580" y="506" type="line"/>
      <point x="580" y="404" type="line"/>
      <point x="780" y="404" type="line"/>
      <point x="780" y="260" type="line"/>
      <point x="580" y="260" type="line"/>
      <point x="580" y="144" type="line"/>
      <point x="826" y="144" type="line"/>
      <point x="826" y="0" type="line"/>
    </contour>
    <contour>
      <point x="394" y="138" type="curve" smooth="yes"/>
      <point x="408" y="138" type="line"/>
      <point x="408" y="512" type="line"/>
      <point x="394" y="512" type="line" smooth="yes"/>
      <point x="297" y="512"/>
      <point x="220" y="482"/>
      <point x="220" y="328" type="curve" smooth="yes"/>
      <point x="220" y="174"/>
      <point x="297" y="138"/>
    </contour>
  </outline>
</glyph>
<glyph name="oe" format="1">
  <advance width="816"/>
  <unicode hex="0153"/>
  <outline>
    <contour>
      <point x="420" y="522" type="move" name="Anchor-0"/>
    </contour>
    <contour>
      <point x="268" y="-12" type="curve" smooth="yes"/>
      <point x="138" y="-12"/>
      <point x="32" y="84"/>
      <point x="32" y="250" type="curve" smooth="yes"/>
      <point x="32" y="416"/>
      <point x="142" y="512"/>
      <point x="272" y="512" type="curve" smooth="yes"/>
      <point x="340" y="512"/>
      <point x="388" y="482"/>
      <point x="426" y="438" type="curve"/>
      <point x="468" y="486"/>
      <point x="522" y="512"/>
      <point x="578" y="512" type="curve" smooth="yes"/>
      <point x="714" y="512"/>
      <point x="780" y="400"/>
      <point x="780" y="266" type="curve" smooth="yes"/>
      <point x="780" y="236"/>
      <point x="776" y="210"/>
      <point x="773" y="198" type="curve"/>
      <point x="498" y="198" type="line"/>
      <point x="512" y="142"/>
      <point x="553" y="122"/>
      <point x="604" y="122" type="curve" smooth="yes"/>
      <point x="638" y="122"/>
      <point x="668" y="136"/>
      <point x="704" y="156" type="curve"/>
      <point x="762" y="46" type="line"/>
      <point x="708" y="8"/>
      <point x="636" y="-12"/>
      <point x="580" y="-12" type="curve" smooth="yes"/>
      <point x="526" y="-12"/>
      <point x="470" y="14"/>
      <point x="428" y="62" type="curve"/>
      <point x="386" y="14"/>
      <point x="338" y="-12"/>
    </contour>
    <contour>
      <point x="272" y="126" type="curve" smooth="yes"/>
      <point x="316" y="126"/>
      <point x="340" y="174"/>
      <point x="340" y="250" type="curve" smooth="yes"/>
      <point x="340" y="326"/>
      <point x="316" y="374"/>
      <point x="272" y="374" type="curve" smooth="yes"/>
      <point x="228" y="374"/>
      <point x="206" y="326"/>
      <point x="206" y="250" type="curve" smooth="yes"/>
      <point x="206" y="174"/>
      <point x="228" y="126"/>
    </contour>
    <contour>
      <point x="498" y="302" type="curve"/>
      <point x="634" y="302" type="line"/>
      <point x="634" y="346"/>
      <point x="618" y="382"/>
      <point x="572" y="382" type="curve" smooth="yes"/>
      <point x="534" y="382"/>
      <point x="506" y="360"/>
    </contour>
  </outline>
</glyph>
<glyph name="uni0156" format="1">
  <advance width="630"/>
  <unicode hex="0156"/>
  <outline>
    <contour>
      <point x="72" y="0" type="line"/>
      <point x="72" y="650" type="line"/>
      <point x="318" y="650" type="line" smooth="yes"/>
      <point x="458" y="650"/>
      <point x="578" y="602"/>
      <point x="578" y="440" type="curve" smooth="yes"/>
      <point x="578" y="347"/>
      <point x="536" y="286"/>
      <point x="473" y="252" type="curve"/>
      <point x="614" y="0" type="line"/>
      <point x="422" y="0" type="line"/>
      <point x="310" y="218" type="line"/>
      <point x="244" y="218" type="line"/>
      <point x="244" y="0" type="line"/>
    </contour>
    <contour>
      <point x="244" y="354" type="line"/>
      <point x="306" y="354" type="line" smooth="yes"/>
      <point x="374" y="354"/>
      <point x="410" y="384"/>
      <point x="410" y="440" type="curve" smooth="yes"/>
      <point x="410" y="496"/>
      <point x="374" y="514"/>
      <point x="306" y="514" type="curve" smooth="yes"/>
      <point x="244" y="514" type="line"/>
    </contour>
    <contour>
      <point x="226" y="-244" type="curve"/>
      <point x="214" y="-178" type="line"/>
      <point x="290" y="-174"/>
      <point x="314" y="-164"/>
      <point x="314" y="-142" type="curve" smooth="yes"/>
      <point x="314" y="-126"/>
      <point x="298" y="-114"/>
      <point x="254" y="-110" type="curve"/>
      <point x="286" y="-50" type="line"/>
      <point x="400" y="-58"/>
      <point x="436" y="-86"/>
      <point x="436" y="-136" type="curve" smooth="yes"/>
      <point x="436" y="-208"/>
      <point x="358" y="-240"/>
    </contour>
  </outline>
</glyph>
